<?xml version="1.0" encoding="utf-8" standalone="no"?>
<!DOCTYPE svg PUBLIC "-//W3C//DTD SVG 1.1//EN"
  "http://www.w3.org/Graphics/SVG/1.1/DTD/svg11.dtd">
<svg xmlns:xlink="http://www.w3.org/1999/xlink" width="432pt" height="432pt" viewBox="0 0 432 432" xmlns="http://www.w3.org/2000/svg" version="1.1">
 <metadata>
  <rdf:RDF xmlns:dc="http://purl.org/dc/elements/1.1/" xmlns:cc="http://creativecommons.org/ns#" xmlns:rdf="http://www.w3.org/1999/02/22-rdf-syntax-ns#">
   <cc:Work>
    <dc:type rdf:resource="http://purl.org/dc/dcmitype/StillImage"/>
    <dc:date>2024-04-29T14:01:49.581971</dc:date>
    <dc:format>image/svg+xml</dc:format>
    <dc:creator>
     <cc:Agent>
      <dc:title>Matplotlib v3.8.0, https://matplotlib.org/</dc:title>
     </cc:Agent>
    </dc:creator>
   </cc:Work>
  </rdf:RDF>
 </metadata>
 <defs>
  <style type="text/css">*{stroke-linejoin: round; stroke-linecap: butt}</style>
 </defs>
 <g id="figure_1">
  <g id="patch_1">
   <path d="M 0 432 
L 432 432 
L 432 0 
L 0 0 
z
" style="fill: #ffffff"/>
  </g>
  <g id="axes_1">
   <g id="patch_2">
    <path d="M 54 384.48 
L 388.8 384.48 
L 388.8 51.84 
L 54 51.84 
z
" style="fill: #ffffff"/>
   </g>
   <g id="Quiver_1">
    <path d="M 222.284895 217.269359 
L 311.361126 305.770905 
L 312.240275 303.104728 
L 318.492 314.6256 
L 306.930906 308.448574 
L 309.591337 307.552187 
L 220.515105 219.050641 
L 222.284895 217.269359 
" clip-path="url(#p521545625f)" style="fill: #0000ff"/>
   </g>
   <g id="Quiver_2">
    <path d="M 222.085466 217.108137 
L 309.710696 274.210731 
L 310.029765 271.421538 
L 318.492 281.431789 
L 305.916968 277.732718 
L 308.339764 276.314457 
L 220.714534 219.211863 
L 222.085466 217.108137 
" clip-path="url(#p521545625f)" style="fill: #0000ff"/>
   </g>
   <g id="Quiver_3">
    <path d="M 221.858011 216.991023 
L 308.42922 250.910025 
L 308.176264 248.114061 
L 318.492 256.201097 
L 305.428201 255.127922 
L 307.513199 253.247979 
L 220.941989 219.328977 
L 221.858011 216.991023 
" clip-path="url(#p521545625f)" style="fill: #0000ff"/>
   </g>
   <g id="Quiver_4">
    <path d="M 221.611986 216.922526 
L 307.566718 231.647005 
L 306.753215 228.960071 
L 318.492 234.79235 
L 305.481301 236.384916 
L 307.142747 234.121954 
L 221.188014 219.397474 
L 221.611986 216.922526 
" clip-path="url(#p521545625f)" style="fill: #0000ff"/>
   </g>
   <g id="Quiver_5">
    <path d="M 221.357412 216.905223 
L 307.156415 213.99315 
L 305.816461 211.526183 
L 318.492 214.864636 
L 306.071989 219.054848 
L 307.241591 216.502705 
L 221.442588 219.414777 
L 221.357412 216.905223 
" clip-path="url(#p521545625f)" style="fill: #0000ff"/>
   </g>
   <g id="Quiver_6">
    <path d="M 221.104554 216.939758 
L 307.214371 196.090752 
L 305.403236 193.945714 
L 318.492 194.651977 
L 307.175915 201.267169 
L 307.805264 198.531237 
L 221.695446 219.380242 
L 221.104554 216.939758 
" clip-path="url(#p521545625f)" style="fill: #0000ff"/>
   </g>
   <g id="Quiver_7">
    <path d="M 220.863626 217.024842 
L 307.739207 175.97519 
L 305.531301 174.241249 
L 318.492 172.282979 
L 308.749546 181.052195 
L 308.811955 178.245506 
L 221.936374 219.295158 
L 220.863626 217.024842 
" clip-path="url(#p521545625f)" style="fill: #0000ff"/>
   </g>
   <g id="Quiver_8">
    <path d="M 220.6445 217.157254 
L 308.711786 150.804584 
L 306.19804 149.554593 
L 318.492 145.007826 
L 310.731042 155.571068 
L 310.222787 152.810076 
L 222.1555 219.162746 
L 220.6445 217.157254 
" clip-path="url(#p521545625f)" style="fill: #0000ff"/>
   </g>
   <g id="Quiver_9">
    <path d="M 220.456365 217.33185 
L 310.095013 115.193143 
L 307.379592 114.480478 
L 318.492 107.528575 
L 313.041404 119.449379 
L 311.982284 116.849443 
L 222.343635 218.98815 
L 220.456365 217.33185 
" clip-path="url(#p521545625f)" style="fill: #0000ff"/>
   </g>
   <g id="Quiver_10">
    <path d="M 220.307339 217.541638 
L 282.511591 107.625189 
L 279.707906 107.481126 
L 289.169512 98.4096 
L 286.263874 111.191298 
L 284.696913 108.861913 
L 222.492661 218.778362 
L 220.307339 217.541638 
" clip-path="url(#p521545625f)" style="fill: #0000ff"/>
   </g>
   <g id="Quiver_11">
    <path d="M 220.20404 217.777954 
L 255.019497 108.791199 
L 252.24553 109.223068 
L 259.653868 98.4096 
L 259.421293 111.515341 
L 257.411418 109.55529 
L 222.59596 218.542046 
L 220.20404 217.777954 
" clip-path="url(#p521545625f)" style="fill: #0000ff"/>
   </g>
   <g id="Quiver_12">
    <path d="M 220.151167 218.030782 
L 231.378863 109.519877 
L 228.75198 110.510274 
L 233.790654 98.4096 
L 236.244977 111.28558 
L 233.876529 109.778312 
L 222.648833 218.289218 
L 220.151167 218.030782 
" clip-path="url(#p521545625f)" style="fill: #0000ff"/>
   </g>
   <g id="Quiver_13">
    <path d="M 220.151167 218.289218 
L 208.923471 109.778312 
L 206.555023 111.28558 
L 209.009346 98.4096 
L 214.04802 110.510274 
L 211.421137 109.519877 
L 222.648833 218.030782 
L 220.151167 218.289218 
" clip-path="url(#p521545625f)" style="fill: #0000ff"/>
   </g>
   <g id="Quiver_14">
    <path d="M 220.20404 218.542046 
L 185.388582 109.55529 
L 183.378707 111.515341 
L 183.146132 98.4096 
L 190.55447 109.223068 
L 187.780503 108.791199 
L 222.59596 217.777954 
L 220.20404 218.542046 
" clip-path="url(#p521545625f)" style="fill: #0000ff"/>
   </g>
   <g id="Quiver_15">
    <path d="M 220.307339 218.778362 
L 158.103087 108.861913 
L 156.536126 111.191298 
L 153.630488 98.4096 
L 163.092094 107.481126 
L 160.288409 107.625189 
L 222.492661 217.541638 
L 220.307339 218.778362 
" clip-path="url(#p521545625f)" style="fill: #0000ff"/>
   </g>
   <g id="Quiver_16">
    <path d="M 220.456365 218.98815 
L 130.817716 116.849443 
L 129.758596 119.449379 
L 124.308 107.528575 
L 135.420408 114.480478 
L 132.704987 115.193143 
L 222.343635 217.33185 
L 220.456365 218.98815 
" clip-path="url(#p521545625f)" style="fill: #0000ff"/>
   </g>
   <g id="Quiver_17">
    <path d="M 220.6445 219.162746 
L 132.577213 152.810076 
L 132.068958 155.571068 
L 124.308 145.007826 
L 136.60196 149.554593 
L 134.088214 150.804584 
L 222.1555 217.157254 
L 220.6445 219.162746 
" clip-path="url(#p521545625f)" style="fill: #0000ff"/>
   </g>
   <g id="Quiver_18">
    <path d="M 220.863626 219.295158 
L 133.988045 178.245506 
L 134.050454 181.052195 
L 124.308 172.282979 
L 137.268699 174.241249 
L 135.060793 175.97519 
L 221.936374 217.024842 
L 220.863626 219.295158 
" clip-path="url(#p521545625f)" style="fill: #0000ff"/>
   </g>
   <g id="Quiver_19">
    <path d="M 221.104554 219.380242 
L 134.994736 198.531237 
L 135.624085 201.267169 
L 124.308 194.651977 
L 137.396764 193.945714 
L 135.585629 196.090752 
L 221.695446 216.939758 
L 221.104554 219.380242 
" clip-path="url(#p521545625f)" style="fill: #0000ff"/>
   </g>
   <g id="Quiver_20">
    <path d="M 221.357412 219.414777 
L 135.558409 216.502705 
L 136.728011 219.054848 
L 124.308 214.864636 
L 136.983539 211.526183 
L 135.643585 213.99315 
L 221.442588 216.905223 
L 221.357412 219.414777 
" clip-path="url(#p521545625f)" style="fill: #0000ff"/>
   </g>
   <g id="Quiver_21">
    <path d="M 221.611986 219.397474 
L 135.657253 234.121954 
L 137.318699 236.384916 
L 124.308 234.79235 
L 136.046785 228.960071 
L 135.233282 231.647005 
L 221.188014 216.922526 
L 221.611986 219.397474 
" clip-path="url(#p521545625f)" style="fill: #0000ff"/>
   </g>
   <g id="Quiver_22">
    <path d="M 221.858011 219.328977 
L 135.286801 253.247979 
L 137.371799 255.127922 
L 124.308 256.201097 
L 134.623736 248.114061 
L 134.37078 250.910025 
L 220.941989 216.991023 
L 221.858011 219.328977 
" clip-path="url(#p521545625f)" style="fill: #0000ff"/>
   </g>
   <g id="Quiver_23">
    <path d="M 222.085466 219.211863 
L 134.460236 276.314457 
L 136.883032 277.732718 
L 124.308 281.431789 
L 132.770235 271.421538 
L 133.089304 274.210731 
L 220.714534 217.108137 
L 222.085466 219.211863 
" clip-path="url(#p521545625f)" style="fill: #0000ff"/>
   </g>
   <g id="Quiver_24">
    <path d="M 222.284895 219.050641 
L 133.208663 307.552187 
L 135.869094 308.448574 
L 124.308 314.6256 
L 130.559725 303.104728 
L 131.438874 305.770905 
L 220.515105 217.269359 
L 222.284895 219.050641 
" clip-path="url(#p521545625f)" style="fill: #0000ff"/>
   </g>
   <g id="patch_3">
    <path d="M 221.4 371.1744 
C 262.243399 371.1744 301.419457 355.051838 330.300101 326.35752 
C 359.180746 297.663202 375.408 258.739893 375.408 218.16 
C 375.408 177.580107 359.180746 138.656798 330.300101 109.96248 
C 301.419457 81.268162 262.243399 65.1456 221.4 65.1456 
C 180.556601 65.1456 141.380543 81.268162 112.499899 109.96248 
C 83.619254 138.656798 67.392 177.580107 67.392 218.16 
C 67.392 258.739893 83.619254 297.663202 112.499899 326.35752 
C 141.380543 355.051838 180.556601 371.1744 221.4 371.1744 
L 221.4 371.1744 
z
" clip-path="url(#p521545625f)" style="fill: none; stroke: #ff0000; stroke-linejoin: miter"/>
   </g>
   <g id="patch_4">
    <path d="M 124.308 351.216 
L 318.492 351.216 
L 318.492 98.4096 
L 124.308 98.4096 
z
" clip-path="url(#p521545625f)" style="fill: #0000ff; opacity: 0.3"/>
   </g>
   <g id="matplotlib.axis_1">
    <g id="xtick_1">
     <g id="line2d_1">
      <path d="M 87.48 384.48 
L 87.48 51.84 
" clip-path="url(#p521545625f)" style="fill: none; stroke: #b0b0b0; stroke-width: 0.8; stroke-linecap: square"/>
     </g>
     <g id="line2d_2">
      <defs>
       <path id="mfadd24cde3" d="M 0 0 
L 0 3.5 
" style="stroke: #000000; stroke-width: 0.8"/>
      </defs>
      <g>
       <use xlink:href="#mfadd24cde3" x="87.48" y="384.48" style="stroke: #000000; stroke-width: 0.8"/>
      </g>
     </g>
     <g id="text_1">
      <!-- −0.2 -->
      <g transform="translate(75.338594 399.078438) scale(0.1 -0.1)">
       <defs>
        <path id="DejaVuSans-2212" d="M 678 2272 
L 4684 2272 
L 4684 1741 
L 678 1741 
L 678 2272 
z
" transform="scale(0.015625)"/>
        <path id="DejaVuSans-30" d="M 2034 4250 
Q 1547 4250 1301 3770 
Q 1056 3291 1056 2328 
Q 1056 1369 1301 889 
Q 1547 409 2034 409 
Q 2525 409 2770 889 
Q 3016 1369 3016 2328 
Q 3016 3291 2770 3770 
Q 2525 4250 2034 4250 
z
M 2034 4750 
Q 2819 4750 3233 4129 
Q 3647 3509 3647 2328 
Q 3647 1150 3233 529 
Q 2819 -91 2034 -91 
Q 1250 -91 836 529 
Q 422 1150 422 2328 
Q 422 3509 836 4129 
Q 1250 4750 2034 4750 
z
" transform="scale(0.015625)"/>
        <path id="DejaVuSans-2e" d="M 684 794 
L 1344 794 
L 1344 0 
L 684 0 
L 684 794 
z
" transform="scale(0.015625)"/>
        <path id="DejaVuSans-32" d="M 1228 531 
L 3431 531 
L 3431 0 
L 469 0 
L 469 531 
Q 828 903 1448 1529 
Q 2069 2156 2228 2338 
Q 2531 2678 2651 2914 
Q 2772 3150 2772 3378 
Q 2772 3750 2511 3984 
Q 2250 4219 1831 4219 
Q 1534 4219 1204 4116 
Q 875 4013 500 3803 
L 500 4441 
Q 881 4594 1212 4672 
Q 1544 4750 1819 4750 
Q 2544 4750 2975 4387 
Q 3406 4025 3406 3419 
Q 3406 3131 3298 2873 
Q 3191 2616 2906 2266 
Q 2828 2175 2409 1742 
Q 1991 1309 1228 531 
z
" transform="scale(0.015625)"/>
       </defs>
       <use xlink:href="#DejaVuSans-2212"/>
       <use xlink:href="#DejaVuSans-30" x="83.789062"/>
       <use xlink:href="#DejaVuSans-2e" x="147.412109"/>
       <use xlink:href="#DejaVuSans-32" x="179.199219"/>
      </g>
     </g>
    </g>
    <g id="xtick_2">
     <g id="line2d_3">
      <path d="M 154.44 384.48 
L 154.44 51.84 
" clip-path="url(#p521545625f)" style="fill: none; stroke: #b0b0b0; stroke-width: 0.8; stroke-linecap: square"/>
     </g>
     <g id="line2d_4">
      <g>
       <use xlink:href="#mfadd24cde3" x="154.44" y="384.48" style="stroke: #000000; stroke-width: 0.8"/>
      </g>
     </g>
     <g id="text_2">
      <!-- −0.1 -->
      <g transform="translate(142.298594 399.078438) scale(0.1 -0.1)">
       <defs>
        <path id="DejaVuSans-31" d="M 794 531 
L 1825 531 
L 1825 4091 
L 703 3866 
L 703 4441 
L 1819 4666 
L 2450 4666 
L 2450 531 
L 3481 531 
L 3481 0 
L 794 0 
L 794 531 
z
" transform="scale(0.015625)"/>
       </defs>
       <use xlink:href="#DejaVuSans-2212"/>
       <use xlink:href="#DejaVuSans-30" x="83.789062"/>
       <use xlink:href="#DejaVuSans-2e" x="147.412109"/>
       <use xlink:href="#DejaVuSans-31" x="179.199219"/>
      </g>
     </g>
    </g>
    <g id="xtick_3">
     <g id="line2d_5">
      <path d="M 221.4 384.48 
L 221.4 51.84 
" clip-path="url(#p521545625f)" style="fill: none; stroke: #b0b0b0; stroke-width: 0.8; stroke-linecap: square"/>
     </g>
     <g id="line2d_6">
      <g>
       <use xlink:href="#mfadd24cde3" x="221.4" y="384.48" style="stroke: #000000; stroke-width: 0.8"/>
      </g>
     </g>
     <g id="text_3">
      <!-- 0.0 -->
      <g transform="translate(213.448438 399.078438) scale(0.1 -0.1)">
       <use xlink:href="#DejaVuSans-30"/>
       <use xlink:href="#DejaVuSans-2e" x="63.623047"/>
       <use xlink:href="#DejaVuSans-30" x="95.410156"/>
      </g>
     </g>
    </g>
    <g id="xtick_4">
     <g id="line2d_7">
      <path d="M 288.36 384.48 
L 288.36 51.84 
" clip-path="url(#p521545625f)" style="fill: none; stroke: #b0b0b0; stroke-width: 0.8; stroke-linecap: square"/>
     </g>
     <g id="line2d_8">
      <g>
       <use xlink:href="#mfadd24cde3" x="288.36" y="384.48" style="stroke: #000000; stroke-width: 0.8"/>
      </g>
     </g>
     <g id="text_4">
      <!-- 0.1 -->
      <g transform="translate(280.408437 399.078438) scale(0.1 -0.1)">
       <use xlink:href="#DejaVuSans-30"/>
       <use xlink:href="#DejaVuSans-2e" x="63.623047"/>
       <use xlink:href="#DejaVuSans-31" x="95.410156"/>
      </g>
     </g>
    </g>
    <g id="xtick_5">
     <g id="line2d_9">
      <path d="M 355.32 384.48 
L 355.32 51.84 
" clip-path="url(#p521545625f)" style="fill: none; stroke: #b0b0b0; stroke-width: 0.8; stroke-linecap: square"/>
     </g>
     <g id="line2d_10">
      <g>
       <use xlink:href="#mfadd24cde3" x="355.32" y="384.48" style="stroke: #000000; stroke-width: 0.8"/>
      </g>
     </g>
     <g id="text_5">
      <!-- 0.2 -->
      <g transform="translate(347.368437 399.078438) scale(0.1 -0.1)">
       <use xlink:href="#DejaVuSans-30"/>
       <use xlink:href="#DejaVuSans-2e" x="63.623047"/>
       <use xlink:href="#DejaVuSans-32" x="95.410156"/>
      </g>
     </g>
    </g>
    <g id="text_6">
     <!-- X coordinate -->
     <g transform="translate(189.717187 412.756563) scale(0.1 -0.1)">
      <defs>
       <path id="DejaVuSans-58" d="M 403 4666 
L 1081 4666 
L 2241 2931 
L 3406 4666 
L 4084 4666 
L 2584 2425 
L 4184 0 
L 3506 0 
L 2194 1984 
L 872 0 
L 191 0 
L 1856 2491 
L 403 4666 
z
" transform="scale(0.015625)"/>
       <path id="DejaVuSans-20" transform="scale(0.015625)"/>
       <path id="DejaVuSans-63" d="M 3122 3366 
L 3122 2828 
Q 2878 2963 2633 3030 
Q 2388 3097 2138 3097 
Q 1578 3097 1268 2742 
Q 959 2388 959 1747 
Q 959 1106 1268 751 
Q 1578 397 2138 397 
Q 2388 397 2633 464 
Q 2878 531 3122 666 
L 3122 134 
Q 2881 22 2623 -34 
Q 2366 -91 2075 -91 
Q 1284 -91 818 406 
Q 353 903 353 1747 
Q 353 2603 823 3093 
Q 1294 3584 2113 3584 
Q 2378 3584 2631 3529 
Q 2884 3475 3122 3366 
z
" transform="scale(0.015625)"/>
       <path id="DejaVuSans-6f" d="M 1959 3097 
Q 1497 3097 1228 2736 
Q 959 2375 959 1747 
Q 959 1119 1226 758 
Q 1494 397 1959 397 
Q 2419 397 2687 759 
Q 2956 1122 2956 1747 
Q 2956 2369 2687 2733 
Q 2419 3097 1959 3097 
z
M 1959 3584 
Q 2709 3584 3137 3096 
Q 3566 2609 3566 1747 
Q 3566 888 3137 398 
Q 2709 -91 1959 -91 
Q 1206 -91 779 398 
Q 353 888 353 1747 
Q 353 2609 779 3096 
Q 1206 3584 1959 3584 
z
" transform="scale(0.015625)"/>
       <path id="DejaVuSans-72" d="M 2631 2963 
Q 2534 3019 2420 3045 
Q 2306 3072 2169 3072 
Q 1681 3072 1420 2755 
Q 1159 2438 1159 1844 
L 1159 0 
L 581 0 
L 581 3500 
L 1159 3500 
L 1159 2956 
Q 1341 3275 1631 3429 
Q 1922 3584 2338 3584 
Q 2397 3584 2469 3576 
Q 2541 3569 2628 3553 
L 2631 2963 
z
" transform="scale(0.015625)"/>
       <path id="DejaVuSans-64" d="M 2906 2969 
L 2906 4863 
L 3481 4863 
L 3481 0 
L 2906 0 
L 2906 525 
Q 2725 213 2448 61 
Q 2172 -91 1784 -91 
Q 1150 -91 751 415 
Q 353 922 353 1747 
Q 353 2572 751 3078 
Q 1150 3584 1784 3584 
Q 2172 3584 2448 3432 
Q 2725 3281 2906 2969 
z
M 947 1747 
Q 947 1113 1208 752 
Q 1469 391 1925 391 
Q 2381 391 2643 752 
Q 2906 1113 2906 1747 
Q 2906 2381 2643 2742 
Q 2381 3103 1925 3103 
Q 1469 3103 1208 2742 
Q 947 2381 947 1747 
z
" transform="scale(0.015625)"/>
       <path id="DejaVuSans-69" d="M 603 3500 
L 1178 3500 
L 1178 0 
L 603 0 
L 603 3500 
z
M 603 4863 
L 1178 4863 
L 1178 4134 
L 603 4134 
L 603 4863 
z
" transform="scale(0.015625)"/>
       <path id="DejaVuSans-6e" d="M 3513 2113 
L 3513 0 
L 2938 0 
L 2938 2094 
Q 2938 2591 2744 2837 
Q 2550 3084 2163 3084 
Q 1697 3084 1428 2787 
Q 1159 2491 1159 1978 
L 1159 0 
L 581 0 
L 581 3500 
L 1159 3500 
L 1159 2956 
Q 1366 3272 1645 3428 
Q 1925 3584 2291 3584 
Q 2894 3584 3203 3211 
Q 3513 2838 3513 2113 
z
" transform="scale(0.015625)"/>
       <path id="DejaVuSans-61" d="M 2194 1759 
Q 1497 1759 1228 1600 
Q 959 1441 959 1056 
Q 959 750 1161 570 
Q 1363 391 1709 391 
Q 2188 391 2477 730 
Q 2766 1069 2766 1631 
L 2766 1759 
L 2194 1759 
z
M 3341 1997 
L 3341 0 
L 2766 0 
L 2766 531 
Q 2569 213 2275 61 
Q 1981 -91 1556 -91 
Q 1019 -91 701 211 
Q 384 513 384 1019 
Q 384 1609 779 1909 
Q 1175 2209 1959 2209 
L 2766 2209 
L 2766 2266 
Q 2766 2663 2505 2880 
Q 2244 3097 1772 3097 
Q 1472 3097 1187 3025 
Q 903 2953 641 2809 
L 641 3341 
Q 956 3463 1253 3523 
Q 1550 3584 1831 3584 
Q 2591 3584 2966 3190 
Q 3341 2797 3341 1997 
z
" transform="scale(0.015625)"/>
       <path id="DejaVuSans-74" d="M 1172 4494 
L 1172 3500 
L 2356 3500 
L 2356 3053 
L 1172 3053 
L 1172 1153 
Q 1172 725 1289 603 
Q 1406 481 1766 481 
L 2356 481 
L 2356 0 
L 1766 0 
Q 1100 0 847 248 
Q 594 497 594 1153 
L 594 3053 
L 172 3053 
L 172 3500 
L 594 3500 
L 594 4494 
L 1172 4494 
z
" transform="scale(0.015625)"/>
       <path id="DejaVuSans-65" d="M 3597 1894 
L 3597 1613 
L 953 1613 
Q 991 1019 1311 708 
Q 1631 397 2203 397 
Q 2534 397 2845 478 
Q 3156 559 3463 722 
L 3463 178 
Q 3153 47 2828 -22 
Q 2503 -91 2169 -91 
Q 1331 -91 842 396 
Q 353 884 353 1716 
Q 353 2575 817 3079 
Q 1281 3584 2069 3584 
Q 2775 3584 3186 3129 
Q 3597 2675 3597 1894 
z
M 3022 2063 
Q 3016 2534 2758 2815 
Q 2500 3097 2075 3097 
Q 1594 3097 1305 2825 
Q 1016 2553 972 2059 
L 3022 2063 
z
" transform="scale(0.015625)"/>
      </defs>
      <use xlink:href="#DejaVuSans-58"/>
      <use xlink:href="#DejaVuSans-20" x="68.505859"/>
      <use xlink:href="#DejaVuSans-63" x="100.292969"/>
      <use xlink:href="#DejaVuSans-6f" x="155.273438"/>
      <use xlink:href="#DejaVuSans-6f" x="216.455078"/>
      <use xlink:href="#DejaVuSans-72" x="277.636719"/>
      <use xlink:href="#DejaVuSans-64" x="317"/>
      <use xlink:href="#DejaVuSans-69" x="380.476562"/>
      <use xlink:href="#DejaVuSans-6e" x="408.259766"/>
      <use xlink:href="#DejaVuSans-61" x="471.638672"/>
      <use xlink:href="#DejaVuSans-74" x="532.917969"/>
      <use xlink:href="#DejaVuSans-65" x="572.126953"/>
     </g>
    </g>
   </g>
   <g id="matplotlib.axis_2">
    <g id="ytick_1">
     <g id="line2d_11">
      <path d="M 54 351.216 
L 388.8 351.216 
" clip-path="url(#p521545625f)" style="fill: none; stroke: #b0b0b0; stroke-width: 0.8; stroke-linecap: square"/>
     </g>
     <g id="line2d_12">
      <defs>
       <path id="me985997d14" d="M 0 0 
L -3.5 0 
" style="stroke: #000000; stroke-width: 0.8"/>
      </defs>
      <g>
       <use xlink:href="#me985997d14" x="54" y="351.216" style="stroke: #000000; stroke-width: 0.8"/>
      </g>
     </g>
     <g id="text_7">
      <!-- −0.2 -->
      <g transform="translate(22.717187 355.015219) scale(0.1 -0.1)">
       <use xlink:href="#DejaVuSans-2212"/>
       <use xlink:href="#DejaVuSans-30" x="83.789062"/>
       <use xlink:href="#DejaVuSans-2e" x="147.412109"/>
       <use xlink:href="#DejaVuSans-32" x="179.199219"/>
      </g>
     </g>
    </g>
    <g id="ytick_2">
     <g id="line2d_13">
      <path d="M 54 284.688 
L 388.8 284.688 
" clip-path="url(#p521545625f)" style="fill: none; stroke: #b0b0b0; stroke-width: 0.8; stroke-linecap: square"/>
     </g>
     <g id="line2d_14">
      <g>
       <use xlink:href="#me985997d14" x="54" y="284.688" style="stroke: #000000; stroke-width: 0.8"/>
      </g>
     </g>
     <g id="text_8">
      <!-- −0.1 -->
      <g transform="translate(22.717187 288.487219) scale(0.1 -0.1)">
       <use xlink:href="#DejaVuSans-2212"/>
       <use xlink:href="#DejaVuSans-30" x="83.789062"/>
       <use xlink:href="#DejaVuSans-2e" x="147.412109"/>
       <use xlink:href="#DejaVuSans-31" x="179.199219"/>
      </g>
     </g>
    </g>
    <g id="ytick_3">
     <g id="line2d_15">
      <path d="M 54 218.16 
L 388.8 218.16 
" clip-path="url(#p521545625f)" style="fill: none; stroke: #b0b0b0; stroke-width: 0.8; stroke-linecap: square"/>
     </g>
     <g id="line2d_16">
      <g>
       <use xlink:href="#me985997d14" x="54" y="218.16" style="stroke: #000000; stroke-width: 0.8"/>
      </g>
     </g>
     <g id="text_9">
      <!-- 0.0 -->
      <g transform="translate(31.096875 221.959219) scale(0.1 -0.1)">
       <use xlink:href="#DejaVuSans-30"/>
       <use xlink:href="#DejaVuSans-2e" x="63.623047"/>
       <use xlink:href="#DejaVuSans-30" x="95.410156"/>
      </g>
     </g>
    </g>
    <g id="ytick_4">
     <g id="line2d_17">
      <path d="M 54 151.632 
L 388.8 151.632 
" clip-path="url(#p521545625f)" style="fill: none; stroke: #b0b0b0; stroke-width: 0.8; stroke-linecap: square"/>
     </g>
     <g id="line2d_18">
      <g>
       <use xlink:href="#me985997d14" x="54" y="151.632" style="stroke: #000000; stroke-width: 0.8"/>
      </g>
     </g>
     <g id="text_10">
      <!-- 0.1 -->
      <g transform="translate(31.096875 155.431219) scale(0.1 -0.1)">
       <use xlink:href="#DejaVuSans-30"/>
       <use xlink:href="#DejaVuSans-2e" x="63.623047"/>
       <use xlink:href="#DejaVuSans-31" x="95.410156"/>
      </g>
     </g>
    </g>
    <g id="ytick_5">
     <g id="line2d_19">
      <path d="M 54 85.104 
L 388.8 85.104 
" clip-path="url(#p521545625f)" style="fill: none; stroke: #b0b0b0; stroke-width: 0.8; stroke-linecap: square"/>
     </g>
     <g id="line2d_20">
      <g>
       <use xlink:href="#me985997d14" x="54" y="85.104" style="stroke: #000000; stroke-width: 0.8"/>
      </g>
     </g>
     <g id="text_11">
      <!-- 0.2 -->
      <g transform="translate(31.096875 88.903219) scale(0.1 -0.1)">
       <use xlink:href="#DejaVuSans-30"/>
       <use xlink:href="#DejaVuSans-2e" x="63.623047"/>
       <use xlink:href="#DejaVuSans-32" x="95.410156"/>
      </g>
     </g>
    </g>
    <g id="text_12">
     <!-- Y coordinate -->
     <g transform="translate(16.6375 249.471719) rotate(-90) scale(0.1 -0.1)">
      <defs>
       <path id="DejaVuSans-59" d="M -13 4666 
L 666 4666 
L 1959 2747 
L 3244 4666 
L 3922 4666 
L 2272 2222 
L 2272 0 
L 1638 0 
L 1638 2222 
L -13 4666 
z
" transform="scale(0.015625)"/>
      </defs>
      <use xlink:href="#DejaVuSans-59"/>
      <use xlink:href="#DejaVuSans-20" x="61.083984"/>
      <use xlink:href="#DejaVuSans-63" x="92.871094"/>
      <use xlink:href="#DejaVuSans-6f" x="147.851562"/>
      <use xlink:href="#DejaVuSans-6f" x="209.033203"/>
      <use xlink:href="#DejaVuSans-72" x="270.214844"/>
      <use xlink:href="#DejaVuSans-64" x="309.578125"/>
      <use xlink:href="#DejaVuSans-69" x="373.054688"/>
      <use xlink:href="#DejaVuSans-6e" x="400.837891"/>
      <use xlink:href="#DejaVuSans-61" x="464.216797"/>
      <use xlink:href="#DejaVuSans-74" x="525.496094"/>
      <use xlink:href="#DejaVuSans-65" x="564.705078"/>
     </g>
    </g>
   </g>
   <g id="line2d_21">
    <path d="M 221.4 218.16 
L 330.300101 326.35752 
" clip-path="url(#p521545625f)" style="fill: none; stroke-dasharray: 5.55,2.4; stroke-dashoffset: 0; stroke: #ff0000; stroke-width: 1.5"/>
   </g>
   <g id="line2d_22">
    <path d="M 221.4 218.16 
L 350.178737 302.081034 
" clip-path="url(#p521545625f)" style="fill: none; stroke-dasharray: 5.55,2.4; stroke-dashoffset: 0; stroke: #ff0000; stroke-width: 1.5"/>
   </g>
   <g id="line2d_23">
    <path d="M 221.4 218.16 
L 364.670323 274.293978 
" clip-path="url(#p521545625f)" style="fill: none; stroke-dasharray: 5.55,2.4; stroke-dashoffset: 0; stroke: #ff0000; stroke-width: 1.5"/>
   </g>
   <g id="line2d_24">
    <path d="M 221.4 218.16 
L 373.168649 244.158736 
" clip-path="url(#p521545625f)" style="fill: none; stroke-dasharray: 5.55,2.4; stroke-dashoffset: 0; stroke: #ff0000; stroke-width: 1.5"/>
   </g>
   <g id="line2d_25">
    <path d="M 221.4 218.16 
L 375.318217 212.935919 
" clip-path="url(#p521545625f)" style="fill: none; stroke-dasharray: 5.55,2.4; stroke-dashoffset: 0; stroke: #ff0000; stroke-width: 1.5"/>
   </g>
   <g id="line2d_26">
    <path d="M 221.4 218.16 
L 371.029104 181.931634 
" clip-path="url(#p521545625f)" style="fill: none; stroke-dasharray: 5.55,2.4; stroke-dashoffset: 0; stroke: #ff0000; stroke-width: 1.5"/>
   </g>
   <g id="line2d_27">
    <path d="M 221.4 218.16 
L 360.480733 152.442849 
" clip-path="url(#p521545625f)" style="fill: none; stroke-dasharray: 5.55,2.4; stroke-dashoffset: 0; stroke: #ff0000; stroke-width: 1.5"/>
   </g>
   <g id="line2d_28">
    <path d="M 221.4 218.16 
L 344.114362 125.703131 
" clip-path="url(#p521545625f)" style="fill: none; stroke-dasharray: 5.55,2.4; stroke-dashoffset: 0; stroke: #ff0000; stroke-width: 1.5"/>
   </g>
   <g id="line2d_29">
    <path d="M 221.4 218.16 
L 322.614624 102.831054 
" clip-path="url(#p521545625f)" style="fill: none; stroke-dasharray: 5.55,2.4; stroke-dashoffset: 0; stroke: #ff0000; stroke-width: 1.5"/>
   </g>
   <g id="line2d_30">
    <path d="M 221.4 218.16 
L 296.880894 84.783396 
" clip-path="url(#p521545625f)" style="fill: none; stroke-dasharray: 5.55,2.4; stroke-dashoffset: 0; stroke: #ff0000; stroke-width: 1.5"/>
   </g>
   <g id="line2d_31">
    <path d="M 221.4 218.16 
L 267.989661 72.315125 
" clip-path="url(#p521545625f)" style="fill: none; stroke-dasharray: 5.55,2.4; stroke-dashoffset: 0; stroke: #ff0000; stroke-width: 1.5"/>
   </g>
   <g id="line2d_32">
    <path d="M 221.4 218.16 
L 237.149497 65.947812 
" clip-path="url(#p521545625f)" style="fill: none; stroke-dasharray: 5.55,2.4; stroke-dashoffset: 0; stroke: #ff0000; stroke-width: 1.5"/>
   </g>
   <g id="line2d_33">
    <path d="M 221.4 218.16 
L 205.650503 65.947812 
" clip-path="url(#p521545625f)" style="fill: none; stroke-dasharray: 5.55,2.4; stroke-dashoffset: 0; stroke: #ff0000; stroke-width: 1.5"/>
   </g>
   <g id="line2d_34">
    <path d="M 221.4 218.16 
L 174.810339 72.315125 
" clip-path="url(#p521545625f)" style="fill: none; stroke-dasharray: 5.55,2.4; stroke-dashoffset: 0; stroke: #ff0000; stroke-width: 1.5"/>
   </g>
   <g id="line2d_35">
    <path d="M 221.4 218.16 
L 145.919106 84.783396 
" clip-path="url(#p521545625f)" style="fill: none; stroke-dasharray: 5.55,2.4; stroke-dashoffset: 0; stroke: #ff0000; stroke-width: 1.5"/>
   </g>
   <g id="line2d_36">
    <path d="M 221.4 218.16 
L 120.185376 102.831054 
" clip-path="url(#p521545625f)" style="fill: none; stroke-dasharray: 5.55,2.4; stroke-dashoffset: 0; stroke: #ff0000; stroke-width: 1.5"/>
   </g>
   <g id="line2d_37">
    <path d="M 221.4 218.16 
L 98.685638 125.703131 
" clip-path="url(#p521545625f)" style="fill: none; stroke-dasharray: 5.55,2.4; stroke-dashoffset: 0; stroke: #ff0000; stroke-width: 1.5"/>
   </g>
   <g id="line2d_38">
    <path d="M 221.4 218.16 
L 82.319267 152.442849 
" clip-path="url(#p521545625f)" style="fill: none; stroke-dasharray: 5.55,2.4; stroke-dashoffset: 0; stroke: #ff0000; stroke-width: 1.5"/>
   </g>
   <g id="line2d_39">
    <path d="M 221.4 218.16 
L 71.770896 181.931634 
" clip-path="url(#p521545625f)" style="fill: none; stroke-dasharray: 5.55,2.4; stroke-dashoffset: 0; stroke: #ff0000; stroke-width: 1.5"/>
   </g>
   <g id="line2d_40">
    <path d="M 221.4 218.16 
L 67.481783 212.935919 
" clip-path="url(#p521545625f)" style="fill: none; stroke-dasharray: 5.55,2.4; stroke-dashoffset: 0; stroke: #ff0000; stroke-width: 1.5"/>
   </g>
   <g id="line2d_41">
    <path d="M 221.4 218.16 
L 69.631351 244.158736 
" clip-path="url(#p521545625f)" style="fill: none; stroke-dasharray: 5.55,2.4; stroke-dashoffset: 0; stroke: #ff0000; stroke-width: 1.5"/>
   </g>
   <g id="line2d_42">
    <path d="M 221.4 218.16 
L 78.129677 274.293978 
" clip-path="url(#p521545625f)" style="fill: none; stroke-dasharray: 5.55,2.4; stroke-dashoffset: 0; stroke: #ff0000; stroke-width: 1.5"/>
   </g>
   <g id="line2d_43">
    <path d="M 221.4 218.16 
L 92.621263 302.081034 
" clip-path="url(#p521545625f)" style="fill: none; stroke-dasharray: 5.55,2.4; stroke-dashoffset: 0; stroke: #ff0000; stroke-width: 1.5"/>
   </g>
   <g id="line2d_44">
    <path d="M 221.4 218.16 
L 112.499899 326.35752 
" clip-path="url(#p521545625f)" style="fill: none; stroke-dasharray: 5.55,2.4; stroke-dashoffset: 0; stroke: #ff0000; stroke-width: 1.5"/>
   </g>
   <g id="line2d_45">
    <path d="M 54 218.16 
L 388.8 218.16 
" clip-path="url(#p521545625f)" style="fill: none; stroke: #808080; stroke-width: 0.5; stroke-linecap: square"/>
   </g>
   <g id="line2d_46">
    <path d="M 221.4 384.48 
L 221.4 51.84 
" clip-path="url(#p521545625f)" style="fill: none; stroke: #808080; stroke-width: 0.5; stroke-linecap: square"/>
   </g>
   <g id="patch_5">
    <path d="M 54 384.48 
L 54 51.84 
" style="fill: none; stroke: #000000; stroke-width: 0.8; stroke-linejoin: miter; stroke-linecap: square"/>
   </g>
   <g id="patch_6">
    <path d="M 388.8 384.48 
L 388.8 51.84 
" style="fill: none; stroke: #000000; stroke-width: 0.8; stroke-linejoin: miter; stroke-linecap: square"/>
   </g>
   <g id="patch_7">
    <path d="M 54 384.48 
L 388.8 384.48 
" style="fill: none; stroke: #000000; stroke-width: 0.8; stroke-linejoin: miter; stroke-linecap: square"/>
   </g>
   <g id="patch_8">
    <path d="M 54 51.84 
L 388.8 51.84 
" style="fill: none; stroke: #000000; stroke-width: 0.8; stroke-linejoin: miter; stroke-linecap: square"/>
   </g>
   <g id="text_13">
    <!-- Vectors from origin to points -->
    <g transform="translate(136.033125 45.84) scale(0.12 -0.12)">
     <defs>
      <path id="DejaVuSans-56" d="M 1831 0 
L 50 4666 
L 709 4666 
L 2188 738 
L 3669 4666 
L 4325 4666 
L 2547 0 
L 1831 0 
z
" transform="scale(0.015625)"/>
      <path id="DejaVuSans-73" d="M 2834 3397 
L 2834 2853 
Q 2591 2978 2328 3040 
Q 2066 3103 1784 3103 
Q 1356 3103 1142 2972 
Q 928 2841 928 2578 
Q 928 2378 1081 2264 
Q 1234 2150 1697 2047 
L 1894 2003 
Q 2506 1872 2764 1633 
Q 3022 1394 3022 966 
Q 3022 478 2636 193 
Q 2250 -91 1575 -91 
Q 1294 -91 989 -36 
Q 684 19 347 128 
L 347 722 
Q 666 556 975 473 
Q 1284 391 1588 391 
Q 1994 391 2212 530 
Q 2431 669 2431 922 
Q 2431 1156 2273 1281 
Q 2116 1406 1581 1522 
L 1381 1569 
Q 847 1681 609 1914 
Q 372 2147 372 2553 
Q 372 3047 722 3315 
Q 1072 3584 1716 3584 
Q 2034 3584 2315 3537 
Q 2597 3491 2834 3397 
z
" transform="scale(0.015625)"/>
      <path id="DejaVuSans-66" d="M 2375 4863 
L 2375 4384 
L 1825 4384 
Q 1516 4384 1395 4259 
Q 1275 4134 1275 3809 
L 1275 3500 
L 2222 3500 
L 2222 3053 
L 1275 3053 
L 1275 0 
L 697 0 
L 697 3053 
L 147 3053 
L 147 3500 
L 697 3500 
L 697 3744 
Q 697 4328 969 4595 
Q 1241 4863 1831 4863 
L 2375 4863 
z
" transform="scale(0.015625)"/>
      <path id="DejaVuSans-6d" d="M 3328 2828 
Q 3544 3216 3844 3400 
Q 4144 3584 4550 3584 
Q 5097 3584 5394 3201 
Q 5691 2819 5691 2113 
L 5691 0 
L 5113 0 
L 5113 2094 
Q 5113 2597 4934 2840 
Q 4756 3084 4391 3084 
Q 3944 3084 3684 2787 
Q 3425 2491 3425 1978 
L 3425 0 
L 2847 0 
L 2847 2094 
Q 2847 2600 2669 2842 
Q 2491 3084 2119 3084 
Q 1678 3084 1418 2786 
Q 1159 2488 1159 1978 
L 1159 0 
L 581 0 
L 581 3500 
L 1159 3500 
L 1159 2956 
Q 1356 3278 1631 3431 
Q 1906 3584 2284 3584 
Q 2666 3584 2933 3390 
Q 3200 3197 3328 2828 
z
" transform="scale(0.015625)"/>
      <path id="DejaVuSans-67" d="M 2906 1791 
Q 2906 2416 2648 2759 
Q 2391 3103 1925 3103 
Q 1463 3103 1205 2759 
Q 947 2416 947 1791 
Q 947 1169 1205 825 
Q 1463 481 1925 481 
Q 2391 481 2648 825 
Q 2906 1169 2906 1791 
z
M 3481 434 
Q 3481 -459 3084 -895 
Q 2688 -1331 1869 -1331 
Q 1566 -1331 1297 -1286 
Q 1028 -1241 775 -1147 
L 775 -588 
Q 1028 -725 1275 -790 
Q 1522 -856 1778 -856 
Q 2344 -856 2625 -561 
Q 2906 -266 2906 331 
L 2906 616 
Q 2728 306 2450 153 
Q 2172 0 1784 0 
Q 1141 0 747 490 
Q 353 981 353 1791 
Q 353 2603 747 3093 
Q 1141 3584 1784 3584 
Q 2172 3584 2450 3431 
Q 2728 3278 2906 2969 
L 2906 3500 
L 3481 3500 
L 3481 434 
z
" transform="scale(0.015625)"/>
      <path id="DejaVuSans-70" d="M 1159 525 
L 1159 -1331 
L 581 -1331 
L 581 3500 
L 1159 3500 
L 1159 2969 
Q 1341 3281 1617 3432 
Q 1894 3584 2278 3584 
Q 2916 3584 3314 3078 
Q 3713 2572 3713 1747 
Q 3713 922 3314 415 
Q 2916 -91 2278 -91 
Q 1894 -91 1617 61 
Q 1341 213 1159 525 
z
M 3116 1747 
Q 3116 2381 2855 2742 
Q 2594 3103 2138 3103 
Q 1681 3103 1420 2742 
Q 1159 2381 1159 1747 
Q 1159 1113 1420 752 
Q 1681 391 2138 391 
Q 2594 391 2855 752 
Q 3116 1113 3116 1747 
z
" transform="scale(0.015625)"/>
     </defs>
     <use xlink:href="#DejaVuSans-56"/>
     <use xlink:href="#DejaVuSans-65" x="60.658203"/>
     <use xlink:href="#DejaVuSans-63" x="122.181641"/>
     <use xlink:href="#DejaVuSans-74" x="177.162109"/>
     <use xlink:href="#DejaVuSans-6f" x="216.371094"/>
     <use xlink:href="#DejaVuSans-72" x="277.552734"/>
     <use xlink:href="#DejaVuSans-73" x="318.666016"/>
     <use xlink:href="#DejaVuSans-20" x="370.765625"/>
     <use xlink:href="#DejaVuSans-66" x="402.552734"/>
     <use xlink:href="#DejaVuSans-72" x="437.757812"/>
     <use xlink:href="#DejaVuSans-6f" x="476.621094"/>
     <use xlink:href="#DejaVuSans-6d" x="537.802734"/>
     <use xlink:href="#DejaVuSans-20" x="635.214844"/>
     <use xlink:href="#DejaVuSans-6f" x="667.001953"/>
     <use xlink:href="#DejaVuSans-72" x="728.183594"/>
     <use xlink:href="#DejaVuSans-69" x="769.296875"/>
     <use xlink:href="#DejaVuSans-67" x="797.080078"/>
     <use xlink:href="#DejaVuSans-69" x="860.556641"/>
     <use xlink:href="#DejaVuSans-6e" x="888.339844"/>
     <use xlink:href="#DejaVuSans-20" x="951.71875"/>
     <use xlink:href="#DejaVuSans-74" x="983.505859"/>
     <use xlink:href="#DejaVuSans-6f" x="1022.714844"/>
     <use xlink:href="#DejaVuSans-20" x="1083.896484"/>
     <use xlink:href="#DejaVuSans-70" x="1115.683594"/>
     <use xlink:href="#DejaVuSans-6f" x="1179.160156"/>
     <use xlink:href="#DejaVuSans-69" x="1240.341797"/>
     <use xlink:href="#DejaVuSans-6e" x="1268.125"/>
     <use xlink:href="#DejaVuSans-74" x="1331.503906"/>
     <use xlink:href="#DejaVuSans-73" x="1370.712891"/>
    </g>
   </g>
  </g>
 </g>
 <defs>
  <clipPath id="p521545625f">
   <rect x="54" y="51.84" width="334.8" height="332.64"/>
  </clipPath>
 </defs>
</svg>
