<?xml version="1.0" encoding="utf-8" standalone="no"?>
<!DOCTYPE svg PUBLIC "-//W3C//DTD SVG 1.1//EN"
  "http://www.w3.org/Graphics/SVG/1.1/DTD/svg11.dtd">
<svg xmlns:xlink="http://www.w3.org/1999/xlink" width="720pt" height="432pt" viewBox="0 0 720 432" xmlns="http://www.w3.org/2000/svg" version="1.1">
 <metadata>
  <rdf:RDF xmlns:dc="http://purl.org/dc/elements/1.1/" xmlns:cc="http://creativecommons.org/ns#" xmlns:rdf="http://www.w3.org/1999/02/22-rdf-syntax-ns#">
   <cc:Work>
    <dc:type rdf:resource="http://purl.org/dc/dcmitype/StillImage"/>
    <dc:date>2024-05-20T12:52:19.210182</dc:date>
    <dc:format>image/svg+xml</dc:format>
    <dc:creator>
     <cc:Agent>
      <dc:title>Matplotlib v3.7.1, https://matplotlib.org/</dc:title>
     </cc:Agent>
    </dc:creator>
   </cc:Work>
  </rdf:RDF>
 </metadata>
 <defs>
  <style type="text/css">*{stroke-linejoin: round; stroke-linecap: butt}</style>
 </defs>
 <g id="figure_1">
  <g id="patch_1">
   <path d="M 0 432 
L 720 432 
L 720 0 
L 0 0 
z
" style="fill: #ffffff"/>
  </g>
  <g id="axes_1">
   <g id="patch_2">
    <path d="M 81.11 369.16 
L 694.08 369.16 
L 694.08 43.44 
L 81.11 43.44 
z
" style="fill: #eaeaf2"/>
   </g>
   <g id="matplotlib.axis_1">
    <g id="xtick_1">
     <g id="line2d_1">
      <path d="M 140.80541 369.16 
L 140.80541 43.44 
" clip-path="url(#p0ef5c6cc8b)" style="fill: none; stroke: #ffffff; stroke-linecap: round"/>
     </g>
     <g id="line2d_2"/>
     <g id="text_1">
      <!-- 1036 -->
      <g style="fill: #262626" transform="translate(127.45916 384.85625) scale(0.12 -0.12)">
       <defs>
        <path id="LiberationSans-31" d="M 488 0 
L 488 478 
L 1609 478 
L 1609 3866 
L 616 3156 
L 616 3688 
L 1656 4403 
L 2175 4403 
L 2175 478 
L 3247 478 
L 3247 0 
L 488 0 
z
" transform="scale(0.015625)"/>
        <path id="LiberationSans-30" d="M 3309 2203 
Q 3309 1100 2920 518 
Q 2531 -63 1772 -63 
Q 1013 -63 631 515 
Q 250 1094 250 2203 
Q 250 3338 620 3903 
Q 991 4469 1791 4469 
Q 2569 4469 2939 3897 
Q 3309 3325 3309 2203 
z
M 2738 2203 
Q 2738 3156 2517 3584 
Q 2297 4013 1791 4013 
Q 1272 4013 1045 3591 
Q 819 3169 819 2203 
Q 819 1266 1048 831 
Q 1278 397 1778 397 
Q 2275 397 2506 840 
Q 2738 1284 2738 2203 
z
" transform="scale(0.015625)"/>
        <path id="LiberationSans-33" d="M 3278 1216 
Q 3278 606 2890 271 
Q 2503 -63 1784 -63 
Q 1116 -63 717 239 
Q 319 541 244 1131 
L 825 1184 
Q 938 403 1784 403 
Q 2209 403 2451 612 
Q 2694 822 2694 1234 
Q 2694 1594 2417 1795 
Q 2141 1997 1619 1997 
L 1300 1997 
L 1300 2484 
L 1606 2484 
Q 2069 2484 2323 2686 
Q 2578 2888 2578 3244 
Q 2578 3597 2370 3801 
Q 2163 4006 1753 4006 
Q 1381 4006 1151 3815 
Q 922 3625 884 3278 
L 319 3322 
Q 381 3863 767 4166 
Q 1153 4469 1759 4469 
Q 2422 4469 2789 4161 
Q 3156 3853 3156 3303 
Q 3156 2881 2920 2617 
Q 2684 2353 2234 2259 
L 2234 2247 
Q 2728 2194 3003 1916 
Q 3278 1638 3278 1216 
z
" transform="scale(0.015625)"/>
        <path id="LiberationSans-36" d="M 3278 1441 
Q 3278 744 2900 340 
Q 2522 -63 1856 -63 
Q 1113 -63 719 490 
Q 325 1044 325 2100 
Q 325 3244 734 3856 
Q 1144 4469 1900 4469 
Q 2897 4469 3156 3572 
L 2619 3475 
Q 2453 4013 1894 4013 
Q 1413 4013 1148 3564 
Q 884 3116 884 2266 
Q 1038 2550 1316 2698 
Q 1594 2847 1953 2847 
Q 2563 2847 2920 2465 
Q 3278 2084 3278 1441 
z
M 2706 1416 
Q 2706 1894 2472 2153 
Q 2238 2413 1819 2413 
Q 1425 2413 1183 2183 
Q 941 1953 941 1550 
Q 941 1041 1192 716 
Q 1444 391 1838 391 
Q 2244 391 2475 664 
Q 2706 938 2706 1416 
z
" transform="scale(0.015625)"/>
       </defs>
       <use xlink:href="#LiberationSans-31"/>
       <use xlink:href="#LiberationSans-30" x="55.615234"/>
       <use xlink:href="#LiberationSans-33" x="111.230469"/>
       <use xlink:href="#LiberationSans-36" x="166.845703"/>
      </g>
     </g>
    </g>
    <g id="xtick_2">
     <g id="line2d_3">
      <path d="M 211.755939 369.16 
L 211.755939 43.44 
" clip-path="url(#p0ef5c6cc8b)" style="fill: none; stroke: #ffffff; stroke-linecap: round"/>
     </g>
     <g id="line2d_4"/>
     <g id="text_2">
      <!-- 1038 -->
      <g style="fill: #262626" transform="translate(198.409689 384.85625) scale(0.12 -0.12)">
       <defs>
        <path id="LiberationSans-38" d="M 3281 1228 
Q 3281 619 2893 278 
Q 2506 -63 1781 -63 
Q 1075 -63 676 271 
Q 278 606 278 1222 
Q 278 1653 525 1947 
Q 772 2241 1156 2303 
L 1156 2316 
Q 797 2400 589 2681 
Q 381 2963 381 3341 
Q 381 3844 757 4156 
Q 1134 4469 1769 4469 
Q 2419 4469 2795 4162 
Q 3172 3856 3172 3334 
Q 3172 2956 2962 2675 
Q 2753 2394 2391 2322 
L 2391 2309 
Q 2813 2241 3047 1952 
Q 3281 1663 3281 1228 
z
M 2588 3303 
Q 2588 4050 1769 4050 
Q 1372 4050 1164 3862 
Q 956 3675 956 3303 
Q 956 2925 1170 2726 
Q 1384 2528 1775 2528 
Q 2172 2528 2380 2711 
Q 2588 2894 2588 3303 
z
M 2697 1281 
Q 2697 1691 2453 1898 
Q 2209 2106 1769 2106 
Q 1341 2106 1100 1882 
Q 859 1659 859 1269 
Q 859 359 1788 359 
Q 2247 359 2472 579 
Q 2697 800 2697 1281 
z
" transform="scale(0.015625)"/>
       </defs>
       <use xlink:href="#LiberationSans-31"/>
       <use xlink:href="#LiberationSans-30" x="55.615234"/>
       <use xlink:href="#LiberationSans-33" x="111.230469"/>
       <use xlink:href="#LiberationSans-38" x="166.845703"/>
      </g>
     </g>
    </g>
    <g id="xtick_3">
     <g id="line2d_5">
      <path d="M 282.706468 369.16 
L 282.706468 43.44 
" clip-path="url(#p0ef5c6cc8b)" style="fill: none; stroke: #ffffff; stroke-linecap: round"/>
     </g>
     <g id="line2d_6"/>
     <g id="text_3">
      <!-- 1040 -->
      <g style="fill: #262626" transform="translate(269.360218 384.85625) scale(0.12 -0.12)">
       <defs>
        <path id="LiberationSans-34" d="M 2753 997 
L 2753 0 
L 2222 0 
L 2222 997 
L 147 997 
L 147 1434 
L 2163 4403 
L 2753 4403 
L 2753 1441 
L 3372 1441 
L 3372 997 
L 2753 997 
z
M 2222 3769 
Q 2216 3750 2134 3603 
Q 2053 3456 2013 3397 
L 884 1734 
L 716 1503 
L 666 1441 
L 2222 1441 
L 2222 3769 
z
" transform="scale(0.015625)"/>
       </defs>
       <use xlink:href="#LiberationSans-31"/>
       <use xlink:href="#LiberationSans-30" x="55.615234"/>
       <use xlink:href="#LiberationSans-34" x="111.230469"/>
       <use xlink:href="#LiberationSans-30" x="166.845703"/>
      </g>
     </g>
    </g>
    <g id="xtick_4">
     <g id="line2d_7">
      <path d="M 353.656997 369.16 
L 353.656997 43.44 
" clip-path="url(#p0ef5c6cc8b)" style="fill: none; stroke: #ffffff; stroke-linecap: round"/>
     </g>
     <g id="line2d_8"/>
     <g id="text_4">
      <!-- 1042 -->
      <g style="fill: #262626" transform="translate(340.310747 384.85625) scale(0.12 -0.12)">
       <defs>
        <path id="LiberationSans-32" d="M 322 0 
L 322 397 
Q 481 763 711 1042 
Q 941 1322 1194 1548 
Q 1447 1775 1695 1969 
Q 1944 2163 2144 2356 
Q 2344 2550 2467 2762 
Q 2591 2975 2591 3244 
Q 2591 3606 2378 3806 
Q 2166 4006 1788 4006 
Q 1428 4006 1195 3811 
Q 963 3616 922 3263 
L 347 3316 
Q 409 3844 795 4156 
Q 1181 4469 1788 4469 
Q 2453 4469 2811 4155 
Q 3169 3841 3169 3263 
Q 3169 3006 3051 2753 
Q 2934 2500 2703 2247 
Q 2472 1994 1819 1463 
Q 1459 1169 1246 933 
Q 1034 697 941 478 
L 3238 478 
L 3238 0 
L 322 0 
z
" transform="scale(0.015625)"/>
       </defs>
       <use xlink:href="#LiberationSans-31"/>
       <use xlink:href="#LiberationSans-30" x="55.615234"/>
       <use xlink:href="#LiberationSans-34" x="111.230469"/>
       <use xlink:href="#LiberationSans-32" x="166.845703"/>
      </g>
     </g>
    </g>
    <g id="xtick_5">
     <g id="line2d_9">
      <path d="M 424.607526 369.16 
L 424.607526 43.44 
" clip-path="url(#p0ef5c6cc8b)" style="fill: none; stroke: #ffffff; stroke-linecap: round"/>
     </g>
     <g id="line2d_10"/>
     <g id="text_5">
      <!-- 1044 -->
      <g style="fill: #262626" transform="translate(411.261276 384.85625) scale(0.12 -0.12)">
       <use xlink:href="#LiberationSans-31"/>
       <use xlink:href="#LiberationSans-30" x="55.615234"/>
       <use xlink:href="#LiberationSans-34" x="111.230469"/>
       <use xlink:href="#LiberationSans-34" x="166.845703"/>
      </g>
     </g>
    </g>
    <g id="xtick_6">
     <g id="line2d_11">
      <path d="M 495.558055 369.16 
L 495.558055 43.44 
" clip-path="url(#p0ef5c6cc8b)" style="fill: none; stroke: #ffffff; stroke-linecap: round"/>
     </g>
     <g id="line2d_12"/>
     <g id="text_6">
      <!-- 1046 -->
      <g style="fill: #262626" transform="translate(482.211805 384.85625) scale(0.12 -0.12)">
       <use xlink:href="#LiberationSans-31"/>
       <use xlink:href="#LiberationSans-30" x="55.615234"/>
       <use xlink:href="#LiberationSans-34" x="111.230469"/>
       <use xlink:href="#LiberationSans-36" x="166.845703"/>
      </g>
     </g>
    </g>
    <g id="xtick_7">
     <g id="line2d_13">
      <path d="M 566.508584 369.16 
L 566.508584 43.44 
" clip-path="url(#p0ef5c6cc8b)" style="fill: none; stroke: #ffffff; stroke-linecap: round"/>
     </g>
     <g id="line2d_14"/>
     <g id="text_7">
      <!-- 1048 -->
      <g style="fill: #262626" transform="translate(553.162334 384.85625) scale(0.12 -0.12)">
       <use xlink:href="#LiberationSans-31"/>
       <use xlink:href="#LiberationSans-30" x="55.615234"/>
       <use xlink:href="#LiberationSans-34" x="111.230469"/>
       <use xlink:href="#LiberationSans-38" x="166.845703"/>
      </g>
     </g>
    </g>
    <g id="xtick_8">
     <g id="line2d_15">
      <path d="M 637.459113 369.16 
L 637.459113 43.44 
" clip-path="url(#p0ef5c6cc8b)" style="fill: none; stroke: #ffffff; stroke-linecap: round"/>
     </g>
     <g id="line2d_16"/>
     <g id="text_8">
      <!-- 1050 -->
      <g style="fill: #262626" transform="translate(624.112863 384.85625) scale(0.12 -0.12)">
       <defs>
        <path id="LiberationSans-35" d="M 3291 1434 
Q 3291 738 2877 337 
Q 2463 -63 1728 -63 
Q 1113 -63 734 206 
Q 356 475 256 984 
L 825 1050 
Q 1003 397 1741 397 
Q 2194 397 2450 670 
Q 2706 944 2706 1422 
Q 2706 1838 2448 2094 
Q 2191 2350 1753 2350 
Q 1525 2350 1328 2278 
Q 1131 2206 934 2034 
L 384 2034 
L 531 4403 
L 3034 4403 
L 3034 3925 
L 1044 3925 
L 959 2528 
Q 1325 2809 1869 2809 
Q 2519 2809 2905 2428 
Q 3291 2047 3291 1434 
z
" transform="scale(0.015625)"/>
       </defs>
       <use xlink:href="#LiberationSans-31"/>
       <use xlink:href="#LiberationSans-30" x="55.615234"/>
       <use xlink:href="#LiberationSans-35" x="111.230469"/>
       <use xlink:href="#LiberationSans-30" x="166.845703"/>
      </g>
     </g>
    </g>
    <g id="text_9">
     <!-- Average Rewards -->
     <g style="fill: #262626" transform="translate(324.1525 402.94125) scale(0.16 -0.16)">
      <defs>
       <path id="LiberationSans-41" d="M 3647 0 
L 3144 1288 
L 1138 1288 
L 631 0 
L 13 0 
L 1809 4403 
L 2488 4403 
L 4256 0 
L 3647 0 
z
M 2141 3953 
L 2113 3866 
Q 2034 3606 1881 3200 
L 1319 1753 
L 2966 1753 
L 2400 3206 
Q 2313 3422 2225 3694 
L 2141 3953 
z
" transform="scale(0.015625)"/>
       <path id="LiberationSans-76" d="M 1916 0 
L 1250 0 
L 22 3381 
L 622 3381 
L 1366 1181 
Q 1406 1056 1581 441 
L 1691 806 
L 1813 1175 
L 2581 3381 
L 3178 3381 
L 1916 0 
z
" transform="scale(0.015625)"/>
       <path id="LiberationSans-65" d="M 863 1572 
Q 863 991 1103 675 
Q 1344 359 1806 359 
Q 2172 359 2392 506 
Q 2613 653 2691 878 
L 3184 738 
Q 2881 -63 1806 -63 
Q 1056 -63 664 384 
Q 272 831 272 1713 
Q 272 2550 664 2997 
Q 1056 3444 1784 3444 
Q 3275 3444 3275 1647 
L 3275 1572 
L 863 1572 
z
M 2694 2003 
Q 2647 2538 2422 2783 
Q 2197 3028 1775 3028 
Q 1366 3028 1127 2754 
Q 888 2481 869 2003 
L 2694 2003 
z
" transform="scale(0.015625)"/>
       <path id="LiberationSans-72" d="M 444 0 
L 444 2594 
Q 444 2950 425 3381 
L 956 3381 
Q 981 2806 981 2691 
L 994 2691 
Q 1128 3125 1303 3284 
Q 1478 3444 1797 3444 
Q 1909 3444 2025 3413 
L 2025 2897 
Q 1913 2928 1725 2928 
Q 1375 2928 1190 2626 
Q 1006 2325 1006 1763 
L 1006 0 
L 444 0 
z
" transform="scale(0.015625)"/>
       <path id="LiberationSans-61" d="M 1294 -63 
Q 784 -63 528 206 
Q 272 475 272 944 
Q 272 1469 617 1750 
Q 963 2031 1731 2050 
L 2491 2063 
L 2491 2247 
Q 2491 2659 2316 2837 
Q 2141 3016 1766 3016 
Q 1388 3016 1216 2887 
Q 1044 2759 1009 2478 
L 422 2531 
Q 566 3444 1778 3444 
Q 2416 3444 2737 3151 
Q 3059 2859 3059 2306 
L 3059 850 
Q 3059 600 3125 473 
Q 3191 347 3375 347 
Q 3456 347 3559 369 
L 3559 19 
Q 3347 -31 3125 -31 
Q 2813 -31 2670 133 
Q 2528 297 2509 647 
L 2491 647 
Q 2275 259 1989 98 
Q 1703 -63 1294 -63 
z
M 1422 359 
Q 1731 359 1972 500 
Q 2213 641 2352 886 
Q 2491 1131 2491 1391 
L 2491 1669 
L 1875 1656 
Q 1478 1650 1273 1575 
Q 1069 1500 959 1344 
Q 850 1188 850 934 
Q 850 659 998 509 
Q 1147 359 1422 359 
z
" transform="scale(0.015625)"/>
       <path id="LiberationSans-67" d="M 1713 -1328 
Q 1159 -1328 831 -1111 
Q 503 -894 409 -494 
L 975 -413 
Q 1031 -647 1223 -773 
Q 1416 -900 1728 -900 
Q 2569 -900 2569 84 
L 2569 628 
L 2563 628 
Q 2403 303 2125 139 
Q 1847 -25 1475 -25 
Q 853 -25 561 387 
Q 269 800 269 1684 
Q 269 2581 583 3007 
Q 897 3434 1538 3434 
Q 1897 3434 2161 3270 
Q 2425 3106 2569 2803 
L 2575 2803 
Q 2575 2897 2587 3128 
Q 2600 3359 2613 3381 
L 3147 3381 
Q 3128 3213 3128 2681 
L 3128 97 
Q 3128 -1328 1713 -1328 
z
M 2569 1691 
Q 2569 2103 2456 2401 
Q 2344 2700 2139 2858 
Q 1934 3016 1675 3016 
Q 1244 3016 1047 2703 
Q 850 2391 850 1691 
Q 850 997 1034 694 
Q 1219 391 1666 391 
Q 1931 391 2137 547 
Q 2344 703 2456 995 
Q 2569 1288 2569 1691 
z
" transform="scale(0.015625)"/>
       <path id="LiberationSans-20" transform="scale(0.015625)"/>
       <path id="LiberationSans-52" d="M 3638 0 
L 2494 1828 
L 1122 1828 
L 1122 0 
L 525 0 
L 525 4403 
L 2597 4403 
Q 3341 4403 3745 4070 
Q 4150 3738 4150 3144 
Q 4150 2653 3864 2318 
Q 3578 1984 3075 1897 
L 4325 0 
L 3638 0 
z
M 3550 3138 
Q 3550 3522 3289 3723 
Q 3028 3925 2538 3925 
L 1122 3925 
L 1122 2300 
L 2563 2300 
Q 3034 2300 3292 2520 
Q 3550 2741 3550 3138 
z
" transform="scale(0.015625)"/>
       <path id="LiberationSans-77" d="M 3669 0 
L 3016 0 
L 2425 2391 
L 2313 2919 
Q 2284 2778 2225 2514 
Q 2166 2250 1588 0 
L 938 0 
L -9 3381 
L 547 3381 
L 1119 1084 
Q 1141 1009 1253 466 
L 1306 697 
L 2013 3381 
L 2616 3381 
L 3206 1059 
L 3350 466 
L 3447 900 
L 4088 3381 
L 4638 3381 
L 3669 0 
z
" transform="scale(0.015625)"/>
       <path id="LiberationSans-64" d="M 2566 544 
Q 2409 219 2151 78 
Q 1894 -63 1513 -63 
Q 872 -63 570 368 
Q 269 800 269 1675 
Q 269 3444 1513 3444 
Q 1897 3444 2153 3303 
Q 2409 3163 2566 2856 
L 2572 2856 
L 2566 3234 
L 2566 4638 
L 3128 4638 
L 3128 697 
Q 3128 169 3147 0 
L 2609 0 
Q 2600 50 2589 231 
Q 2578 413 2578 544 
L 2566 544 
z
M 859 1694 
Q 859 984 1046 678 
Q 1234 372 1656 372 
Q 2134 372 2350 703 
Q 2566 1034 2566 1731 
Q 2566 2403 2350 2715 
Q 2134 3028 1663 3028 
Q 1238 3028 1048 2714 
Q 859 2400 859 1694 
z
" transform="scale(0.015625)"/>
       <path id="LiberationSans-73" d="M 2969 934 
Q 2969 456 2608 196 
Q 2247 -63 1597 -63 
Q 966 -63 623 145 
Q 281 353 178 794 
L 675 891 
Q 747 619 972 492 
Q 1197 366 1597 366 
Q 2025 366 2223 497 
Q 2422 628 2422 891 
Q 2422 1091 2284 1216 
Q 2147 1341 1841 1422 
L 1438 1528 
Q 953 1653 748 1773 
Q 544 1894 428 2066 
Q 313 2238 313 2488 
Q 313 2950 642 3192 
Q 972 3434 1603 3434 
Q 2163 3434 2492 3237 
Q 2822 3041 2909 2606 
L 2403 2544 
Q 2356 2769 2151 2889 
Q 1947 3009 1603 3009 
Q 1222 3009 1040 2893 
Q 859 2778 859 2544 
Q 859 2400 934 2306 
Q 1009 2213 1156 2147 
Q 1303 2081 1775 1966 
Q 2222 1853 2419 1758 
Q 2616 1663 2730 1547 
Q 2844 1431 2906 1279 
Q 2969 1128 2969 934 
z
" transform="scale(0.015625)"/>
      </defs>
      <use xlink:href="#LiberationSans-41"/>
      <use xlink:href="#LiberationSans-76" x="64.949219"/>
      <use xlink:href="#LiberationSans-65" x="114.949219"/>
      <use xlink:href="#LiberationSans-72" x="170.564453"/>
      <use xlink:href="#LiberationSans-61" x="203.865234"/>
      <use xlink:href="#LiberationSans-67" x="259.480469"/>
      <use xlink:href="#LiberationSans-65" x="315.095703"/>
      <use xlink:href="#LiberationSans-20" x="370.710938"/>
      <use xlink:href="#LiberationSans-52" x="398.494141"/>
      <use xlink:href="#LiberationSans-65" x="470.710938"/>
      <use xlink:href="#LiberationSans-77" x="526.326172"/>
      <use xlink:href="#LiberationSans-61" x="598.542969"/>
      <use xlink:href="#LiberationSans-72" x="654.158203"/>
      <use xlink:href="#LiberationSans-64" x="687.458984"/>
      <use xlink:href="#LiberationSans-73" x="743.074219"/>
     </g>
    </g>
   </g>
   <g id="matplotlib.axis_2">
    <g id="ytick_1">
     <g id="line2d_17">
      <path d="M 81.11 360.397588 
L 694.08 360.397588 
" clip-path="url(#p0ef5c6cc8b)" style="fill: none; stroke: #ffffff; stroke-linecap: round"/>
     </g>
     <g id="line2d_18"/>
     <g id="text_10">
      <!-- 11.34 -->
      <g style="fill: #262626" transform="translate(44.96875 364.745713) scale(0.12 -0.12)">
       <defs>
        <path id="LiberationSans-2e" d="M 584 0 
L 584 684 
L 1194 684 
L 1194 0 
L 584 0 
z
" transform="scale(0.015625)"/>
       </defs>
       <use xlink:href="#LiberationSans-31"/>
       <use xlink:href="#LiberationSans-31" x="48.240234"/>
       <use xlink:href="#LiberationSans-2e" x="103.855469"/>
       <use xlink:href="#LiberationSans-33" x="131.638672"/>
       <use xlink:href="#LiberationSans-34" x="187.253906"/>
      </g>
     </g>
    </g>
    <g id="ytick_2">
     <g id="line2d_19">
      <path d="M 81.11 324.139332 
L 694.08 324.139332 
" clip-path="url(#p0ef5c6cc8b)" style="fill: none; stroke: #ffffff; stroke-linecap: round"/>
     </g>
     <g id="line2d_20"/>
     <g id="text_11">
      <!-- 11.36 -->
      <g style="fill: #262626" transform="translate(44.96875 328.487457) scale(0.12 -0.12)">
       <use xlink:href="#LiberationSans-31"/>
       <use xlink:href="#LiberationSans-31" x="48.240234"/>
       <use xlink:href="#LiberationSans-2e" x="103.855469"/>
       <use xlink:href="#LiberationSans-33" x="131.638672"/>
       <use xlink:href="#LiberationSans-36" x="187.253906"/>
      </g>
     </g>
    </g>
    <g id="ytick_3">
     <g id="line2d_21">
      <path d="M 81.11 287.881076 
L 694.08 287.881076 
" clip-path="url(#p0ef5c6cc8b)" style="fill: none; stroke: #ffffff; stroke-linecap: round"/>
     </g>
     <g id="line2d_22"/>
     <g id="text_12">
      <!-- 11.38 -->
      <g style="fill: #262626" transform="translate(44.96875 292.229201) scale(0.12 -0.12)">
       <use xlink:href="#LiberationSans-31"/>
       <use xlink:href="#LiberationSans-31" x="48.240234"/>
       <use xlink:href="#LiberationSans-2e" x="103.855469"/>
       <use xlink:href="#LiberationSans-33" x="131.638672"/>
       <use xlink:href="#LiberationSans-38" x="187.253906"/>
      </g>
     </g>
    </g>
    <g id="ytick_4">
     <g id="line2d_23">
      <path d="M 81.11 251.62282 
L 694.08 251.62282 
" clip-path="url(#p0ef5c6cc8b)" style="fill: none; stroke: #ffffff; stroke-linecap: round"/>
     </g>
     <g id="line2d_24"/>
     <g id="text_13">
      <!-- 11.40 -->
      <g style="fill: #262626" transform="translate(44.96875 255.970945) scale(0.12 -0.12)">
       <use xlink:href="#LiberationSans-31"/>
       <use xlink:href="#LiberationSans-31" x="48.240234"/>
       <use xlink:href="#LiberationSans-2e" x="103.855469"/>
       <use xlink:href="#LiberationSans-34" x="131.638672"/>
       <use xlink:href="#LiberationSans-30" x="187.253906"/>
      </g>
     </g>
    </g>
    <g id="ytick_5">
     <g id="line2d_25">
      <path d="M 81.11 215.364564 
L 694.08 215.364564 
" clip-path="url(#p0ef5c6cc8b)" style="fill: none; stroke: #ffffff; stroke-linecap: round"/>
     </g>
     <g id="line2d_26"/>
     <g id="text_14">
      <!-- 11.42 -->
      <g style="fill: #262626" transform="translate(44.96875 219.712689) scale(0.12 -0.12)">
       <use xlink:href="#LiberationSans-31"/>
       <use xlink:href="#LiberationSans-31" x="48.240234"/>
       <use xlink:href="#LiberationSans-2e" x="103.855469"/>
       <use xlink:href="#LiberationSans-34" x="131.638672"/>
       <use xlink:href="#LiberationSans-32" x="187.253906"/>
      </g>
     </g>
    </g>
    <g id="ytick_6">
     <g id="line2d_27">
      <path d="M 81.11 179.106308 
L 694.08 179.106308 
" clip-path="url(#p0ef5c6cc8b)" style="fill: none; stroke: #ffffff; stroke-linecap: round"/>
     </g>
     <g id="line2d_28"/>
     <g id="text_15">
      <!-- 11.44 -->
      <g style="fill: #262626" transform="translate(44.96875 183.454433) scale(0.12 -0.12)">
       <use xlink:href="#LiberationSans-31"/>
       <use xlink:href="#LiberationSans-31" x="48.240234"/>
       <use xlink:href="#LiberationSans-2e" x="103.855469"/>
       <use xlink:href="#LiberationSans-34" x="131.638672"/>
       <use xlink:href="#LiberationSans-34" x="187.253906"/>
      </g>
     </g>
    </g>
    <g id="ytick_7">
     <g id="line2d_29">
      <path d="M 81.11 142.848052 
L 694.08 142.848052 
" clip-path="url(#p0ef5c6cc8b)" style="fill: none; stroke: #ffffff; stroke-linecap: round"/>
     </g>
     <g id="line2d_30"/>
     <g id="text_16">
      <!-- 11.46 -->
      <g style="fill: #262626" transform="translate(44.96875 147.196177) scale(0.12 -0.12)">
       <use xlink:href="#LiberationSans-31"/>
       <use xlink:href="#LiberationSans-31" x="48.240234"/>
       <use xlink:href="#LiberationSans-2e" x="103.855469"/>
       <use xlink:href="#LiberationSans-34" x="131.638672"/>
       <use xlink:href="#LiberationSans-36" x="187.253906"/>
      </g>
     </g>
    </g>
    <g id="ytick_8">
     <g id="line2d_31">
      <path d="M 81.11 106.589796 
L 694.08 106.589796 
" clip-path="url(#p0ef5c6cc8b)" style="fill: none; stroke: #ffffff; stroke-linecap: round"/>
     </g>
     <g id="line2d_32"/>
     <g id="text_17">
      <!-- 11.48 -->
      <g style="fill: #262626" transform="translate(44.96875 110.937921) scale(0.12 -0.12)">
       <use xlink:href="#LiberationSans-31"/>
       <use xlink:href="#LiberationSans-31" x="48.240234"/>
       <use xlink:href="#LiberationSans-2e" x="103.855469"/>
       <use xlink:href="#LiberationSans-34" x="131.638672"/>
       <use xlink:href="#LiberationSans-38" x="187.253906"/>
      </g>
     </g>
    </g>
    <g id="ytick_9">
     <g id="line2d_33">
      <path d="M 81.11 70.33154 
L 694.08 70.33154 
" clip-path="url(#p0ef5c6cc8b)" style="fill: none; stroke: #ffffff; stroke-linecap: round"/>
     </g>
     <g id="line2d_34"/>
     <g id="text_18">
      <!-- 11.50 -->
      <g style="fill: #262626" transform="translate(44.96875 74.679665) scale(0.12 -0.12)">
       <use xlink:href="#LiberationSans-31"/>
       <use xlink:href="#LiberationSans-31" x="48.240234"/>
       <use xlink:href="#LiberationSans-2e" x="103.855469"/>
       <use xlink:href="#LiberationSans-35" x="131.638672"/>
       <use xlink:href="#LiberationSans-30" x="187.253906"/>
      </g>
     </g>
    </g>
    <g id="text_19">
     <!-- Average Lap Time (s) -->
     <g style="fill: #262626" transform="translate(37.64875 282.6325) rotate(-90) scale(0.16 -0.16)">
      <defs>
       <path id="LiberationSans-4c" d="M 525 0 
L 525 4403 
L 1122 4403 
L 1122 488 
L 3347 488 
L 3347 0 
L 525 0 
z
" transform="scale(0.015625)"/>
       <path id="LiberationSans-70" d="M 3291 1706 
Q 3291 -63 2047 -63 
Q 1266 -63 997 525 
L 981 525 
Q 994 500 994 -6 
L 994 -1328 
L 431 -1328 
L 431 2691 
Q 431 3213 413 3381 
L 956 3381 
Q 959 3369 965 3292 
Q 972 3216 980 3056 
Q 988 2897 988 2838 
L 1000 2838 
Q 1150 3150 1397 3295 
Q 1644 3441 2047 3441 
Q 2672 3441 2981 3022 
Q 3291 2603 3291 1706 
z
M 2700 1694 
Q 2700 2400 2509 2703 
Q 2319 3006 1903 3006 
Q 1569 3006 1380 2865 
Q 1191 2725 1092 2426 
Q 994 2128 994 1650 
Q 994 984 1206 668 
Q 1419 353 1897 353 
Q 2316 353 2508 661 
Q 2700 969 2700 1694 
z
" transform="scale(0.015625)"/>
       <path id="LiberationSans-54" d="M 2250 3916 
L 2250 0 
L 1656 0 
L 1656 3916 
L 144 3916 
L 144 4403 
L 3763 4403 
L 3763 3916 
L 2250 3916 
z
" transform="scale(0.015625)"/>
       <path id="LiberationSans-69" d="M 428 4100 
L 428 4638 
L 991 4638 
L 991 4100 
L 428 4100 
z
M 428 0 
L 428 3381 
L 991 3381 
L 991 0 
L 428 0 
z
" transform="scale(0.015625)"/>
       <path id="LiberationSans-6d" d="M 2400 0 
L 2400 2144 
Q 2400 2634 2265 2821 
Q 2131 3009 1781 3009 
Q 1422 3009 1212 2734 
Q 1003 2459 1003 1959 
L 1003 0 
L 444 0 
L 444 2659 
Q 444 3250 425 3381 
L 956 3381 
Q 959 3366 962 3297 
Q 966 3228 970 3139 
Q 975 3050 981 2803 
L 991 2803 
Q 1172 3163 1406 3303 
Q 1641 3444 1978 3444 
Q 2363 3444 2586 3291 
Q 2809 3138 2897 2803 
L 2906 2803 
Q 3081 3144 3329 3294 
Q 3578 3444 3931 3444 
Q 4444 3444 4676 3166 
Q 4909 2888 4909 2253 
L 4909 0 
L 4353 0 
L 4353 2144 
Q 4353 2634 4218 2821 
Q 4084 3009 3734 3009 
Q 3366 3009 3161 2736 
Q 2956 2463 2956 1959 
L 2956 0 
L 2400 0 
z
" transform="scale(0.015625)"/>
       <path id="LiberationSans-28" d="M 397 1663 
Q 397 2566 680 3284 
Q 963 4003 1550 4638 
L 2094 4638 
Q 1509 3988 1236 3256 
Q 963 2525 963 1656 
Q 963 791 1233 62 
Q 1503 -666 2094 -1325 
L 1550 -1325 
Q 959 -688 678 32 
Q 397 753 397 1650 
L 397 1663 
z
" transform="scale(0.015625)"/>
       <path id="LiberationSans-29" d="M 1734 1650 
Q 1734 747 1451 28 
Q 1169 -691 581 -1325 
L 38 -1325 
Q 625 -669 897 57 
Q 1169 784 1169 1656 
Q 1169 2528 895 3256 
Q 622 3984 38 4638 
L 581 4638 
Q 1172 4000 1453 3279 
Q 1734 2559 1734 1663 
L 1734 1650 
z
" transform="scale(0.015625)"/>
      </defs>
      <use xlink:href="#LiberationSans-41"/>
      <use xlink:href="#LiberationSans-76" x="64.949219"/>
      <use xlink:href="#LiberationSans-65" x="114.949219"/>
      <use xlink:href="#LiberationSans-72" x="170.564453"/>
      <use xlink:href="#LiberationSans-61" x="203.865234"/>
      <use xlink:href="#LiberationSans-67" x="259.480469"/>
      <use xlink:href="#LiberationSans-65" x="315.095703"/>
      <use xlink:href="#LiberationSans-20" x="370.710938"/>
      <use xlink:href="#LiberationSans-4c" x="398.494141"/>
      <use xlink:href="#LiberationSans-61" x="454.109375"/>
      <use xlink:href="#LiberationSans-70" x="509.724609"/>
      <use xlink:href="#LiberationSans-20" x="565.339844"/>
      <use xlink:href="#LiberationSans-54" x="591.373047"/>
      <use xlink:href="#LiberationSans-69" x="648.707031"/>
      <use xlink:href="#LiberationSans-6d" x="670.923828"/>
      <use xlink:href="#LiberationSans-65" x="754.224609"/>
      <use xlink:href="#LiberationSans-20" x="809.839844"/>
      <use xlink:href="#LiberationSans-28" x="837.623047"/>
      <use xlink:href="#LiberationSans-73" x="870.923828"/>
      <use xlink:href="#LiberationSans-29" x="920.923828"/>
     </g>
    </g>
   </g>
   <g id="PathCollection_1">
    <defs>
     <path id="m3c7398db4f" d="M 0 5 
C 1.326016 5 2.597899 4.473168 3.535534 3.535534 
C 4.473168 2.597899 5 1.326016 5 0 
C 5 -1.326016 4.473168 -2.597899 3.535534 -3.535534 
C 2.597899 -4.473168 1.326016 -5 0 -5 
C -1.326016 -5 -2.597899 -4.473168 -3.535534 -3.535534 
C -4.473168 -2.597899 -5 -1.326016 -5 0 
C -5 1.326016 -4.473168 2.597899 -3.535534 3.535534 
C -2.597899 4.473168 -1.326016 5 0 5 
z
" style="stroke: #e41a1c; stroke-width: 0.3"/>
    </defs>
    <g clip-path="url(#p0ef5c6cc8b)">
     <use xlink:href="#m3c7398db4f" x="666.217727" y="354.354545" style="fill: #e41a1c; stroke: #e41a1c; stroke-width: 0.3"/>
    </g>
   </g>
   <g id="PathCollection_2">
    <defs>
     <path id="m9f1a071e04" d="M 0 5 
C 1.326016 5 2.597899 4.473168 3.535534 3.535534 
C 4.473168 2.597899 5 1.326016 5 0 
C 5 -1.326016 4.473168 -2.597899 3.535534 -3.535534 
C 2.597899 -4.473168 1.326016 -5 0 -5 
C -1.326016 -5 -2.597899 -4.473168 -3.535534 -3.535534 
C -4.473168 -2.597899 -5 -1.326016 -5 0 
C -5 1.326016 -4.473168 2.597899 -3.535534 3.535534 
C -2.597899 4.473168 -1.326016 5 0 5 
z
" style="stroke: #4daf4a; stroke-width: 0.3"/>
    </defs>
    <g clip-path="url(#p0ef5c6cc8b)">
     <use xlink:href="#m9f1a071e04" x="108.972273" y="245.579777" style="fill: #4daf4a; stroke: #4daf4a; stroke-width: 0.3"/>
    </g>
   </g>
   <g id="PathCollection_3">
    <defs>
     <path id="m0a24483a97" d="M 0 5 
C 1.326016 5 2.597899 4.473168 3.535534 3.535534 
C 4.473168 2.597899 5 1.326016 5 0 
C 5 -1.326016 4.473168 -2.597899 3.535534 -3.535534 
C 2.597899 -4.473168 1.326016 -5 0 -5 
C -1.326016 -5 -2.597899 -4.473168 -3.535534 -3.535534 
C -4.473168 -2.597899 -5 -1.326016 -5 0 
C -5 1.326016 -4.473168 2.597899 -3.535534 3.535534 
C -2.597899 4.473168 -1.326016 5 0 5 
z
" style="stroke: #377eb8; stroke-width: 0.3"/>
    </defs>
    <g clip-path="url(#p0ef5c6cc8b)">
     <use xlink:href="#m0a24483a97" x="466.870391" y="58.245455" style="fill: #377eb8; stroke: #377eb8; stroke-width: 0.3"/>
    </g>
   </g>
   <g id="line2d_35">
    <path d="M 666.217727 247.123069 
L 108.972273 185.852419 
L 466.870391 225.204289 
" clip-path="url(#p0ef5c6cc8b)" style="fill: none; stroke-dasharray: 7.4,3.2; stroke-dashoffset: 0; stroke: #808080; stroke-width: 2"/>
   </g>
   <g id="patch_3">
    <path d="M 81.11 369.16 
L 81.11 43.44 
" style="fill: none"/>
   </g>
   <g id="patch_4">
    <path d="M 694.08 369.16 
L 694.08 43.44 
" style="fill: none"/>
   </g>
   <g id="patch_5">
    <path d="M 81.11 369.16 
L 694.08 369.16 
" style="fill: none"/>
   </g>
   <g id="patch_6">
    <path d="M 81.11 43.44 
L 694.08 43.44 
" style="fill: none"/>
   </g>
   <g id="text_20">
    <g id="patch_7">
     <path d="M 111.7585 89.83775 
L 174.13975 89.83775 
Q 180.13975 89.83775 180.13975 83.83775 
L 180.13975 59.726 
Q 180.13975 53.726 174.13975 53.726 
L 111.7585 53.726 
Q 105.7585 53.726 105.7585 59.726 
L 105.7585 83.83775 
Q 105.7585 89.83775 111.7585 89.83775 
z
" style="fill: #4c72b0; opacity: 0.1; stroke: #000000; stroke-width: 0.3; stroke-linejoin: miter"/>
    </g>
    <!-- R=-0.21 -->
    <g style="fill: #262626" transform="translate(111.7585 68.42225) scale(0.12 -0.12)">
     <defs>
      <path id="LiberationSans-3d" d="M 313 2675 
L 313 3138 
L 3422 3138 
L 3422 2675 
L 313 2675 
z
M 313 1075 
L 313 1538 
L 3422 1538 
L 3422 1075 
L 313 1075 
z
" transform="scale(0.015625)"/>
      <path id="LiberationSans-2d" d="M 284 1450 
L 284 1950 
L 1847 1950 
L 1847 1450 
L 284 1450 
z
" transform="scale(0.015625)"/>
     </defs>
     <use xlink:href="#LiberationSans-52"/>
     <use xlink:href="#LiberationSans-3d" x="72.216797"/>
     <use xlink:href="#LiberationSans-2d" x="130.615234"/>
     <use xlink:href="#LiberationSans-30" x="163.916016"/>
     <use xlink:href="#LiberationSans-2e" x="219.53125"/>
     <use xlink:href="#LiberationSans-32" x="247.314453"/>
     <use xlink:href="#LiberationSans-31" x="302.929688"/>
    </g>
    <!-- P=8.67e-01 -->
    <g style="fill: #262626" transform="translate(111.7585 81.34775) scale(0.12 -0.12)">
     <defs>
      <path id="LiberationSans-50" d="M 3931 3078 
Q 3931 2453 3523 2084 
Q 3116 1716 2416 1716 
L 1122 1716 
L 1122 0 
L 525 0 
L 525 4403 
L 2378 4403 
Q 3119 4403 3525 4056 
Q 3931 3709 3931 3078 
z
M 3331 3072 
Q 3331 3925 2306 3925 
L 1122 3925 
L 1122 2188 
L 2331 2188 
Q 3331 2188 3331 3072 
z
" transform="scale(0.015625)"/>
      <path id="LiberationSans-37" d="M 3238 3947 
Q 2563 2916 2284 2331 
Q 2006 1747 1867 1178 
Q 1728 609 1728 0 
L 1141 0 
Q 1141 844 1498 1776 
Q 1856 2709 2694 3925 
L 328 3925 
L 328 4403 
L 3238 4403 
L 3238 3947 
z
" transform="scale(0.015625)"/>
     </defs>
     <use xlink:href="#LiberationSans-50"/>
     <use xlink:href="#LiberationSans-3d" x="66.699219"/>
     <use xlink:href="#LiberationSans-38" x="125.097656"/>
     <use xlink:href="#LiberationSans-2e" x="180.712891"/>
     <use xlink:href="#LiberationSans-36" x="208.496094"/>
     <use xlink:href="#LiberationSans-37" x="264.111328"/>
     <use xlink:href="#LiberationSans-65" x="319.726562"/>
     <use xlink:href="#LiberationSans-2d" x="375.341797"/>
     <use xlink:href="#LiberationSans-30" x="408.642578"/>
     <use xlink:href="#LiberationSans-31" x="464.257812"/>
    </g>
   </g>
   <g id="text_21">
    <!-- Correlation Between Average Rewards and Average Lap Times Across Models -->
    <g style="fill: #262626" transform="translate(109.515 37.44) scale(0.16 -0.16)">
     <defs>
      <path id="LiberationSans-43" d="M 2475 3981 
Q 1744 3981 1337 3511 
Q 931 3041 931 2222 
Q 931 1413 1354 920 
Q 1778 428 2500 428 
Q 3425 428 3891 1344 
L 4378 1100 
Q 4106 531 3614 234 
Q 3122 -63 2472 -63 
Q 1806 -63 1320 214 
Q 834 491 579 1005 
Q 325 1519 325 2222 
Q 325 3275 894 3872 
Q 1463 4469 2469 4469 
Q 3172 4469 3644 4194 
Q 4116 3919 4338 3378 
L 3772 3191 
Q 3619 3575 3280 3778 
Q 2941 3981 2475 3981 
z
" transform="scale(0.015625)"/>
      <path id="LiberationSans-6f" d="M 3291 1694 
Q 3291 806 2900 371 
Q 2509 -63 1766 -63 
Q 1025 -63 647 389 
Q 269 841 269 1694 
Q 269 3444 1784 3444 
Q 2559 3444 2925 3017 
Q 3291 2591 3291 1694 
z
M 2700 1694 
Q 2700 2394 2492 2711 
Q 2284 3028 1794 3028 
Q 1300 3028 1079 2704 
Q 859 2381 859 1694 
Q 859 1025 1076 689 
Q 1294 353 1759 353 
Q 2266 353 2483 678 
Q 2700 1003 2700 1694 
z
" transform="scale(0.015625)"/>
      <path id="LiberationSans-6c" d="M 431 0 
L 431 4638 
L 994 4638 
L 994 0 
L 431 0 
z
" transform="scale(0.015625)"/>
      <path id="LiberationSans-74" d="M 1731 25 
Q 1453 -50 1163 -50 
Q 488 -50 488 716 
L 488 2972 
L 97 2972 
L 97 3381 
L 509 3381 
L 675 4138 
L 1050 4138 
L 1050 3381 
L 1675 3381 
L 1675 2972 
L 1050 2972 
L 1050 838 
Q 1050 594 1129 495 
Q 1209 397 1406 397 
Q 1519 397 1731 441 
L 1731 25 
z
" transform="scale(0.015625)"/>
      <path id="LiberationSans-6e" d="M 2578 0 
L 2578 2144 
Q 2578 2478 2512 2662 
Q 2447 2847 2303 2928 
Q 2159 3009 1881 3009 
Q 1475 3009 1240 2731 
Q 1006 2453 1006 1959 
L 1006 0 
L 444 0 
L 444 2659 
Q 444 3250 425 3381 
L 956 3381 
Q 959 3366 962 3297 
Q 966 3228 970 3139 
Q 975 3050 981 2803 
L 991 2803 
Q 1184 3153 1439 3298 
Q 1694 3444 2072 3444 
Q 2628 3444 2886 3167 
Q 3144 2891 3144 2253 
L 3144 0 
L 2578 0 
z
" transform="scale(0.015625)"/>
      <path id="LiberationSans-42" d="M 3931 1241 
Q 3931 653 3503 326 
Q 3075 0 2313 0 
L 525 0 
L 525 4403 
L 2125 4403 
Q 3675 4403 3675 3334 
Q 3675 2944 3456 2678 
Q 3238 2413 2838 2322 
Q 3363 2259 3647 1970 
Q 3931 1681 3931 1241 
z
M 3075 3263 
Q 3075 3619 2831 3772 
Q 2588 3925 2125 3925 
L 1122 3925 
L 1122 2531 
L 2125 2531 
Q 2603 2531 2839 2711 
Q 3075 2891 3075 3263 
z
M 3328 1288 
Q 3328 2066 2234 2066 
L 1122 2066 
L 1122 478 
L 2281 478 
Q 2828 478 3078 681 
Q 3328 884 3328 1288 
z
" transform="scale(0.015625)"/>
      <path id="LiberationSans-63" d="M 859 1706 
Q 859 1031 1071 706 
Q 1284 381 1713 381 
Q 2013 381 2214 543 
Q 2416 706 2463 1044 
L 3031 1006 
Q 2966 519 2616 228 
Q 2266 -63 1728 -63 
Q 1019 -63 645 385 
Q 272 834 272 1694 
Q 272 2547 647 2995 
Q 1022 3444 1722 3444 
Q 2241 3444 2583 3175 
Q 2925 2906 3013 2434 
L 2434 2391 
Q 2391 2672 2212 2837 
Q 2034 3003 1706 3003 
Q 1259 3003 1059 2706 
Q 859 2409 859 1706 
z
" transform="scale(0.015625)"/>
      <path id="LiberationSans-4d" d="M 4269 0 
L 4269 2938 
Q 4269 3425 4297 3875 
Q 4144 3316 4022 3000 
L 2884 0 
L 2466 0 
L 1313 3000 
L 1138 3531 
L 1034 3875 
L 1044 3528 
L 1056 2938 
L 1056 0 
L 525 0 
L 525 4403 
L 1309 4403 
L 2481 1350 
Q 2544 1166 2601 955 
Q 2659 744 2678 650 
Q 2703 775 2783 1029 
Q 2863 1284 2891 1350 
L 4041 4403 
L 4806 4403 
L 4806 0 
L 4269 0 
z
" transform="scale(0.015625)"/>
     </defs>
     <use xlink:href="#LiberationSans-43"/>
     <use xlink:href="#LiberationSans-6f" x="72.216797"/>
     <use xlink:href="#LiberationSans-72" x="127.832031"/>
     <use xlink:href="#LiberationSans-72" x="161.132812"/>
     <use xlink:href="#LiberationSans-65" x="194.433594"/>
     <use xlink:href="#LiberationSans-6c" x="250.048828"/>
     <use xlink:href="#LiberationSans-61" x="272.265625"/>
     <use xlink:href="#LiberationSans-74" x="327.880859"/>
     <use xlink:href="#LiberationSans-69" x="355.664062"/>
     <use xlink:href="#LiberationSans-6f" x="377.880859"/>
     <use xlink:href="#LiberationSans-6e" x="433.496094"/>
     <use xlink:href="#LiberationSans-20" x="489.111328"/>
     <use xlink:href="#LiberationSans-42" x="516.894531"/>
     <use xlink:href="#LiberationSans-65" x="583.59375"/>
     <use xlink:href="#LiberationSans-74" x="639.208984"/>
     <use xlink:href="#LiberationSans-77" x="666.992188"/>
     <use xlink:href="#LiberationSans-65" x="739.208984"/>
     <use xlink:href="#LiberationSans-65" x="794.824219"/>
     <use xlink:href="#LiberationSans-6e" x="850.439453"/>
     <use xlink:href="#LiberationSans-20" x="906.054688"/>
     <use xlink:href="#LiberationSans-41" x="928.337891"/>
     <use xlink:href="#LiberationSans-76" x="993.287109"/>
     <use xlink:href="#LiberationSans-65" x="1043.287109"/>
     <use xlink:href="#LiberationSans-72" x="1098.902344"/>
     <use xlink:href="#LiberationSans-61" x="1132.203125"/>
     <use xlink:href="#LiberationSans-67" x="1187.818359"/>
     <use xlink:href="#LiberationSans-65" x="1243.433594"/>
     <use xlink:href="#LiberationSans-20" x="1299.048828"/>
     <use xlink:href="#LiberationSans-52" x="1326.832031"/>
     <use xlink:href="#LiberationSans-65" x="1399.048828"/>
     <use xlink:href="#LiberationSans-77" x="1454.664062"/>
     <use xlink:href="#LiberationSans-61" x="1526.880859"/>
     <use xlink:href="#LiberationSans-72" x="1582.496094"/>
     <use xlink:href="#LiberationSans-64" x="1615.796875"/>
     <use xlink:href="#LiberationSans-73" x="1671.412109"/>
     <use xlink:href="#LiberationSans-20" x="1721.412109"/>
     <use xlink:href="#LiberationSans-61" x="1749.195312"/>
     <use xlink:href="#LiberationSans-6e" x="1804.810547"/>
     <use xlink:href="#LiberationSans-64" x="1860.425781"/>
     <use xlink:href="#LiberationSans-20" x="1916.041016"/>
     <use xlink:href="#LiberationSans-41" x="1938.324219"/>
     <use xlink:href="#LiberationSans-76" x="2003.273438"/>
     <use xlink:href="#LiberationSans-65" x="2053.273438"/>
     <use xlink:href="#LiberationSans-72" x="2108.888672"/>
     <use xlink:href="#LiberationSans-61" x="2142.189453"/>
     <use xlink:href="#LiberationSans-67" x="2197.804688"/>
     <use xlink:href="#LiberationSans-65" x="2253.419922"/>
     <use xlink:href="#LiberationSans-20" x="2309.035156"/>
     <use xlink:href="#LiberationSans-4c" x="2336.818359"/>
     <use xlink:href="#LiberationSans-61" x="2392.433594"/>
     <use xlink:href="#LiberationSans-70" x="2448.048828"/>
     <use xlink:href="#LiberationSans-20" x="2503.664062"/>
     <use xlink:href="#LiberationSans-54" x="2529.697266"/>
     <use xlink:href="#LiberationSans-69" x="2587.03125"/>
     <use xlink:href="#LiberationSans-6d" x="2609.248047"/>
     <use xlink:href="#LiberationSans-65" x="2692.548828"/>
     <use xlink:href="#LiberationSans-73" x="2748.164062"/>
     <use xlink:href="#LiberationSans-20" x="2798.164062"/>
     <use xlink:href="#LiberationSans-41" x="2820.447266"/>
     <use xlink:href="#LiberationSans-63" x="2887.146484"/>
     <use xlink:href="#LiberationSans-72" x="2937.146484"/>
     <use xlink:href="#LiberationSans-6f" x="2970.447266"/>
     <use xlink:href="#LiberationSans-73" x="3026.0625"/>
     <use xlink:href="#LiberationSans-73" x="3076.0625"/>
     <use xlink:href="#LiberationSans-20" x="3126.0625"/>
     <use xlink:href="#LiberationSans-4d" x="3153.845703"/>
     <use xlink:href="#LiberationSans-6f" x="3237.146484"/>
     <use xlink:href="#LiberationSans-64" x="3292.761719"/>
     <use xlink:href="#LiberationSans-65" x="3348.376953"/>
     <use xlink:href="#LiberationSans-6c" x="3403.992188"/>
     <use xlink:href="#LiberationSans-73" x="3426.208984"/>
    </g>
   </g>
   <g id="legend_1">
    <g id="PathCollection_4">
     <g>
      <use xlink:href="#m3c7398db4f" x="629.6775" y="59.78625" style="fill: #e41a1c; stroke: #e41a1c; stroke-width: 0.3"/>
     </g>
    </g>
    <g id="text_22">
     <!-- MLP -->
     <g style="fill: #262626" transform="translate(651.2775 62.93625) scale(0.12 -0.12)">
      <use xlink:href="#LiberationSans-4d"/>
      <use xlink:href="#LiberationSans-4c" x="83.300781"/>
      <use xlink:href="#LiberationSans-50" x="138.916016"/>
     </g>
    </g>
    <g id="PathCollection_5">
     <g>
      <use xlink:href="#m9f1a071e04" x="629.6775" y="76.9725" style="fill: #4daf4a; stroke: #4daf4a; stroke-width: 0.3"/>
     </g>
    </g>
    <g id="text_23">
     <!-- LSTM -->
     <g style="fill: #262626" transform="translate(651.2775 80.1225) scale(0.12 -0.12)">
      <defs>
       <path id="LiberationSans-53" d="M 3975 1216 
Q 3975 606 3498 271 
Q 3022 -63 2156 -63 
Q 547 -63 291 1056 
L 869 1172 
Q 969 775 1294 589 
Q 1619 403 2178 403 
Q 2756 403 3070 601 
Q 3384 800 3384 1184 
Q 3384 1400 3286 1534 
Q 3188 1669 3009 1756 
Q 2831 1844 2584 1903 
Q 2338 1963 2038 2031 
Q 1516 2147 1245 2262 
Q 975 2378 819 2520 
Q 663 2663 580 2853 
Q 497 3044 497 3291 
Q 497 3856 930 4162 
Q 1363 4469 2169 4469 
Q 2919 4469 3316 4239 
Q 3713 4009 3872 3456 
L 3284 3353 
Q 3188 3703 2916 3861 
Q 2644 4019 2163 4019 
Q 1634 4019 1356 3844 
Q 1078 3669 1078 3322 
Q 1078 3119 1186 2986 
Q 1294 2853 1497 2761 
Q 1700 2669 2306 2534 
Q 2509 2488 2711 2439 
Q 2913 2391 3097 2323 
Q 3281 2256 3442 2165 
Q 3603 2075 3722 1944 
Q 3841 1813 3908 1634 
Q 3975 1456 3975 1216 
z
" transform="scale(0.015625)"/>
      </defs>
      <use xlink:href="#LiberationSans-4c"/>
      <use xlink:href="#LiberationSans-53" x="55.615234"/>
      <use xlink:href="#LiberationSans-54" x="122.314453"/>
      <use xlink:href="#LiberationSans-4d" x="183.398438"/>
     </g>
    </g>
    <g id="PathCollection_6">
     <g>
      <use xlink:href="#m0a24483a97" x="629.6775" y="94.15875" style="fill: #377eb8; stroke: #377eb8; stroke-width: 0.3"/>
     </g>
    </g>
    <g id="text_24">
     <!-- CNN -->
     <g style="fill: #262626" transform="translate(651.2775 97.30875) scale(0.12 -0.12)">
      <defs>
       <path id="LiberationSans-4e" d="M 3381 0 
L 1025 3750 
L 1041 3447 
L 1056 2925 
L 1056 0 
L 525 0 
L 525 4403 
L 1219 4403 
L 3600 628 
Q 3563 1241 3563 1516 
L 3563 4403 
L 4100 4403 
L 4100 0 
L 3381 0 
z
" transform="scale(0.015625)"/>
      </defs>
      <use xlink:href="#LiberationSans-43"/>
      <use xlink:href="#LiberationSans-4e" x="72.216797"/>
      <use xlink:href="#LiberationSans-4e" x="144.433594"/>
     </g>
    </g>
   </g>
  </g>
 </g>
 <defs>
  <clipPath id="p0ef5c6cc8b">
   <rect x="81.11" y="43.44" width="612.97" height="325.72"/>
  </clipPath>
 </defs>
</svg>
