<?xml version="1.0" encoding="utf-8" standalone="no"?>
<!DOCTYPE svg PUBLIC "-//W3C//DTD SVG 1.1//EN"
  "http://www.w3.org/Graphics/SVG/1.1/DTD/svg11.dtd">
<svg xmlns:xlink="http://www.w3.org/1999/xlink" width="855.373526pt" height="206.271591pt" viewBox="0 0 855.373526 206.271591" xmlns="http://www.w3.org/2000/svg" version="1.1">
 <metadata>
  <rdf:RDF xmlns:dc="http://purl.org/dc/elements/1.1/" xmlns:cc="http://creativecommons.org/ns#" xmlns:rdf="http://www.w3.org/1999/02/22-rdf-syntax-ns#">
   <cc:Work>
    <dc:type rdf:resource="http://purl.org/dc/dcmitype/StillImage"/>
    <dc:date>2024-06-01T20:39:10.700398</dc:date>
    <dc:format>image/svg+xml</dc:format>
    <dc:creator>
     <cc:Agent>
      <dc:title>Matplotlib v3.7.1, https://matplotlib.org/</dc:title>
     </cc:Agent>
    </dc:creator>
   </cc:Work>
  </rdf:RDF>
 </metadata>
 <defs>
  <style type="text/css">*{stroke-linejoin: round; stroke-linecap: butt}</style>
 </defs>
 <g id="figure_1">
  <g id="patch_1">
   <path d="M 0 206.271591 
L 855.373526 206.271591 
L 855.373526 0 
L 0 0 
z
" style="fill: #ffffff"/>
  </g>
  <g id="axes_1">
   <g id="patch_2">
    <path d="M 47.675 158.241591 
L 848.173526 158.241591 
L 848.173526 13.368864 
L 47.675 13.368864 
z
" style="fill: #eaeaf2"/>
   </g>
   <g id="matplotlib.axis_1">
    <g id="xtick_1">
     <g id="line2d_1">
      <path d="M 84.061297 158.241591 
L 84.061297 13.368864 
" clip-path="url(#p18a09c9be3)" style="fill: none; stroke: #ffffff; stroke-linecap: round"/>
     </g>
     <g id="line2d_2"/>
     <g id="text_1">
      <!-- 0 -->
      <g style="fill: #262626" transform="translate(79.612547 176.836591) scale(0.16 -0.16)">
       <defs>
        <path id="LiberationSans-30" d="M 3309 2203 
Q 3309 1100 2920 518 
Q 2531 -63 1772 -63 
Q 1013 -63 631 515 
Q 250 1094 250 2203 
Q 250 3338 620 3903 
Q 991 4469 1791 4469 
Q 2569 4469 2939 3897 
Q 3309 3325 3309 2203 
z
M 2738 2203 
Q 2738 3156 2517 3584 
Q 2297 4013 1791 4013 
Q 1272 4013 1045 3591 
Q 819 3169 819 2203 
Q 819 1266 1048 831 
Q 1278 397 1778 397 
Q 2275 397 2506 840 
Q 2738 1284 2738 2203 
z
" transform="scale(0.015625)"/>
       </defs>
       <use xlink:href="#LiberationSans-30"/>
      </g>
     </g>
    </g>
    <g id="xtick_2">
     <g id="line2d_3">
      <path d="M 181.415937 158.241591 
L 181.415937 13.368864 
" clip-path="url(#p18a09c9be3)" style="fill: none; stroke: #ffffff; stroke-linecap: round"/>
     </g>
     <g id="line2d_4"/>
     <g id="text_2">
      <!-- 1 -->
      <g style="fill: #262626" transform="translate(176.967187 176.836591) scale(0.16 -0.16)">
       <defs>
        <path id="LiberationSans-31" d="M 488 0 
L 488 478 
L 1609 478 
L 1609 3866 
L 616 3156 
L 616 3688 
L 1656 4403 
L 2175 4403 
L 2175 478 
L 3247 478 
L 3247 0 
L 488 0 
z
" transform="scale(0.015625)"/>
       </defs>
       <use xlink:href="#LiberationSans-31"/>
      </g>
     </g>
    </g>
    <g id="xtick_3">
     <g id="line2d_5">
      <path d="M 278.770576 158.241591 
L 278.770576 13.368864 
" clip-path="url(#p18a09c9be3)" style="fill: none; stroke: #ffffff; stroke-linecap: round"/>
     </g>
     <g id="line2d_6"/>
     <g id="text_3">
      <!-- 2 -->
      <g style="fill: #262626" transform="translate(274.321826 176.836591) scale(0.16 -0.16)">
       <defs>
        <path id="LiberationSans-32" d="M 322 0 
L 322 397 
Q 481 763 711 1042 
Q 941 1322 1194 1548 
Q 1447 1775 1695 1969 
Q 1944 2163 2144 2356 
Q 2344 2550 2467 2762 
Q 2591 2975 2591 3244 
Q 2591 3606 2378 3806 
Q 2166 4006 1788 4006 
Q 1428 4006 1195 3811 
Q 963 3616 922 3263 
L 347 3316 
Q 409 3844 795 4156 
Q 1181 4469 1788 4469 
Q 2453 4469 2811 4155 
Q 3169 3841 3169 3263 
Q 3169 3006 3051 2753 
Q 2934 2500 2703 2247 
Q 2472 1994 1819 1463 
Q 1459 1169 1246 933 
Q 1034 697 941 478 
L 3238 478 
L 3238 0 
L 322 0 
z
" transform="scale(0.015625)"/>
       </defs>
       <use xlink:href="#LiberationSans-32"/>
      </g>
     </g>
    </g>
    <g id="xtick_4">
     <g id="line2d_7">
      <path d="M 376.125216 158.241591 
L 376.125216 13.368864 
" clip-path="url(#p18a09c9be3)" style="fill: none; stroke: #ffffff; stroke-linecap: round"/>
     </g>
     <g id="line2d_8"/>
     <g id="text_4">
      <!-- 3 -->
      <g style="fill: #262626" transform="translate(371.676466 176.836591) scale(0.16 -0.16)">
       <defs>
        <path id="LiberationSans-33" d="M 3278 1216 
Q 3278 606 2890 271 
Q 2503 -63 1784 -63 
Q 1116 -63 717 239 
Q 319 541 244 1131 
L 825 1184 
Q 938 403 1784 403 
Q 2209 403 2451 612 
Q 2694 822 2694 1234 
Q 2694 1594 2417 1795 
Q 2141 1997 1619 1997 
L 1300 1997 
L 1300 2484 
L 1606 2484 
Q 2069 2484 2323 2686 
Q 2578 2888 2578 3244 
Q 2578 3597 2370 3801 
Q 2163 4006 1753 4006 
Q 1381 4006 1151 3815 
Q 922 3625 884 3278 
L 319 3322 
Q 381 3863 767 4166 
Q 1153 4469 1759 4469 
Q 2422 4469 2789 4161 
Q 3156 3853 3156 3303 
Q 3156 2881 2920 2617 
Q 2684 2353 2234 2259 
L 2234 2247 
Q 2728 2194 3003 1916 
Q 3278 1638 3278 1216 
z
" transform="scale(0.015625)"/>
       </defs>
       <use xlink:href="#LiberationSans-33"/>
      </g>
     </g>
    </g>
    <g id="xtick_5">
     <g id="line2d_9">
      <path d="M 473.479856 158.241591 
L 473.479856 13.368864 
" clip-path="url(#p18a09c9be3)" style="fill: none; stroke: #ffffff; stroke-linecap: round"/>
     </g>
     <g id="line2d_10"/>
     <g id="text_5">
      <!-- 4 -->
      <g style="fill: #262626" transform="translate(469.031106 176.836591) scale(0.16 -0.16)">
       <defs>
        <path id="LiberationSans-34" d="M 2753 997 
L 2753 0 
L 2222 0 
L 2222 997 
L 147 997 
L 147 1434 
L 2163 4403 
L 2753 4403 
L 2753 1441 
L 3372 1441 
L 3372 997 
L 2753 997 
z
M 2222 3769 
Q 2216 3750 2134 3603 
Q 2053 3456 2013 3397 
L 884 1734 
L 716 1503 
L 666 1441 
L 2222 1441 
L 2222 3769 
z
" transform="scale(0.015625)"/>
       </defs>
       <use xlink:href="#LiberationSans-34"/>
      </g>
     </g>
    </g>
    <g id="xtick_6">
     <g id="line2d_11">
      <path d="M 570.834496 158.241591 
L 570.834496 13.368864 
" clip-path="url(#p18a09c9be3)" style="fill: none; stroke: #ffffff; stroke-linecap: round"/>
     </g>
     <g id="line2d_12"/>
     <g id="text_6">
      <!-- 5 -->
      <g style="fill: #262626" transform="translate(566.385746 176.836591) scale(0.16 -0.16)">
       <defs>
        <path id="LiberationSans-35" d="M 3291 1434 
Q 3291 738 2877 337 
Q 2463 -63 1728 -63 
Q 1113 -63 734 206 
Q 356 475 256 984 
L 825 1050 
Q 1003 397 1741 397 
Q 2194 397 2450 670 
Q 2706 944 2706 1422 
Q 2706 1838 2448 2094 
Q 2191 2350 1753 2350 
Q 1525 2350 1328 2278 
Q 1131 2206 934 2034 
L 384 2034 
L 531 4403 
L 3034 4403 
L 3034 3925 
L 1044 3925 
L 959 2528 
Q 1325 2809 1869 2809 
Q 2519 2809 2905 2428 
Q 3291 2047 3291 1434 
z
" transform="scale(0.015625)"/>
       </defs>
       <use xlink:href="#LiberationSans-35"/>
      </g>
     </g>
    </g>
    <g id="xtick_7">
     <g id="line2d_13">
      <path d="M 668.189136 158.241591 
L 668.189136 13.368864 
" clip-path="url(#p18a09c9be3)" style="fill: none; stroke: #ffffff; stroke-linecap: round"/>
     </g>
     <g id="line2d_14"/>
     <g id="text_7">
      <!-- 6 -->
      <g style="fill: #262626" transform="translate(663.740386 176.836591) scale(0.16 -0.16)">
       <defs>
        <path id="LiberationSans-36" d="M 3278 1441 
Q 3278 744 2900 340 
Q 2522 -63 1856 -63 
Q 1113 -63 719 490 
Q 325 1044 325 2100 
Q 325 3244 734 3856 
Q 1144 4469 1900 4469 
Q 2897 4469 3156 3572 
L 2619 3475 
Q 2453 4013 1894 4013 
Q 1413 4013 1148 3564 
Q 884 3116 884 2266 
Q 1038 2550 1316 2698 
Q 1594 2847 1953 2847 
Q 2563 2847 2920 2465 
Q 3278 2084 3278 1441 
z
M 2706 1416 
Q 2706 1894 2472 2153 
Q 2238 2413 1819 2413 
Q 1425 2413 1183 2183 
Q 941 1953 941 1550 
Q 941 1041 1192 716 
Q 1444 391 1838 391 
Q 2244 391 2475 664 
Q 2706 938 2706 1416 
z
" transform="scale(0.015625)"/>
       </defs>
       <use xlink:href="#LiberationSans-36"/>
      </g>
     </g>
    </g>
    <g id="xtick_8">
     <g id="line2d_15">
      <path d="M 765.543776 158.241591 
L 765.543776 13.368864 
" clip-path="url(#p18a09c9be3)" style="fill: none; stroke: #ffffff; stroke-linecap: round"/>
     </g>
     <g id="line2d_16"/>
     <g id="text_8">
      <!-- 7 -->
      <g style="fill: #262626" transform="translate(761.095026 176.836591) scale(0.16 -0.16)">
       <defs>
        <path id="LiberationSans-37" d="M 3238 3947 
Q 2563 2916 2284 2331 
Q 2006 1747 1867 1178 
Q 1728 609 1728 0 
L 1141 0 
Q 1141 844 1498 1776 
Q 1856 2709 2694 3925 
L 328 3925 
L 328 4403 
L 3238 4403 
L 3238 3947 
z
" transform="scale(0.015625)"/>
       </defs>
       <use xlink:href="#LiberationSans-37"/>
      </g>
     </g>
    </g>
    <g id="text_9">
     <!-- $\mathrm{Time}\, (s)$ -->
     <g style="fill: #262626" transform="translate(416.324263 195.751591) scale(0.16 -0.16)">
      <defs>
       <path id="DejaVuSans-54" d="M -19 4666 
L 3928 4666 
L 3928 4134 
L 2272 4134 
L 2272 0 
L 1638 0 
L 1638 4134 
L -19 4134 
L -19 4666 
z
" transform="scale(0.015625)"/>
       <path id="DejaVuSans-69" d="M 603 3500 
L 1178 3500 
L 1178 0 
L 603 0 
L 603 3500 
z
M 603 4863 
L 1178 4863 
L 1178 4134 
L 603 4134 
L 603 4863 
z
" transform="scale(0.015625)"/>
       <path id="DejaVuSans-6d" d="M 3328 2828 
Q 3544 3216 3844 3400 
Q 4144 3584 4550 3584 
Q 5097 3584 5394 3201 
Q 5691 2819 5691 2113 
L 5691 0 
L 5113 0 
L 5113 2094 
Q 5113 2597 4934 2840 
Q 4756 3084 4391 3084 
Q 3944 3084 3684 2787 
Q 3425 2491 3425 1978 
L 3425 0 
L 2847 0 
L 2847 2094 
Q 2847 2600 2669 2842 
Q 2491 3084 2119 3084 
Q 1678 3084 1418 2786 
Q 1159 2488 1159 1978 
L 1159 0 
L 581 0 
L 581 3500 
L 1159 3500 
L 1159 2956 
Q 1356 3278 1631 3431 
Q 1906 3584 2284 3584 
Q 2666 3584 2933 3390 
Q 3200 3197 3328 2828 
z
" transform="scale(0.015625)"/>
       <path id="DejaVuSans-65" d="M 3597 1894 
L 3597 1613 
L 953 1613 
Q 991 1019 1311 708 
Q 1631 397 2203 397 
Q 2534 397 2845 478 
Q 3156 559 3463 722 
L 3463 178 
Q 3153 47 2828 -22 
Q 2503 -91 2169 -91 
Q 1331 -91 842 396 
Q 353 884 353 1716 
Q 353 2575 817 3079 
Q 1281 3584 2069 3584 
Q 2775 3584 3186 3129 
Q 3597 2675 3597 1894 
z
M 3022 2063 
Q 3016 2534 2758 2815 
Q 2500 3097 2075 3097 
Q 1594 3097 1305 2825 
Q 1016 2553 972 2059 
L 3022 2063 
z
" transform="scale(0.015625)"/>
       <path id="DejaVuSans-28" d="M 1984 4856 
Q 1566 4138 1362 3434 
Q 1159 2731 1159 2009 
Q 1159 1288 1364 580 
Q 1569 -128 1984 -844 
L 1484 -844 
Q 1016 -109 783 600 
Q 550 1309 550 2009 
Q 550 2706 781 3412 
Q 1013 4119 1484 4856 
L 1984 4856 
z
" transform="scale(0.015625)"/>
       <path id="DejaVuSans-Oblique-73" d="M 3200 3397 
L 3091 2853 
Q 2863 2978 2609 3040 
Q 2356 3103 2088 3103 
Q 1634 3103 1373 2948 
Q 1113 2794 1113 2528 
Q 1113 2219 1719 2053 
Q 1766 2041 1788 2034 
L 1972 1978 
Q 2547 1819 2739 1644 
Q 2931 1469 2931 1166 
Q 2931 609 2489 259 
Q 2047 -91 1331 -91 
Q 1053 -91 747 -37 
Q 441 16 72 128 
L 184 722 
Q 500 559 806 475 
Q 1113 391 1394 391 
Q 1816 391 2080 572 
Q 2344 753 2344 1031 
Q 2344 1331 1650 1516 
L 1591 1531 
L 1394 1581 
Q 956 1697 753 1886 
Q 550 2075 550 2369 
Q 550 2928 970 3256 
Q 1391 3584 2113 3584 
Q 2397 3584 2667 3537 
Q 2938 3491 3200 3397 
z
" transform="scale(0.015625)"/>
       <path id="DejaVuSans-29" d="M 513 4856 
L 1013 4856 
Q 1481 4119 1714 3412 
Q 1947 2706 1947 2009 
Q 1947 1309 1714 600 
Q 1481 -109 1013 -844 
L 513 -844 
Q 928 -128 1133 580 
Q 1338 1288 1338 2009 
Q 1338 2731 1133 3434 
Q 928 4138 513 4856 
z
" transform="scale(0.015625)"/>
      </defs>
      <use xlink:href="#DejaVuSans-54" transform="translate(0 0.015625)"/>
      <use xlink:href="#DejaVuSans-69" transform="translate(61.083984 0.015625)"/>
      <use xlink:href="#DejaVuSans-6d" transform="translate(88.867188 0.015625)"/>
      <use xlink:href="#DejaVuSans-65" transform="translate(186.279297 0.015625)"/>
      <use xlink:href="#DejaVuSans-28" transform="translate(264.038411 0.015625)"/>
      <use xlink:href="#DejaVuSans-Oblique-73" transform="translate(303.052083 0.015625)"/>
      <use xlink:href="#DejaVuSans-29" transform="translate(355.151692 0.015625)"/>
     </g>
    </g>
   </g>
   <g id="matplotlib.axis_2">
    <g id="ytick_1">
     <g id="line2d_17"/>
     <g id="text_10">
      <!-- -$\frac{\pi}{8}$ -->
      <g style="fill: #262626" transform="translate(26.115 164.472216) scale(0.16 -0.16)">
       <defs>
        <path id="LiberationSans-2d" d="M 284 1450 
L 284 1950 
L 1847 1950 
L 1847 1450 
L 284 1450 
z
" transform="scale(0.015625)"/>
        <path id="DejaVuSans-Oblique-3c0" d="M 584 3500 
L 3938 3500 
L 3825 2925 
L 3384 2925 
L 2966 775 
Q 2922 550 2981 450 
Q 3038 353 3209 353 
Q 3256 353 3325 363 
Q 3397 369 3419 372 
L 3338 -44 
Q 3222 -84 3103 -103 
Q 2981 -122 2866 -122 
Q 2491 -122 2388 81 
Q 2284 288 2391 838 
L 2797 2925 
L 1506 2925 
L 938 0 
L 350 0 
L 919 2925 
L 472 2925 
L 584 3500 
z
" transform="scale(0.015625)"/>
        <path id="DejaVuSans-38" d="M 2034 2216 
Q 1584 2216 1326 1975 
Q 1069 1734 1069 1313 
Q 1069 891 1326 650 
Q 1584 409 2034 409 
Q 2484 409 2743 651 
Q 3003 894 3003 1313 
Q 3003 1734 2745 1975 
Q 2488 2216 2034 2216 
z
M 1403 2484 
Q 997 2584 770 2862 
Q 544 3141 544 3541 
Q 544 4100 942 4425 
Q 1341 4750 2034 4750 
Q 2731 4750 3128 4425 
Q 3525 4100 3525 3541 
Q 3525 3141 3298 2862 
Q 3072 2584 2669 2484 
Q 3125 2378 3379 2068 
Q 3634 1759 3634 1313 
Q 3634 634 3220 271 
Q 2806 -91 2034 -91 
Q 1263 -91 848 271 
Q 434 634 434 1313 
Q 434 1759 690 2068 
Q 947 2378 1403 2484 
z
M 1172 3481 
Q 1172 3119 1398 2916 
Q 1625 2713 2034 2713 
Q 2441 2713 2670 2916 
Q 2900 3119 2900 3481 
Q 2900 3844 2670 4047 
Q 2441 4250 2034 4250 
Q 1625 4250 1398 4047 
Q 1172 3844 1172 3481 
z
" transform="scale(0.015625)"/>
       </defs>
       <use xlink:href="#LiberationSans-2d" transform="translate(0 0.5875)"/>
       <use xlink:href="#DejaVuSans-Oblique-3c0" transform="translate(34.300781 45.71875) scale(0.7)"/>
       <use xlink:href="#DejaVuSans-38" transform="translate(33.300781 -38.81875) scale(0.7)"/>
       <path d="M 33.300781 19.384375 
L 33.300781 25.634375 
L 77.836914 25.634375 
L 77.836914 19.384375 
L 33.300781 19.384375 
z
"/>
      </g>
     </g>
    </g>
    <g id="ytick_2">
     <g id="line2d_18"/>
     <g id="text_11">
      <!-- 0 -->
      <g style="fill: #262626" transform="translate(31.7775 91.633608) scale(0.16 -0.16)">
       <use xlink:href="#LiberationSans-30"/>
      </g>
     </g>
    </g>
    <g id="ytick_3">
     <g id="line2d_19"/>
     <g id="text_12">
      <!-- $\frac{\pi}{8}$ -->
      <g style="fill: #262626" transform="translate(31.395 20.64) scale(0.16 -0.16)">
       <use xlink:href="#DejaVuSans-Oblique-3c0" transform="translate(1 45.71875) scale(0.7)"/>
       <use xlink:href="#DejaVuSans-38" transform="translate(0 -38.81875) scale(0.7)"/>
       <path d="M 0 19.384375 
L 0 25.634375 
L 44.536133 25.634375 
L 44.536133 19.384375 
L 0 19.384375 
z
"/>
      </g>
     </g>
    </g>
    <g id="text_13">
     <!-- $\delta_t (\mathrm{rad})$ -->
     <g style="fill: #262626" transform="translate(18.795 112.685228) rotate(-90) scale(0.16 -0.16)">
      <defs>
       <path id="DejaVuSans-Oblique-3b4" d="M 3472 4053 
Q 3197 4272 2450 4272 
Q 1659 4272 1588 3906 
Q 1531 3619 2328 3469 
Q 2953 3353 3253 3003 
Q 3616 2581 3447 1716 
Q 3284 888 2763 400 
Q 2238 -91 1488 -91 
Q 741 -91 406 400 
Q 72 888 241 1747 
Q 363 2384 891 2900 
Q 1097 3100 1353 3213 
Q 913 3459 1000 3900 
Q 1166 4750 2544 4750 
Q 3234 4750 3566 4531 
L 3472 4053 
z
M 1753 3056 
Q 1525 2966 1306 2738 
Q 969 2384 847 1747 
Q 722 1113 919 756 
Q 1119 397 1584 397 
Q 2044 397 2381 759 
Q 2722 1122 2838 1716 
Q 2956 2338 2731 2638 
Q 2491 2959 2103 2994 
Q 1906 3013 1753 3056 
z
" transform="scale(0.015625)"/>
       <path id="DejaVuSans-Oblique-74" d="M 2706 3500 
L 2619 3053 
L 1472 3053 
L 1100 1153 
Q 1081 1047 1072 975 
Q 1063 903 1063 863 
Q 1063 663 1183 572 
Q 1303 481 1569 481 
L 2150 481 
L 2053 0 
L 1503 0 
Q 991 0 739 200 
Q 488 400 488 806 
Q 488 878 497 964 
Q 506 1050 525 1153 
L 897 3053 
L 409 3053 
L 500 3500 
L 978 3500 
L 1172 4494 
L 1747 4494 
L 1556 3500 
L 2706 3500 
z
" transform="scale(0.015625)"/>
       <path id="DejaVuSans-72" d="M 2631 2963 
Q 2534 3019 2420 3045 
Q 2306 3072 2169 3072 
Q 1681 3072 1420 2755 
Q 1159 2438 1159 1844 
L 1159 0 
L 581 0 
L 581 3500 
L 1159 3500 
L 1159 2956 
Q 1341 3275 1631 3429 
Q 1922 3584 2338 3584 
Q 2397 3584 2469 3576 
Q 2541 3569 2628 3553 
L 2631 2963 
z
" transform="scale(0.015625)"/>
       <path id="DejaVuSans-61" d="M 2194 1759 
Q 1497 1759 1228 1600 
Q 959 1441 959 1056 
Q 959 750 1161 570 
Q 1363 391 1709 391 
Q 2188 391 2477 730 
Q 2766 1069 2766 1631 
L 2766 1759 
L 2194 1759 
z
M 3341 1997 
L 3341 0 
L 2766 0 
L 2766 531 
Q 2569 213 2275 61 
Q 1981 -91 1556 -91 
Q 1019 -91 701 211 
Q 384 513 384 1019 
Q 384 1609 779 1909 
Q 1175 2209 1959 2209 
L 2766 2209 
L 2766 2266 
Q 2766 2663 2505 2880 
Q 2244 3097 1772 3097 
Q 1472 3097 1187 3025 
Q 903 2953 641 2809 
L 641 3341 
Q 956 3463 1253 3523 
Q 1550 3584 1831 3584 
Q 2591 3584 2966 3190 
Q 3341 2797 3341 1997 
z
" transform="scale(0.015625)"/>
       <path id="DejaVuSans-64" d="M 2906 2969 
L 2906 4863 
L 3481 4863 
L 3481 0 
L 2906 0 
L 2906 525 
Q 2725 213 2448 61 
Q 2172 -91 1784 -91 
Q 1150 -91 751 415 
Q 353 922 353 1747 
Q 353 2572 751 3078 
Q 1150 3584 1784 3584 
Q 2172 3584 2448 3432 
Q 2725 3281 2906 2969 
z
M 947 1747 
Q 947 1113 1208 752 
Q 1469 391 1925 391 
Q 2381 391 2643 752 
Q 2906 1113 2906 1747 
Q 2906 2381 2643 2742 
Q 2381 3103 1925 3103 
Q 1469 3103 1208 2742 
Q 947 2381 947 1747 
z
" transform="scale(0.015625)"/>
      </defs>
      <use xlink:href="#DejaVuSans-Oblique-3b4" transform="translate(0 0.015625)"/>
      <use xlink:href="#DejaVuSans-Oblique-74" transform="translate(61.181641 -16.390625) scale(0.7)"/>
      <use xlink:href="#DejaVuSans-28" transform="translate(91.362305 0.015625)"/>
      <use xlink:href="#DejaVuSans-72" transform="translate(130.375977 0.015625)"/>
      <use xlink:href="#DejaVuSans-61" transform="translate(171.489258 0.015625)"/>
      <use xlink:href="#DejaVuSans-64" transform="translate(232.768555 0.015625)"/>
      <use xlink:href="#DejaVuSans-29" transform="translate(296.245117 0.015625)"/>
     </g>
    </g>
   </g>
   <g id="line2d_20">
    <path d="M 84.061297 40.933508 
L 86.495163 49.333415 
L 88.929029 47.483147 
L 91.362895 50.968442 
L 93.796761 43.800982 
L 96.230627 43.529664 
L 98.664493 60.735595 
L 101.098359 27.529819 
L 103.532225 42.413564 
L 105.966091 151.656467 
L 113.267689 151.611724 
L 115.701555 26.843923 
L 118.135421 40.096196 
L 120.569287 137.614815 
L 123.003153 150.472357 
L 125.437019 149.971245 
L 127.870885 149.85232 
L 130.304751 147.706516 
L 132.738617 143.895689 
L 135.172483 145.811764 
L 137.606349 146.216257 
L 140.040215 148.912697 
L 142.474081 149.600564 
L 144.907947 150.554219 
L 152.209545 150.997838 
L 154.643411 150.807329 
L 157.077277 150.983337 
L 159.511143 150.645768 
L 161.945009 150.670922 
L 164.378875 150.293588 
L 166.812741 147.473736 
L 169.246607 148.10459 
L 171.680473 141.236088 
L 174.114339 127.308728 
L 176.548205 81.288734 
L 178.982071 31.687772 
L 181.415937 25.577269 
L 183.849803 24.685391 
L 186.283669 23.272889 
L 188.717535 23.580315 
L 191.151401 30.978954 
L 193.585267 85.576855 
L 196.019133 150.248152 
L 198.452999 151.521011 
L 203.32073 151.544021 
L 210.622328 151.274111 
L 213.056194 150.932279 
L 217.923926 150.780411 
L 220.357792 150.940368 
L 230.093256 151.146956 
L 239.82872 151.301542 
L 256.865782 151.320939 
L 261.733514 151.215849 
L 264.16738 151.009742 
L 266.601246 151.05884 
L 269.035112 150.658228 
L 271.468978 149.606933 
L 276.33671 148.773698 
L 278.770576 139.515653 
L 281.204442 134.569988 
L 283.638308 90.635774 
L 286.072174 33.084108 
L 288.50604 23.73089 
L 290.939906 23.465401 
L 293.373772 23.461914 
L 295.807638 24.973726 
L 298.241504 24.653632 
L 300.67537 22.785978 
L 303.109236 21.177989 
L 305.543102 20.578441 
L 310.410834 20.042732 
L 315.278566 19.964123 
L 329.881762 20.001427 
L 334.749494 20.178129 
L 337.18336 38.673568 
L 339.617226 24.122835 
L 342.051092 20.347877 
L 344.484958 20.122923 
L 354.220422 20.32979 
L 359.088154 20.522913 
L 363.955886 20.810588 
L 366.389752 21.141111 
L 368.823618 21.230602 
L 371.257484 21.651146 
L 373.69135 21.651468 
L 376.125216 22.49498 
L 378.559082 24.035303 
L 380.992948 25.279531 
L 383.426814 28.885113 
L 385.86068 36.895771 
L 388.294546 43.545183 
L 390.728412 49.259099 
L 393.162278 70.0515 
L 395.596144 80.304033 
L 398.03001 84.881033 
L 400.463876 95.38137 
L 405.331608 144.899042 
L 407.765474 142.242962 
L 410.19934 119.806989 
L 412.633206 73.013129 
L 415.067072 55.482218 
L 417.500938 100.191835 
L 419.934804 98.228915 
L 422.36867 103.535383 
L 424.802536 129.108842 
L 427.236402 120.640248 
L 429.670268 66.021697 
L 432.104134 40.153097 
L 434.538 90.873908 
L 436.971866 145.809881 
L 439.405732 149.46962 
L 441.839598 144.092278 
L 444.273464 147.174223 
L 446.70733 149.00024 
L 449.141196 149.894885 
L 454.008928 149.414982 
L 458.87666 150.572617 
L 461.310526 150.851209 
L 466.178258 150.756053 
L 468.612124 150.601489 
L 471.04599 149.789654 
L 473.479856 148.746147 
L 475.913722 149.077293 
L 478.347588 150.414123 
L 480.781454 151.204377 
L 483.21532 151.23374 
L 485.649186 150.949804 
L 488.083052 150.450406 
L 490.516918 150.619226 
L 492.950784 151.005889 
L 497.818516 151.120355 
L 507.55398 151.209213 
L 509.987846 151.153254 
L 512.421712 150.77402 
L 514.855578 150.744837 
L 517.289444 150.875087 
L 519.72331 150.727918 
L 524.591042 150.93527 
L 527.024908 150.757123 
L 529.458774 150.766838 
L 531.89264 150.504531 
L 534.326506 150.410286 
L 536.760372 150.514551 
L 539.194238 150.79721 
L 541.628104 150.460983 
L 548.929702 151.24614 
L 551.363568 151.062895 
L 553.797434 146.344165 
L 556.2313 85.78769 
L 558.665166 30.385409 
L 561.099032 25.03488 
L 563.532898 28.894784 
L 565.966764 29.503387 
L 568.40063 46.819347 
L 570.834496 106.292457 
L 573.268362 146.376776 
L 575.702228 145.568112 
L 578.136094 118.901024 
L 580.56996 102.806252 
L 583.003826 81.258257 
L 585.437692 44.060303 
L 587.871558 49.304243 
L 590.305424 114.490479 
L 592.73929 143.985977 
L 595.173156 123.20527 
L 597.607022 62.506665 
L 600.040888 49.505769 
L 602.474754 131.306099 
L 604.90862 145.68188 
L 607.342486 117.475153 
L 609.776352 78.630351 
L 612.210218 71.062547 
L 614.644084 80.589706 
L 617.07795 129.243903 
L 619.511816 124.366534 
L 621.945682 64.374283 
L 624.379548 44.946917 
L 626.813414 85.85709 
L 629.24728 120.750209 
L 631.681146 123.750994 
L 634.115012 49.824739 
L 636.548878 34.469955 
L 638.982744 62.86728 
L 641.41661 119.105257 
L 643.850476 119.212178 
L 646.284342 35.698938 
L 648.718208 27.6847 
L 651.152074 61.634176 
L 653.58594 80.87869 
L 656.019806 74.557991 
L 658.453672 143.499142 
L 660.887538 125.03535 
L 663.321404 53.530012 
L 665.75527 50.05247 
L 668.189136 136.78735 
L 670.623002 149.84141 
L 673.056868 139.171485 
L 675.490734 118.769407 
L 677.9246 96.68825 
L 680.358466 42.656855 
L 682.792332 32.708351 
L 685.226198 100.281833 
L 687.660064 139.575072 
L 690.09393 138.652007 
L 692.527796 45.754034 
L 694.961662 33.774213 
L 697.395528 78.322108 
L 699.829394 96.379136 
L 702.26326 124.017141 
L 704.697126 73.02885 
L 707.130992 52.717695 
L 709.564858 100.304212 
L 711.998724 131.165125 
L 714.43259 105.568456 
L 716.866456 53.123555 
L 719.300322 46.590387 
L 721.734188 132.082821 
L 724.168054 145.005087 
L 726.60192 95.627207 
L 729.035786 88.645254 
L 731.469652 79.403312 
L 733.903518 65.010709 
L 736.337384 125.101469 
L 738.77125 143.255398 
L 741.205116 97.623327 
L 743.638982 75.364087 
L 746.072848 77.113558 
L 748.506714 105.35287 
L 750.94058 135.233011 
L 753.374446 135.595681 
L 755.808312 84.361597 
L 758.242178 58.934131 
L 760.676044 63.421363 
L 763.10991 123.708737 
L 765.543776 146.640681 
L 767.977642 148.278906 
L 770.411508 147.290753 
L 772.845374 150.268498 
L 777.713106 150.689413 
L 780.146972 151.184615 
L 785.014704 151.449677 
L 789.882436 151.535736 
L 802.051766 151.404383 
L 806.919498 151.39093 
L 811.78723 151.340156 
L 811.78723 151.340156 
" clip-path="url(#p18a09c9be3)" style="fill: none; stroke: #f08080; stroke-width: 2; stroke-linecap: round"/>
   </g>
   <g id="line2d_21">
    <path d="M 84.061297 22.276783 
L 86.495163 29.574857 
L 88.929029 21.347557 
L 91.362895 20.696667 
L 93.796761 21.274439 
L 96.230627 24.429797 
L 98.664493 50.509546 
L 101.098359 34.087167 
L 103.532225 21.11666 
L 105.966091 22.679802 
L 108.399957 140.742934 
L 110.833823 150.741928 
L 113.267689 72.751881 
L 115.701555 94.749063 
L 118.135421 114.52757 
L 120.569287 121.0717 
L 123.003153 120.936685 
L 125.437019 123.018189 
L 127.870885 131.76842 
L 130.304751 127.78999 
L 132.738617 140.441069 
L 135.172483 141.977343 
L 137.606349 146.914788 
L 140.040215 147.562463 
L 142.474081 146.919678 
L 144.907947 146.803061 
L 147.341813 146.83786 
L 149.775679 145.602589 
L 152.209545 144.139488 
L 154.643411 140.604612 
L 157.077277 139.560663 
L 159.511143 129.756299 
L 161.945009 130.38265 
L 164.378875 112.337765 
L 166.812741 117.666198 
L 169.246607 115.697847 
L 171.680473 104.111033 
L 174.114339 81.274008 
L 176.548205 79.513672 
L 178.982071 74.494229 
L 181.415937 84.115867 
L 183.849803 84.5125 
L 186.283669 39.278629 
L 188.717535 26.323687 
L 191.151401 26.377151 
L 193.585267 43.887067 
L 196.019133 56.425902 
L 198.452999 113.462923 
L 200.886865 130.873005 
L 203.32073 114.751459 
L 205.754596 114.398147 
L 208.188462 146.751289 
L 210.622328 150.746731 
L 213.056194 150.647672 
L 215.49006 151.161861 
L 217.923926 150.997194 
L 220.357792 151.163902 
L 222.791658 151.174878 
L 225.225524 151.388976 
L 227.65939 151.202003 
L 230.093256 150.897257 
L 232.527122 149.904311 
L 234.960988 148.620045 
L 237.394854 148.909652 
L 239.82872 148.143384 
L 242.262586 146.047387 
L 244.696452 147.657106 
L 247.130318 145.544507 
L 249.564184 146.148728 
L 251.99805 142.671982 
L 254.431916 145.24374 
L 256.865782 145.48159 
L 259.299648 142.245817 
L 261.733514 138.187386 
L 264.16738 138.050101 
L 266.601246 135.539744 
L 269.035112 134.638642 
L 271.468978 130.976869 
L 273.902844 130.897025 
L 276.33671 133.934882 
L 278.770576 129.941787 
L 281.204442 120.73773 
L 283.638308 124.878679 
L 286.072174 127.371618 
L 288.50604 76.382355 
L 290.939906 41.382277 
L 293.373772 33.332345 
L 295.807638 27.548321 
L 298.241504 23.598397 
L 300.67537 29.056531 
L 303.109236 28.050465 
L 305.543102 34.009034 
L 307.976968 30.52402 
L 310.410834 30.317388 
L 312.8447 28.082409 
L 315.278566 26.751386 
L 317.712432 24.657998 
L 320.146298 24.086383 
L 322.580164 23.827706 
L 325.01403 22.749908 
L 327.447896 23.267404 
L 329.881762 23.156365 
L 332.315628 22.529413 
L 334.749494 22.929687 
L 337.18336 24.113377 
L 339.617226 25.766835 
L 342.051092 24.269082 
L 344.484958 24.635196 
L 346.918824 26.786971 
L 349.35269 26.740443 
L 351.786556 25.544512 
L 354.220422 25.830374 
L 356.654288 29.569442 
L 359.088154 29.830101 
L 361.52202 29.554357 
L 363.955886 35.533966 
L 366.389752 37.695805 
L 371.257484 40.128976 
L 373.69135 44.635302 
L 376.125216 54.407403 
L 378.559082 50.17091 
L 380.992948 40.602878 
L 383.426814 43.233015 
L 385.86068 41.64964 
L 388.294546 31.911018 
L 390.728412 34.536479 
L 393.162278 35.413529 
L 395.596144 34.897605 
L 398.03001 41.88731 
L 400.463876 44.718815 
L 402.897742 45.121397 
L 405.331608 49.860509 
L 407.765474 49.951878 
L 410.19934 63.967623 
L 412.633206 68.635666 
L 415.067072 69.516482 
L 417.500938 70.754803 
L 419.934804 116.154061 
L 422.36867 141.678027 
L 424.802536 149.648336 
L 427.236402 146.263319 
L 429.670268 139.267373 
L 432.104134 130.971245 
L 434.538 127.82189 
L 436.971866 137.427673 
L 439.405732 133.371137 
L 441.839598 131.242011 
L 444.273464 125.783798 
L 446.70733 119.340373 
L 449.141196 108.700137 
L 451.575062 115.437738 
L 456.442794 88.682496 
L 458.87666 76.188062 
L 461.310526 104.297175 
L 463.744392 130.053786 
L 466.178258 140.030191 
L 468.612124 145.255217 
L 471.04599 139.868668 
L 473.479856 149.04024 
L 475.913722 146.90868 
L 478.347588 148.259962 
L 480.781454 147.799959 
L 483.21532 147.645039 
L 485.649186 145.309446 
L 488.083052 141.094906 
L 490.516918 143.321371 
L 492.950784 144.727564 
L 495.38465 147.839255 
L 497.818516 147.247472 
L 500.252382 129.864488 
L 502.686248 136.70449 
L 505.120114 132.030847 
L 507.55398 137.212702 
L 509.987846 129.023247 
L 512.421712 138.757648 
L 514.855578 138.759608 
L 517.289444 106.11006 
L 519.72331 80.176262 
L 522.157176 76.626171 
L 524.591042 66.846614 
L 527.024908 62.199556 
L 529.458774 74.802252 
L 531.89264 79.229059 
L 536.760372 55.819839 
L 539.194238 35.501307 
L 541.628104 25.970083 
L 544.06197 25.775376 
L 546.495836 27.169611 
L 548.929702 30.663515 
L 553.797434 41.544319 
L 556.2313 45.020423 
L 558.665166 85.123682 
L 561.099032 96.39759 
L 563.532898 94.999363 
L 565.966764 81.922287 
L 568.40063 103.115951 
L 570.834496 122.188256 
L 573.268362 103.257662 
L 575.702228 54.422336 
L 578.136094 38.387258 
L 580.56996 73.632773 
L 583.003826 101.902451 
L 585.437692 127.734154 
L 587.871558 99.60941 
L 590.305424 81.125153 
L 592.73929 60.313572 
L 595.173156 60.479074 
L 597.607022 103.613625 
L 600.040888 118.510282 
L 602.474754 78.768125 
L 604.90862 67.833601 
L 607.342486 80.681755 
L 609.776352 109.095399 
L 612.210218 112.879559 
L 614.644084 64.259846 
L 617.07795 52.235033 
L 619.511816 102.617925 
L 621.945682 104.236665 
L 624.379548 76.97117 
L 626.813414 65.819395 
L 629.24728 98.357734 
L 631.681146 109.07514 
L 634.115012 76.654517 
L 636.548878 69.400568 
L 638.982744 91.910696 
L 641.41661 106.982926 
L 643.850476 77.318645 
L 646.284342 57.767191 
L 648.718208 87.462625 
L 651.152074 106.442322 
L 653.58594 91.931535 
L 656.019806 62.759077 
L 658.453672 69.188803 
L 660.887538 108.349354 
L 663.321404 106.459645 
L 665.75527 61.700046 
L 668.189136 48.669156 
L 670.623002 100.737009 
L 673.056868 99.636965 
L 675.490734 68.348439 
L 677.9246 70.904954 
L 680.358466 90.00748 
L 682.792332 87.995244 
L 685.226198 62.990579 
L 687.660064 105.053845 
L 690.09393 118.906479 
L 692.527796 86.706385 
L 694.961662 77.379456 
L 697.395528 74.455674 
L 699.829394 99.95245 
L 702.26326 114.849547 
L 704.697126 99.993004 
L 707.130992 57.78486 
L 709.564858 46.532622 
L 711.998724 102.608224 
L 714.43259 109.683189 
L 716.866456 75.414638 
L 719.300322 73.914354 
L 721.734188 91.19747 
L 724.168054 95.720809 
L 726.60192 62.131481 
L 729.035786 51.928532 
L 731.469652 114.543289 
L 733.903518 113.234324 
L 736.337384 81.711222 
L 738.77125 86.97726 
L 741.205116 118.525728 
L 746.072848 58.397221 
L 748.506714 62.031145 
L 750.94058 116.594335 
L 753.374446 121.98599 
L 755.808312 79.484303 
L 758.242178 101.853628 
L 760.676044 79.691166 
L 763.10991 70.389336 
L 765.543776 134.936468 
L 767.977642 138.142681 
L 770.411508 120.42525 
L 772.845374 126.827062 
L 775.27924 141.415895 
L 777.713106 147.020658 
L 780.146972 148.064612 
L 782.580838 148.79232 
L 785.014704 146.52782 
L 787.44857 148.670693 
L 789.882436 149.86191 
L 792.316302 149.479477 
L 797.184034 148.407006 
L 799.6179 149.457619 
L 802.051766 148.449489 
L 804.485632 149.143829 
L 806.919498 149.349309 
L 809.353364 149.953256 
L 811.78723 149.262448 
L 811.78723 149.262448 
" clip-path="url(#p18a09c9be3)" style="fill: none; stroke: #4682b4; stroke-width: 2; stroke-linecap: round"/>
   </g>
   <g id="line2d_22">
    <path d="M 47.675 85.836108 
L 848.173526 85.836108 
" clip-path="url(#p18a09c9be3)" style="fill: none; stroke-dasharray: 3.7,1.6; stroke-dashoffset: 0; stroke: #000000; stroke-opacity: 0.3"/>
   </g>
   <g id="patch_3">
    <path d="M 47.675 158.241591 
L 47.675 13.368864 
" style="fill: none"/>
   </g>
   <g id="patch_4">
    <path d="M 848.173526 158.241591 
L 848.173526 13.368864 
" style="fill: none"/>
   </g>
   <g id="patch_5">
    <path d="M 47.675 158.241591 
L 848.173526 158.241591 
" style="fill: none"/>
   </g>
   <g id="patch_6">
    <path d="M 47.675 13.368864 
L 848.173526 13.368864 
" style="fill: none"/>
   </g>
  </g>
 </g>
 <defs>
  <clipPath id="p18a09c9be3">
   <rect x="47.675" y="13.368864" width="800.498526" height="144.872727"/>
  </clipPath>
 </defs>
</svg>
