<?xml version="1.0" encoding="utf-8" standalone="no"?>
<!DOCTYPE svg PUBLIC "-//W3C//DTD SVG 1.1//EN"
  "http://www.w3.org/Graphics/SVG/1.1/DTD/svg11.dtd">
<svg xmlns:xlink="http://www.w3.org/1999/xlink" width="854.585146pt" height="270.077056pt" viewBox="0 0 854.585146 270.077056" xmlns="http://www.w3.org/2000/svg" version="1.1">
 <metadata>
  <rdf:RDF xmlns:dc="http://purl.org/dc/elements/1.1/" xmlns:cc="http://creativecommons.org/ns#" xmlns:rdf="http://www.w3.org/1999/02/22-rdf-syntax-ns#">
   <cc:Work>
    <dc:type rdf:resource="http://purl.org/dc/dcmitype/StillImage"/>
    <dc:date>2024-05-23T12:39:17.206620</dc:date>
    <dc:format>image/svg+xml</dc:format>
    <dc:creator>
     <cc:Agent>
      <dc:title>Matplotlib v3.7.1, https://matplotlib.org/</dc:title>
     </cc:Agent>
    </dc:creator>
   </cc:Work>
  </rdf:RDF>
 </metadata>
 <defs>
  <style type="text/css">*{stroke-linejoin: round; stroke-linecap: butt}</style>
 </defs>
 <g id="figure_1">
  <g id="patch_1">
   <path d="M 0 270.077056 
L 854.585146 270.077056 
L 854.585146 0 
L 0 0 
z
" style="fill: #ffffff"/>
  </g>
  <g id="axes_1">
   <g id="patch_2">
    <path d="M 42.955 194.659554 
L 847.385146 194.659554 
L 847.385146 10.700168 
L 42.955 10.700168 
z
" style="fill: #eaeaf2"/>
   </g>
   <g id="matplotlib.axis_1">
    <g id="xtick_1">
     <g id="line2d_1">
      <path d="M 79.520007 194.659554 
L 79.520007 10.700168 
" clip-path="url(#pfbfe69c3f7)" style="fill: none; stroke: #ffffff; stroke-linecap: round"/>
     </g>
     <g id="line2d_2"/>
     <g id="text_1">
      <!-- 0 -->
      <g style="fill: #262626" transform="translate(76.183444 210.355804) scale(0.12 -0.12)">
       <defs>
        <path id="LiberationSans-30" d="M 3309 2203 
Q 3309 1100 2920 518 
Q 2531 -63 1772 -63 
Q 1013 -63 631 515 
Q 250 1094 250 2203 
Q 250 3338 620 3903 
Q 991 4469 1791 4469 
Q 2569 4469 2939 3897 
Q 3309 3325 3309 2203 
z
M 2738 2203 
Q 2738 3156 2517 3584 
Q 2297 4013 1791 4013 
Q 1272 4013 1045 3591 
Q 819 3169 819 2203 
Q 819 1266 1048 831 
Q 1278 397 1778 397 
Q 2275 397 2506 840 
Q 2738 1284 2738 2203 
z
" transform="scale(0.015625)"/>
       </defs>
       <use xlink:href="#LiberationSans-30"/>
      </g>
     </g>
    </g>
    <g id="xtick_2">
     <g id="line2d_3">
      <path d="M 177.3528 194.659554 
L 177.3528 10.700168 
" clip-path="url(#pfbfe69c3f7)" style="fill: none; stroke: #ffffff; stroke-linecap: round"/>
     </g>
     <g id="line2d_4"/>
     <g id="text_2">
      <!-- 1 -->
      <g style="fill: #262626" transform="translate(174.016238 210.355804) scale(0.12 -0.12)">
       <defs>
        <path id="LiberationSans-31" d="M 488 0 
L 488 478 
L 1609 478 
L 1609 3866 
L 616 3156 
L 616 3688 
L 1656 4403 
L 2175 4403 
L 2175 478 
L 3247 478 
L 3247 0 
L 488 0 
z
" transform="scale(0.015625)"/>
       </defs>
       <use xlink:href="#LiberationSans-31"/>
      </g>
     </g>
    </g>
    <g id="xtick_3">
     <g id="line2d_5">
      <path d="M 275.185594 194.659554 
L 275.185594 10.700168 
" clip-path="url(#pfbfe69c3f7)" style="fill: none; stroke: #ffffff; stroke-linecap: round"/>
     </g>
     <g id="line2d_6"/>
     <g id="text_3">
      <!-- 2 -->
      <g style="fill: #262626" transform="translate(271.849032 210.355804) scale(0.12 -0.12)">
       <defs>
        <path id="LiberationSans-32" d="M 322 0 
L 322 397 
Q 481 763 711 1042 
Q 941 1322 1194 1548 
Q 1447 1775 1695 1969 
Q 1944 2163 2144 2356 
Q 2344 2550 2467 2762 
Q 2591 2975 2591 3244 
Q 2591 3606 2378 3806 
Q 2166 4006 1788 4006 
Q 1428 4006 1195 3811 
Q 963 3616 922 3263 
L 347 3316 
Q 409 3844 795 4156 
Q 1181 4469 1788 4469 
Q 2453 4469 2811 4155 
Q 3169 3841 3169 3263 
Q 3169 3006 3051 2753 
Q 2934 2500 2703 2247 
Q 2472 1994 1819 1463 
Q 1459 1169 1246 933 
Q 1034 697 941 478 
L 3238 478 
L 3238 0 
L 322 0 
z
" transform="scale(0.015625)"/>
       </defs>
       <use xlink:href="#LiberationSans-32"/>
      </g>
     </g>
    </g>
    <g id="xtick_4">
     <g id="line2d_7">
      <path d="M 373.018388 194.659554 
L 373.018388 10.700168 
" clip-path="url(#pfbfe69c3f7)" style="fill: none; stroke: #ffffff; stroke-linecap: round"/>
     </g>
     <g id="line2d_8"/>
     <g id="text_4">
      <!-- 3 -->
      <g style="fill: #262626" transform="translate(369.681825 210.355804) scale(0.12 -0.12)">
       <defs>
        <path id="LiberationSans-33" d="M 3278 1216 
Q 3278 606 2890 271 
Q 2503 -63 1784 -63 
Q 1116 -63 717 239 
Q 319 541 244 1131 
L 825 1184 
Q 938 403 1784 403 
Q 2209 403 2451 612 
Q 2694 822 2694 1234 
Q 2694 1594 2417 1795 
Q 2141 1997 1619 1997 
L 1300 1997 
L 1300 2484 
L 1606 2484 
Q 2069 2484 2323 2686 
Q 2578 2888 2578 3244 
Q 2578 3597 2370 3801 
Q 2163 4006 1753 4006 
Q 1381 4006 1151 3815 
Q 922 3625 884 3278 
L 319 3322 
Q 381 3863 767 4166 
Q 1153 4469 1759 4469 
Q 2422 4469 2789 4161 
Q 3156 3853 3156 3303 
Q 3156 2881 2920 2617 
Q 2684 2353 2234 2259 
L 2234 2247 
Q 2728 2194 3003 1916 
Q 3278 1638 3278 1216 
z
" transform="scale(0.015625)"/>
       </defs>
       <use xlink:href="#LiberationSans-33"/>
      </g>
     </g>
    </g>
    <g id="xtick_5">
     <g id="line2d_9">
      <path d="M 470.851182 194.659554 
L 470.851182 10.700168 
" clip-path="url(#pfbfe69c3f7)" style="fill: none; stroke: #ffffff; stroke-linecap: round"/>
     </g>
     <g id="line2d_10"/>
     <g id="text_5">
      <!-- 4 -->
      <g style="fill: #262626" transform="translate(467.514619 210.355804) scale(0.12 -0.12)">
       <defs>
        <path id="LiberationSans-34" d="M 2753 997 
L 2753 0 
L 2222 0 
L 2222 997 
L 147 997 
L 147 1434 
L 2163 4403 
L 2753 4403 
L 2753 1441 
L 3372 1441 
L 3372 997 
L 2753 997 
z
M 2222 3769 
Q 2216 3750 2134 3603 
Q 2053 3456 2013 3397 
L 884 1734 
L 716 1503 
L 666 1441 
L 2222 1441 
L 2222 3769 
z
" transform="scale(0.015625)"/>
       </defs>
       <use xlink:href="#LiberationSans-34"/>
      </g>
     </g>
    </g>
    <g id="xtick_6">
     <g id="line2d_11">
      <path d="M 568.683975 194.659554 
L 568.683975 10.700168 
" clip-path="url(#pfbfe69c3f7)" style="fill: none; stroke: #ffffff; stroke-linecap: round"/>
     </g>
     <g id="line2d_12"/>
     <g id="text_6">
      <!-- 5 -->
      <g style="fill: #262626" transform="translate(565.347413 210.355804) scale(0.12 -0.12)">
       <defs>
        <path id="LiberationSans-35" d="M 3291 1434 
Q 3291 738 2877 337 
Q 2463 -63 1728 -63 
Q 1113 -63 734 206 
Q 356 475 256 984 
L 825 1050 
Q 1003 397 1741 397 
Q 2194 397 2450 670 
Q 2706 944 2706 1422 
Q 2706 1838 2448 2094 
Q 2191 2350 1753 2350 
Q 1525 2350 1328 2278 
Q 1131 2206 934 2034 
L 384 2034 
L 531 4403 
L 3034 4403 
L 3034 3925 
L 1044 3925 
L 959 2528 
Q 1325 2809 1869 2809 
Q 2519 2809 2905 2428 
Q 3291 2047 3291 1434 
z
" transform="scale(0.015625)"/>
       </defs>
       <use xlink:href="#LiberationSans-35"/>
      </g>
     </g>
    </g>
    <g id="xtick_7">
     <g id="line2d_13">
      <path d="M 666.516769 194.659554 
L 666.516769 10.700168 
" clip-path="url(#pfbfe69c3f7)" style="fill: none; stroke: #ffffff; stroke-linecap: round"/>
     </g>
     <g id="line2d_14"/>
     <g id="text_7">
      <!-- 6 -->
      <g style="fill: #262626" transform="translate(663.180207 210.355804) scale(0.12 -0.12)">
       <defs>
        <path id="LiberationSans-36" d="M 3278 1441 
Q 3278 744 2900 340 
Q 2522 -63 1856 -63 
Q 1113 -63 719 490 
Q 325 1044 325 2100 
Q 325 3244 734 3856 
Q 1144 4469 1900 4469 
Q 2897 4469 3156 3572 
L 2619 3475 
Q 2453 4013 1894 4013 
Q 1413 4013 1148 3564 
Q 884 3116 884 2266 
Q 1038 2550 1316 2698 
Q 1594 2847 1953 2847 
Q 2563 2847 2920 2465 
Q 3278 2084 3278 1441 
z
M 2706 1416 
Q 2706 1894 2472 2153 
Q 2238 2413 1819 2413 
Q 1425 2413 1183 2183 
Q 941 1953 941 1550 
Q 941 1041 1192 716 
Q 1444 391 1838 391 
Q 2244 391 2475 664 
Q 2706 938 2706 1416 
z
" transform="scale(0.015625)"/>
       </defs>
       <use xlink:href="#LiberationSans-36"/>
      </g>
     </g>
    </g>
    <g id="xtick_8">
     <g id="line2d_15">
      <path d="M 764.349563 194.659554 
L 764.349563 10.700168 
" clip-path="url(#pfbfe69c3f7)" style="fill: none; stroke: #ffffff; stroke-linecap: round"/>
     </g>
     <g id="line2d_16"/>
     <g id="text_8">
      <!-- 7 -->
      <g style="fill: #262626" transform="translate(761.013 210.355804) scale(0.12 -0.12)">
       <defs>
        <path id="LiberationSans-37" d="M 3238 3947 
Q 2563 2916 2284 2331 
Q 2006 1747 1867 1178 
Q 1728 609 1728 0 
L 1141 0 
Q 1141 844 1498 1776 
Q 1856 2709 2694 3925 
L 328 3925 
L 328 4403 
L 3238 4403 
L 3238 3947 
z
" transform="scale(0.015625)"/>
       </defs>
       <use xlink:href="#LiberationSans-37"/>
      </g>
     </g>
    </g>
    <g id="text_9">
     <!-- $\mathrm{Time}\, (s)$ -->
     <g style="fill: #262626" transform="translate(422.140073 226.991429) scale(0.14 -0.14)">
      <defs>
       <path id="STIXGeneral-Regular-54" d="M 3795 3149 
L 3642 3149 
Q 3539 3674 3353 3821 
Q 3168 3968 2656 3968 
L 2278 3968 
L 2278 710 
Q 2278 346 2387 243 
Q 2496 141 2893 122 
L 2893 0 
L 1024 0 
L 1024 122 
Q 1427 147 1526 256 
Q 1626 365 1626 787 
L 1626 3968 
L 1242 3968 
Q 723 3968 540 3817 
Q 358 3667 262 3149 
L 109 3149 
L 154 4237 
L 3750 4237 
L 3795 3149 
z
" transform="scale(0.015625)"/>
       <path id="STIXGeneral-Regular-69" d="M 1152 4045 
Q 1152 3904 1056 3811 
Q 960 3718 819 3718 
Q 685 3718 592 3811 
Q 499 3904 499 4045 
Q 499 4179 595 4275 
Q 691 4371 826 4371 
Q 966 4371 1059 4275 
Q 1152 4179 1152 4045 
z
M 1619 0 
L 102 0 
L 102 96 
Q 435 115 521 211 
Q 608 307 608 666 
L 608 2118 
Q 608 2342 563 2432 
Q 518 2522 397 2522 
Q 243 2522 128 2490 
L 128 2592 
L 1120 2944 
L 1146 2918 
L 1146 672 
Q 1146 314 1226 218 
Q 1306 122 1619 96 
L 1619 0 
z
" transform="scale(0.015625)"/>
       <path id="STIXGeneral-Regular-6d" d="M 4960 0 
L 3565 0 
L 3565 96 
Q 3834 122 3907 208 
Q 3981 294 3981 576 
L 3981 1894 
Q 3981 2278 3869 2444 
Q 3757 2611 3488 2611 
Q 3264 2611 3107 2521 
Q 2950 2432 2803 2221 
L 2803 608 
Q 2803 301 2896 201 
Q 2989 102 3264 96 
L 3264 0 
L 1830 0 
L 1830 96 
Q 2112 115 2189 188 
Q 2266 262 2266 550 
L 2266 1901 
Q 2266 2611 1850 2611 
Q 1670 2611 1468 2531 
Q 1267 2451 1171 2336 
Q 1088 2240 1088 2227 
L 1088 448 
Q 1088 243 1177 176 
Q 1267 109 1523 96 
L 1523 0 
L 102 0 
L 102 96 
Q 371 102 460 195 
Q 550 288 550 563 
L 550 2150 
Q 550 2387 499 2480 
Q 448 2573 326 2573 
Q 230 2573 122 2547 
L 122 2656 
Q 557 2778 1011 2944 
L 1062 2925 
L 1062 2451 
L 1075 2451 
Q 1363 2752 1584 2848 
Q 1805 2944 2054 2944 
Q 2560 2944 2733 2406 
Q 3232 2944 3776 2944 
Q 4518 2944 4518 1792 
L 4518 493 
Q 4518 282 4582 202 
Q 4646 122 4794 109 
L 4960 96 
L 4960 0 
z
" transform="scale(0.015625)"/>
       <path id="STIXGeneral-Regular-65" d="M 2611 1050 
L 2714 1005 
Q 2330 -64 1376 -64 
Q 813 -64 486 329 
Q 160 723 160 1389 
Q 160 2074 525 2509 
Q 890 2944 1485 2944 
Q 2061 2944 2374 2502 
Q 2560 2246 2592 1773 
L 621 1773 
Q 646 1370 700 1158 
Q 755 947 915 730 
Q 1184 378 1626 378 
Q 1939 378 2153 531 
Q 2368 685 2611 1050 
z
M 634 1978 
L 1939 1978 
Q 1882 2381 1750 2547 
Q 1619 2714 1312 2714 
Q 1043 2714 864 2525 
Q 685 2336 634 1978 
z
" transform="scale(0.015625)"/>
       <path id="STIXGeneral-Regular-28" d="M 1946 -1030 
L 1869 -1133 
Q 1126 -710 716 32 
Q 307 774 307 1613 
Q 307 3386 1888 4326 
L 1946 4224 
Q 1293 3667 1075 3126 
Q 858 2586 858 1632 
Q 858 685 1082 96 
Q 1306 -493 1946 -1030 
z
" transform="scale(0.015625)"/>
       <path id="STIXGeneral-Italic-73" d="M 2342 2829 
L 2214 1933 
L 2112 1933 
Q 2022 2675 1542 2675 
Q 1370 2675 1267 2579 
Q 1165 2483 1165 2310 
Q 1165 2067 1510 1658 
Q 1946 1152 1946 787 
Q 1946 397 1686 163 
Q 1427 -70 1024 -70 
Q 838 -70 672 -6 
Q 538 51 390 51 
Q 262 51 205 -83 
L 102 -83 
L 230 934 
L 333 934 
Q 461 64 973 64 
Q 1203 64 1331 192 
Q 1459 320 1459 557 
Q 1459 845 1101 1293 
Q 698 1798 698 2131 
Q 698 2451 909 2636 
Q 1120 2822 1472 2822 
Q 1600 2822 1830 2758 
Q 1971 2714 2061 2714 
Q 2189 2714 2253 2829 
L 2342 2829 
z
" transform="scale(0.015625)"/>
       <path id="STIXGeneral-Regular-29" d="M 186 4224 
L 262 4326 
Q 992 3891 1408 3148 
Q 1824 2406 1824 1581 
Q 1824 -166 243 -1133 
L 186 -1030 
Q 845 -486 1059 54 
Q 1274 595 1274 1562 
Q 1274 2534 1059 3120 
Q 845 3706 186 4224 
z
" transform="scale(0.015625)"/>
      </defs>
      <use xlink:href="#STIXGeneral-Regular-54" transform="translate(0 0.703125)"/>
      <use xlink:href="#STIXGeneral-Regular-69" transform="translate(61.099991 0.703125)"/>
      <use xlink:href="#STIXGeneral-Regular-6d" transform="translate(88.899979 0.703125)"/>
      <use xlink:href="#STIXGeneral-Regular-65" transform="translate(166.699966 0.703125)"/>
      <use xlink:href="#STIXGeneral-Regular-28" transform="translate(223.133531 0.703125)"/>
      <use xlink:href="#STIXGeneral-Italic-73" transform="translate(256.433519 0.703125)"/>
      <use xlink:href="#STIXGeneral-Regular-29" transform="translate(295.333513 0.703125)"/>
     </g>
    </g>
   </g>
   <g id="matplotlib.axis_2">
    <g id="ytick_1">
     <g id="line2d_17"/>
     <g id="text_10">
      <!-- -$\frac{\pi}{4}$ -->
      <g style="fill: #262626" transform="translate(26.115 198.238145) scale(0.12 -0.12)">
       <defs>
        <path id="LiberationSans-2d" d="M 284 1450 
L 284 1950 
L 1847 1950 
L 1847 1450 
L 284 1450 
z
" transform="scale(0.015625)"/>
        <path id="STIXGeneral-Italic-3c0" d="M 3430 2739 
L 3296 2266 
L 2643 2266 
Q 2624 2195 2502 1782 
Q 2381 1370 2297 1072 
Q 2214 774 2214 717 
Q 2214 448 2413 448 
Q 2694 448 2867 838 
L 2970 838 
Q 2886 486 2652 208 
Q 2419 -70 2093 -70 
Q 1901 -70 1808 67 
Q 1715 205 1715 410 
Q 1715 627 1824 922 
L 2310 2266 
L 1645 2266 
Q 1568 2061 1401 1469 
Q 1235 877 1068 512 
Q 902 147 672 -38 
Q 563 -115 442 -115 
Q 314 -115 218 -32 
Q 122 51 122 166 
Q 122 429 314 480 
Q 634 563 774 928 
L 1299 2266 
L 1261 2266 
Q 973 2266 819 2208 
Q 666 2150 474 1914 
L 371 1914 
Q 640 2362 931 2550 
Q 1222 2739 1696 2739 
L 3430 2739 
z
" transform="scale(0.015625)"/>
        <path id="STIXGeneral-Regular-34" d="M 3027 1069 
L 2368 1069 
L 2368 0 
L 1869 0 
L 1869 1069 
L 77 1069 
L 77 1478 
L 2086 4326 
L 2368 4326 
L 2368 1478 
L 3027 1478 
L 3027 1069 
z
M 1869 1478 
L 1869 3674 
L 333 1478 
L 1869 1478 
z
" transform="scale(0.015625)"/>
       </defs>
       <use xlink:href="#LiberationSans-2d" transform="translate(0 0.9875)"/>
       <use xlink:href="#STIXGeneral-Italic-3c0" transform="translate(33.300781 40.042187) scale(0.7)"/>
       <use xlink:href="#STIXGeneral-Regular-34" transform="translate(33.300781 -39.78125) scale(0.7)"/>
       <path d="M 33.300781 13.784375 
L 33.300781 20.034375 
L 68.580777 20.034375 
L 68.580777 13.784375 
L 33.300781 13.784375 
z
"/>
      </g>
     </g>
    </g>
    <g id="ytick_2">
     <g id="line2d_18"/>
     <g id="text_11">
      <!-- 0 -->
      <g style="fill: #262626" transform="translate(29.281875 107.067198) scale(0.12 -0.12)">
       <use xlink:href="#LiberationSans-30"/>
      </g>
     </g>
    </g>
    <g id="ytick_3">
     <g id="line2d_19"/>
     <g id="text_12">
      <!-- $\frac{\pi}{4}$ -->
      <g style="fill: #262626" transform="translate(30.195 15.6) scale(0.12 -0.12)">
       <use xlink:href="#STIXGeneral-Italic-3c0" transform="translate(0 40.042187) scale(0.7)"/>
       <use xlink:href="#STIXGeneral-Regular-34" transform="translate(0 -39.78125) scale(0.7)"/>
       <path d="M 0 13.784375 
L 0 20.034375 
L 35.279996 20.034375 
L 35.279996 13.784375 
L 0 13.784375 
z
"/>
      </g>
     </g>
    </g>
    <g id="text_13">
     <!-- $\delta_d (\mathrm{rad})$ -->
     <g style="fill: #262626" transform="translate(18.795 125.079861) rotate(-90) scale(0.16 -0.16)">
      <defs>
       <path id="STIXGeneral-Italic-3b4" d="M 2944 3866 
Q 2944 3744 2883 3651 
Q 2822 3558 2694 3558 
Q 2579 3558 2508 3606 
Q 2438 3654 2403 3721 
Q 2368 3789 2323 3856 
Q 2278 3923 2179 3971 
Q 2080 4019 1920 4019 
Q 1715 4019 1516 3916 
Q 1318 3814 1318 3648 
Q 1318 3482 1484 3328 
Q 1651 3174 1942 2985 
Q 2234 2797 2381 2656 
Q 2605 2445 2701 2249 
Q 2797 2054 2797 1709 
Q 2797 1037 2313 483 
Q 1830 -70 1101 -70 
Q 646 -70 400 166 
Q 154 403 154 838 
Q 154 1453 640 1981 
Q 1126 2509 1741 2566 
Q 1690 2618 1526 2771 
Q 1363 2925 1299 2998 
Q 1235 3072 1164 3203 
Q 1094 3334 1094 3456 
Q 1094 3744 1286 3939 
Q 1478 4134 1712 4204 
Q 1946 4275 2176 4275 
Q 2458 4275 2701 4169 
Q 2944 4064 2944 3866 
z
M 2278 1702 
Q 2278 2086 2156 2259 
Q 2035 2432 1850 2432 
Q 1427 2432 1059 1869 
Q 691 1306 691 646 
Q 691 384 828 224 
Q 966 64 1190 64 
Q 1466 64 1728 371 
Q 1990 678 2134 1056 
Q 2278 1434 2278 1702 
z
" transform="scale(0.015625)"/>
       <path id="STIXGeneral-Italic-64" d="M 3334 4371 
L 3373 4333 
L 3123 3360 
L 2739 1958 
Q 2323 429 2323 384 
Q 2323 256 2438 256 
Q 2522 256 2614 336 
Q 2707 416 2963 710 
L 3040 646 
Q 2547 -83 2099 -83 
Q 1978 -83 1907 -6 
Q 1837 70 1837 205 
Q 1837 397 1920 774 
Q 1645 307 1379 118 
Q 1114 -70 781 -70 
Q 461 -70 278 125 
Q 96 320 96 678 
Q 96 1440 713 2131 
Q 1331 2822 1965 2822 
Q 2163 2822 2256 2732 
Q 2349 2643 2381 2451 
L 2387 2451 
L 2675 3494 
Q 2765 3808 2765 3949 
Q 2765 4051 2694 4076 
Q 2624 4102 2355 4115 
L 2355 4224 
Q 2848 4269 3334 4371 
z
M 2278 2310 
Q 2278 2477 2185 2576 
Q 2093 2675 1978 2675 
Q 1677 2675 1395 2381 
Q 1075 2042 864 1571 
Q 653 1101 653 704 
Q 653 486 752 361 
Q 851 237 1024 237 
Q 1312 237 1606 550 
Q 1901 864 2089 1350 
Q 2278 1837 2278 2310 
z
" transform="scale(0.015625)"/>
       <path id="STIXGeneral-Regular-72" d="M 1024 2931 
L 1024 2342 
Q 1267 2688 1430 2816 
Q 1594 2944 1792 2944 
Q 1958 2944 2051 2854 
Q 2144 2765 2144 2605 
Q 2144 2470 2077 2393 
Q 2010 2317 1894 2317 
Q 1773 2317 1638 2445 
Q 1536 2541 1472 2541 
Q 1338 2541 1181 2355 
Q 1024 2170 1024 2016 
L 1024 576 
Q 1024 301 1133 205 
Q 1242 109 1568 96 
L 1568 0 
L 32 0 
L 32 96 
Q 339 154 412 224 
Q 486 294 486 538 
L 486 2138 
Q 486 2349 438 2435 
Q 390 2522 269 2522 
Q 166 2522 45 2496 
L 45 2598 
Q 448 2726 992 2944 
L 1024 2931 
z
" transform="scale(0.015625)"/>
       <path id="STIXGeneral-Regular-61" d="M 2829 422 
L 2829 243 
Q 2586 -64 2253 -64 
Q 1888 -64 1843 403 
L 1837 403 
Q 1427 -64 909 -64 
Q 608 -64 422 112 
Q 237 288 237 602 
Q 237 1050 685 1350 
Q 992 1555 1837 1869 
L 1837 2214 
Q 1837 2502 1699 2646 
Q 1562 2790 1338 2790 
Q 1146 2790 1018 2697 
Q 890 2605 890 2477 
Q 890 2419 909 2348 
Q 928 2278 928 2208 
Q 928 2112 841 2029 
Q 755 1946 634 1946 
Q 525 1946 441 2029 
Q 358 2112 358 2240 
Q 358 2547 685 2752 
Q 986 2944 1421 2944 
Q 1939 2944 2176 2656 
Q 2291 2522 2323 2384 
Q 2355 2246 2355 1946 
L 2355 723 
Q 2355 301 2554 301 
Q 2682 301 2829 422 
z
M 1837 813 
L 1837 1715 
Q 1248 1510 1018 1293 
Q 800 1094 800 800 
Q 800 557 921 432 
Q 1043 307 1242 307 
Q 1453 307 1613 410 
Q 1747 506 1792 589 
Q 1837 672 1837 813 
z
" transform="scale(0.015625)"/>
       <path id="STIXGeneral-Regular-64" d="M 3142 269 
L 2202 -64 
L 2176 -45 
L 2176 365 
Q 1869 -64 1357 -64 
Q 826 -64 499 317 
Q 173 698 173 1312 
Q 173 1990 563 2467 
Q 954 2944 1504 2944 
Q 1850 2944 2176 2669 
L 2176 3667 
Q 2176 3866 2118 3930 
Q 2061 3994 1882 3994 
Q 1792 3994 1741 3987 
L 1741 4090 
Q 2323 4243 2682 4371 
L 2714 4358 
L 2714 730 
Q 2714 506 2768 435 
Q 2822 365 2995 365 
Q 3034 365 3142 371 
L 3142 269 
z
M 2176 653 
L 2176 2125 
Q 2176 2381 1981 2573 
Q 1786 2765 1523 2765 
Q 1158 2765 940 2438 
Q 723 2112 723 1568 
Q 723 979 963 624 
Q 1203 269 1606 269 
Q 1907 269 2080 474 
Q 2176 582 2176 653 
z
" transform="scale(0.015625)"/>
      </defs>
      <use xlink:href="#STIXGeneral-Italic-3b4" transform="translate(0 0.703125)"/>
      <use xlink:href="#STIXGeneral-Italic-64" transform="translate(45.999985 -12.525) scale(0.7)"/>
      <use xlink:href="#STIXGeneral-Regular-28" transform="translate(85.409349 0.703125)"/>
      <use xlink:href="#STIXGeneral-Regular-72" transform="translate(118.709337 0.703125)"/>
      <use xlink:href="#STIXGeneral-Regular-61" transform="translate(152.009325 0.703125)"/>
      <use xlink:href="#STIXGeneral-Regular-64" transform="translate(196.409319 0.703125)"/>
      <use xlink:href="#STIXGeneral-Regular-29" transform="translate(246.409303 0.703125)"/>
     </g>
    </g>
   </g>
   <g id="line2d_20">
    <path d="M 79.520007 45.701752 
L 81.965827 56.367954 
L 84.411646 54.018483 
L 86.857466 58.444111 
L 89.303286 49.34287 
L 91.749106 48.998351 
L 94.194926 70.846442 
L 96.640746 28.681748 
L 99.086565 47.581127 
L 101.532385 186.297764 
L 106.424025 186.194814 
L 108.869845 186.240949 
L 111.315665 27.810797 
L 113.761484 44.638534 
L 116.207304 168.467674 
L 118.653124 184.794181 
L 121.098944 184.157869 
L 123.544764 184.006858 
L 125.990584 181.282115 
L 128.436404 176.443127 
L 130.882223 178.876159 
L 133.328043 179.389784 
L 135.773863 182.813724 
L 138.219683 183.687177 
L 140.665503 184.898128 
L 148.002962 185.461436 
L 150.448782 185.219528 
L 152.894602 185.443023 
L 155.340422 185.014377 
L 157.786242 185.046319 
L 160.232061 184.567179 
L 162.677881 180.986531 
L 165.123701 181.78759 
L 167.569521 173.065966 
L 170.015341 155.381004 
L 172.461161 96.944817 
L 174.906981 33.961517 
L 177.3528 26.2024 
L 179.79862 25.069893 
L 182.24444 23.276298 
L 184.69026 23.666668 
L 187.13608 33.061459 
L 189.5819 102.389873 
L 192.027719 184.509484 
L 194.473539 186.125761 
L 199.365179 186.154979 
L 206.702639 185.812248 
L 209.148458 185.37819 
L 214.040098 185.185347 
L 216.485918 185.38846 
L 223.823377 185.559888 
L 231.160837 185.761622 
L 238.498296 185.868217 
L 240.944116 185.970785 
L 258.064855 185.738267 
L 260.510675 185.476551 
L 262.956495 185.538896 
L 265.402315 185.030199 
L 267.848135 183.695265 
L 272.739774 182.637223 
L 275.185594 170.881357 
L 277.631414 164.601353 
L 280.077234 108.813689 
L 282.523054 35.734584 
L 284.968874 23.857868 
L 287.414693 23.520751 
L 289.860513 23.516322 
L 292.306333 25.436021 
L 294.752153 25.029566 
L 297.197973 22.658019 
L 299.643793 20.616195 
L 302.089612 19.854888 
L 304.535432 19.451164 
L 306.981252 19.174645 
L 311.872892 19.074828 
L 326.547811 19.122196 
L 331.439451 19.346572 
L 333.88527 42.83208 
L 336.33109 24.35556 
L 338.77691 19.562118 
L 341.22273 19.276472 
L 346.11437 19.392901 
L 351.006009 19.539151 
L 353.451829 19.601662 
L 360.789289 20.149668 
L 363.235108 20.569367 
L 365.680928 20.683003 
L 368.126748 21.21701 
L 370.572568 21.217419 
L 373.018388 22.288509 
L 375.464208 24.244412 
L 377.910028 25.824332 
L 380.355847 30.4027 
L 382.801667 40.574633 
L 385.247487 49.018057 
L 387.693307 56.273588 
L 390.139127 82.675778 
L 392.584947 95.694443 
L 395.030766 101.506318 
L 397.476586 114.839646 
L 402.368226 177.717185 
L 404.814046 174.344495 
L 407.259866 145.855297 
L 409.705686 86.436454 
L 412.151505 64.175704 
L 414.597325 120.947974 
L 417.043145 118.455459 
L 419.488965 125.193612 
L 421.934785 157.666789 
L 424.380605 146.913369 
L 426.826424 77.558734 
L 429.272244 44.710786 
L 431.718064 109.116071 
L 434.163884 178.873768 
L 436.609704 183.520905 
L 439.055524 176.692756 
L 441.501343 180.60621 
L 443.947163 182.924886 
L 446.392983 184.060907 
L 448.838803 183.826816 
L 451.284623 183.451526 
L 456.176263 184.92149 
L 458.622082 185.275247 
L 461.067902 185.278636 
L 465.959542 184.958152 
L 468.405362 183.927284 
L 470.851182 182.602239 
L 473.297001 183.022728 
L 475.742821 184.720234 
L 478.188641 185.7237 
L 480.634461 185.760985 
L 483.080281 185.400443 
L 485.526101 184.766307 
L 487.971921 184.980675 
L 490.41774 185.471659 
L 495.30938 185.617008 
L 505.092659 185.72984 
L 507.538479 185.658784 
L 509.984299 185.177232 
L 512.430119 185.140176 
L 514.875939 185.305567 
L 517.321759 185.118692 
L 519.767578 185.184855 
L 522.213398 185.381988 
L 524.659218 185.155776 
L 527.105038 185.168112 
L 529.550858 184.835035 
L 531.996678 184.715362 
L 534.442498 184.847759 
L 536.888317 185.206679 
L 539.334137 184.779738 
L 544.225777 185.511258 
L 546.671597 185.77673 
L 549.117417 185.544046 
L 551.563236 179.552203 
L 554.009056 102.657591 
L 556.454876 32.307775 
L 558.900696 25.513675 
L 561.346516 30.41498 
L 563.792336 31.187784 
L 566.238155 53.17559 
L 568.683975 128.694544 
L 571.129795 179.593611 
L 573.575615 178.56677 
L 576.021435 144.704902 
L 578.467255 124.267761 
L 580.913075 96.906117 
L 583.358894 49.672156 
L 585.804714 56.330912 
L 588.250534 139.104392 
L 590.696354 176.557775 
L 593.142174 150.170434 
L 595.587994 73.095347 
L 598.033813 56.586809 
L 600.479633 160.456867 
L 602.925453 178.711232 
L 605.371273 142.894332 
L 607.817093 93.569203 
L 610.262913 83.959605 
L 612.708733 96.057192 
L 615.154552 157.838289 
L 617.600372 151.645007 
L 620.046192 75.466847 
L 622.492012 50.797979 
L 624.937832 102.745715 
L 627.383652 147.052997 
L 629.829471 150.863395 
L 632.275291 56.991836 
L 634.721111 37.494332 
L 637.166931 73.553256 
L 639.612751 144.964237 
L 642.058571 145.100005 
L 644.50439 39.054896 
L 646.95021 28.878416 
L 649.39603 71.98746 
L 651.84185 96.424143 
L 654.28767 88.39812 
L 656.73349 175.939592 
L 659.17931 152.49427 
L 661.625129 61.696793 
L 664.070949 57.28101 
L 666.516769 167.416958 
L 668.962589 183.993004 
L 671.408409 170.444333 
L 673.854229 144.537775 
L 676.300048 116.499122 
L 678.745868 47.890058 
L 681.191688 35.257448 
L 683.637508 121.062253 
L 686.083328 170.956807 
L 688.529148 169.784701 
L 690.974968 51.822855 
L 693.420787 36.610879 
L 695.866607 93.177796 
L 698.312427 116.10661 
L 700.758247 151.201347 
L 703.204067 86.456417 
L 705.649887 60.665312 
L 708.095706 121.090671 
L 710.541526 160.277857 
L 712.987346 127.775207 
L 715.433166 61.180673 
L 717.878986 52.884857 
L 720.324806 161.443148 
L 722.770625 177.851841 
L 725.216445 115.151809 
L 727.662265 106.286127 
L 730.108085 94.550708 
L 732.553905 76.274982 
L 734.999725 152.578227 
L 737.445545 175.630085 
L 739.891364 117.686482 
L 742.337184 89.421701 
L 744.783004 91.643179 
L 747.228824 127.501457 
L 749.674644 165.443259 
L 752.120464 165.903777 
L 754.566283 100.846738 
L 757.012103 68.558942 
L 759.457923 74.25683 
L 761.903743 150.809737 
L 764.349563 179.928719 
L 766.795383 182.008937 
L 769.241202 180.754179 
L 771.687022 184.53532 
L 776.578662 185.069799 
L 779.024482 185.698605 
L 781.470302 185.929363 
L 788.807761 186.144459 
L 796.145221 186.038328 
L 803.48268 186.018757 
L 810.82014 185.896111 
L 810.82014 185.896111 
" clip-path="url(#pfbfe69c3f7)" style="fill: none; stroke: #e41a1c; stroke-width: 2; stroke-linecap: round"/>
   </g>
   <g id="line2d_21">
    <path d="M 79.520007 89.262267 
L 81.965827 72.196449 
L 84.411646 71.106106 
L 91.749106 79.178723 
L 94.194926 81.863151 
L 96.640746 83.689697 
L 99.086565 99.840837 
L 101.532385 128.773113 
L 103.978205 87.951785 
L 106.424025 54.669772 
L 108.869845 34.867972 
L 111.315665 54.581788 
L 113.761484 166.821715 
L 116.207304 178.943376 
L 118.653124 179.241046 
L 121.098944 181.140356 
L 123.544764 179.665492 
L 125.990584 179.127445 
L 128.436404 178.879042 
L 130.882223 179.516435 
L 133.328043 180.57517 
L 135.773863 180.815824 
L 140.665503 182.10533 
L 143.111323 181.808755 
L 145.557142 182.376499 
L 148.002962 182.502152 
L 150.448782 182.497225 
L 152.894602 182.809587 
L 155.340422 182.626274 
L 157.786242 182.765344 
L 160.232061 182.688674 
L 165.123701 181.990246 
L 167.569521 181.307404 
L 170.015341 180.41544 
L 172.461161 179.092232 
L 174.906981 177.422274 
L 177.3528 176.560297 
L 179.79862 174.587478 
L 184.69026 173.306233 
L 187.13608 171.957133 
L 189.5819 169.520871 
L 192.027719 166.263937 
L 194.473539 162.29861 
L 196.919359 153.722308 
L 201.810999 122.913112 
L 204.256819 112.39725 
L 206.702639 123.752055 
L 209.148458 139.842119 
L 211.594278 149.374757 
L 214.040098 152.061629 
L 216.485918 140.123759 
L 218.931738 120.707906 
L 221.377558 117.52234 
L 223.823377 118.647162 
L 226.269197 114.384144 
L 228.715017 114.475257 
L 231.160837 114.358792 
L 233.606657 105.853174 
L 236.052477 83.803158 
L 238.498296 71.562272 
L 240.944116 74.693897 
L 243.389936 91.238523 
L 245.835756 109.681679 
L 248.281576 132.188627 
L 250.727396 143.008602 
L 253.173216 147.533558 
L 255.619035 149.948357 
L 258.064855 149.313112 
L 260.510675 155.574633 
L 265.402315 143.005303 
L 267.848135 134.690848 
L 270.293954 135.484679 
L 272.739774 132.561366 
L 275.185594 117.846544 
L 277.631414 99.614907 
L 280.077234 86.487483 
L 282.523054 76.321418 
L 284.968874 74.47074 
L 287.414693 95.149793 
L 289.860513 107.23674 
L 292.306333 84.885783 
L 294.752153 48.79346 
L 297.197973 37.292251 
L 299.643793 33.194382 
L 302.089612 31.688796 
L 306.981252 29.934648 
L 309.427072 29.315253 
L 311.872892 29.885859 
L 316.764531 35.022081 
L 319.210351 35.633638 
L 321.656171 35.240704 
L 324.101991 35.402776 
L 326.547811 34.59997 
L 328.993631 35.387689 
L 331.439451 36.717418 
L 333.88527 35.916505 
L 336.33109 33.435189 
L 338.77691 29.291663 
L 341.22273 25.573649 
L 343.66855 23.760282 
L 346.11437 23.076144 
L 348.560189 22.69371 
L 355.897649 22.52258 
L 358.343469 22.632883 
L 360.789289 23.003945 
L 363.235108 23.554272 
L 365.680928 23.798052 
L 370.572568 25.360903 
L 373.018388 26.393122 
L 375.464208 27.137367 
L 377.910028 28.349662 
L 380.355847 30.414752 
L 382.801667 33.35978 
L 387.693307 43.049656 
L 390.139127 45.239425 
L 392.584947 50.832946 
L 395.030766 62.354187 
L 397.476586 68.947319 
L 399.922406 78.033003 
L 402.368226 85.154916 
L 404.814046 111.002321 
L 407.259866 122.279338 
L 409.705686 134.432913 
L 412.151505 132.361115 
L 414.597325 130.989868 
L 417.043145 132.640063 
L 421.934785 140.969477 
L 424.380605 147.487582 
L 426.826424 133.013426 
L 429.272244 82.084225 
L 431.718064 51.000953 
L 434.163884 73.652617 
L 436.609704 111.026681 
L 439.055524 131.224519 
L 441.501343 134.097022 
L 443.947163 133.31245 
L 446.392983 138.130111 
L 451.284623 155.351894 
L 453.730443 163.942864 
L 456.176263 168.251428 
L 458.622082 170.055516 
L 461.067902 172.455193 
L 463.513722 172.863768 
L 465.959542 173.621534 
L 470.851182 169.573777 
L 473.297001 166.428962 
L 475.742821 160.818437 
L 478.188641 151.754121 
L 480.634461 143.758193 
L 483.080281 131.960832 
L 485.526101 122.686446 
L 487.971921 125.428862 
L 490.41774 134.280339 
L 492.86356 146.574076 
L 495.30938 154.884819 
L 497.7552 162.334516 
L 500.20102 169.367518 
L 502.64684 175.156289 
L 505.092659 178.415253 
L 507.538479 181.154723 
L 509.984299 182.516435 
L 512.430119 183.234885 
L 517.321759 183.59445 
L 522.213398 183.535972 
L 529.550858 183.182146 
L 531.996678 183.055203 
L 536.888317 182.290612 
L 539.334137 181.743624 
L 541.779957 181.439246 
L 546.671597 182.123744 
L 549.117417 182.34832 
L 551.563236 182.71074 
L 554.009056 183.191689 
L 556.454876 183.188175 
L 563.792336 182.602163 
L 568.683975 182.056687 
L 571.129795 181.196831 
L 573.575615 178.395121 
L 576.021435 161.658999 
L 578.467255 129.587396 
L 580.913075 89.009686 
L 583.358894 57.900072 
L 585.804714 38.849253 
L 588.250534 33.22299 
L 590.696354 33.653867 
L 593.142174 38.794656 
L 595.587994 55.949964 
L 598.033813 84.39373 
L 600.479633 121.539033 
L 602.925453 148.728957 
L 605.371273 146.09276 
L 607.817093 127.712122 
L 610.262913 103.652078 
L 612.708733 85.69749 
L 615.154552 81.099306 
L 617.600372 106.253253 
L 620.046192 136.552478 
L 622.492012 129.590447 
L 624.937832 97.050079 
L 627.383652 84.447828 
L 629.829471 107.409944 
L 632.275291 133.71842 
L 634.721111 129.324314 
L 637.166931 85.787035 
L 639.612751 59.26567 
L 644.50439 119.839869 
L 646.95021 127.343311 
L 649.39603 100.837291 
L 651.84185 80.76254 
L 654.28767 88.21964 
L 656.73349 111.865967 
L 659.17931 121.319695 
L 664.070949 79.170331 
L 666.516769 85.725664 
L 668.962589 136.191288 
L 671.408409 150.434704 
L 676.300048 87.254139 
L 678.745868 76.073331 
L 681.191688 102.686249 
L 683.637508 126.182703 
L 686.083328 123.820623 
L 688.529148 88.109966 
L 690.974968 69.738437 
L 693.420787 99.064847 
L 695.866607 120.3006 
L 698.312427 137.733241 
L 700.758247 104.053695 
L 703.204067 71.963151 
L 705.649887 76.088411 
L 708.095706 115.077767 
L 710.541526 134.278939 
L 712.987346 115.875168 
L 715.433166 86.677588 
L 717.878986 79.76312 
L 720.324806 94.907593 
L 722.770625 117.841979 
L 725.216445 134.191985 
L 727.662265 110.781545 
L 730.108085 86.17964 
L 732.553905 75.427885 
L 734.999725 110.799624 
L 737.445545 138.863832 
L 739.891364 124.196623 
L 742.337184 84.890279 
L 744.783004 73.590776 
L 747.228824 108.701054 
L 749.674644 132.212578 
L 752.120464 125.868692 
L 754.566283 81.853699 
L 757.012103 65.637424 
L 759.457923 92.256833 
L 761.903743 126.002885 
L 764.349563 143.442587 
L 766.795383 108.107227 
L 769.241202 86.416715 
L 771.687022 81.897554 
L 774.132842 126.15213 
L 776.578662 153.519738 
L 779.024482 141.739706 
L 781.470302 125.012904 
L 783.916122 116.507788 
L 786.361941 100.155068 
L 788.807761 102.877252 
L 791.253581 145.970617 
L 793.699401 158.967408 
L 796.145221 143.381989 
L 798.591041 138.805257 
L 801.03686 141.739921 
L 803.48268 137.494703 
L 805.9285 132.180723 
L 808.37432 134.636605 
L 810.82014 146.46386 
L 810.82014 146.46386 
" clip-path="url(#pfbfe69c3f7)" style="fill: none; stroke: #377eb8; stroke-width: 2; stroke-linecap: round"/>
   </g>
   <g id="line2d_22">
    <path d="M 42.955 102.719073 
L 847.385146 102.719073 
" clip-path="url(#pfbfe69c3f7)" style="fill: none; stroke-dasharray: 3.7,1.6; stroke-dashoffset: 0; stroke: #000000; stroke-opacity: 0.3"/>
   </g>
   <g id="patch_3">
    <path d="M 42.955 194.659554 
L 42.955 10.700168 
" style="fill: none"/>
   </g>
   <g id="patch_4">
    <path d="M 847.385146 194.659554 
L 847.385146 10.700168 
" style="fill: none"/>
   </g>
   <g id="patch_5">
    <path d="M 42.955 194.659554 
L 847.385146 194.659554 
" style="fill: none"/>
   </g>
   <g id="patch_6">
    <path d="M 42.955 10.700168 
L 847.385146 10.700168 
" style="fill: none"/>
   </g>
   <g id="legend_1">
    <g id="line2d_23">
     <path d="M 315.530073 249.297056 
L 329.530073 249.297056 
L 343.530073 249.297056 
" style="fill: none; stroke: #e41a1c; stroke-width: 2; stroke-linecap: round"/>
    </g>
    <g id="text_14">
     <!-- $\delta_d, \mathrm{no\, penalty}$ -->
     <g style="fill: #262626" transform="translate(354.730073 254.197056) scale(0.14 -0.14)">
      <defs>
       <path id="STIXGeneral-Regular-2c" d="M 531 -902 
L 467 -781 
Q 998 -422 998 -96 
Q 998 -13 909 -13 
Q 883 -13 822 -25 
Q 762 -38 723 -38 
Q 352 -38 352 288 
Q 352 454 457 553 
Q 563 653 736 653 
Q 954 653 1101 496 
Q 1248 339 1248 96 
Q 1248 -198 1053 -473 
Q 858 -749 531 -902 
z
" transform="scale(0.015625)"/>
       <path id="STIXGeneral-Regular-6e" d="M 3104 0 
L 1773 0 
L 1779 96 
Q 2016 115 2096 233 
Q 2176 352 2176 672 
L 2176 1946 
Q 2176 2592 1709 2592 
Q 1549 2592 1408 2515 
Q 1267 2438 1050 2227 
L 1050 461 
Q 1050 269 1136 192 
Q 1222 115 1466 96 
L 1466 0 
L 115 0 
L 115 96 
Q 358 115 435 214 
Q 512 314 512 602 
L 512 2157 
Q 512 2394 467 2483 
Q 422 2573 288 2573 
Q 160 2573 102 2547 
L 102 2656 
Q 550 2784 979 2944 
L 1030 2925 
L 1030 2426 
L 1037 2426 
Q 1491 2944 1958 2944 
Q 2323 2944 2518 2688 
Q 2714 2432 2714 1958 
L 2714 544 
Q 2714 288 2790 205 
Q 2867 122 3104 96 
L 3104 0 
z
" transform="scale(0.015625)"/>
       <path id="STIXGeneral-Regular-6f" d="M 3008 1478 
Q 3008 806 2608 371 
Q 2208 -64 1568 -64 
Q 979 -64 582 368 
Q 186 800 186 1459 
Q 186 2125 582 2534 
Q 979 2944 1626 2944 
Q 2221 2944 2614 2537 
Q 3008 2131 3008 1478 
z
M 2432 1306 
Q 2432 2035 2112 2445 
Q 1856 2765 1504 2765 
Q 1171 2765 966 2493 
Q 762 2221 762 1747 
Q 762 928 1101 435 
Q 1318 115 1677 115 
Q 2029 115 2230 432 
Q 2432 749 2432 1306 
z
" transform="scale(0.015625)"/>
       <path id="STIXGeneral-Regular-70" d="M 1018 2931 
L 1018 2438 
Q 1421 2944 1939 2944 
Q 2406 2944 2707 2560 
Q 3008 2176 3008 1581 
Q 3008 883 2621 409 
Q 2234 -64 1664 -64 
Q 1466 -64 1328 -6 
Q 1190 51 1018 211 
L 1018 -794 
Q 1018 -1094 1120 -1180 
Q 1222 -1267 1581 -1274 
L 1581 -1389 
L 32 -1389 
L 32 -1280 
Q 314 -1254 397 -1171 
Q 480 -1088 480 -838 
L 480 2157 
Q 480 2381 429 2451 
Q 378 2522 218 2522 
Q 115 2522 58 2515 
L 58 2618 
Q 506 2752 979 2944 
L 1018 2931 
z
M 1018 2138 
L 1018 563 
Q 1018 422 1238 281 
Q 1459 141 1683 141 
Q 2029 141 2243 467 
Q 2458 794 2458 1325 
Q 2458 1888 2243 2224 
Q 2029 2560 1670 2560 
Q 1446 2560 1232 2419 
Q 1018 2278 1018 2138 
z
" transform="scale(0.015625)"/>
       <path id="STIXGeneral-Regular-6c" d="M 1645 0 
L 134 0 
L 134 96 
Q 435 122 531 221 
Q 627 320 627 589 
L 627 3590 
Q 627 3821 569 3910 
Q 512 4000 358 4000 
Q 224 4000 122 3987 
L 122 4090 
Q 730 4237 1133 4371 
L 1165 4346 
L 1165 557 
Q 1165 288 1254 201 
Q 1344 115 1645 96 
L 1645 0 
z
" transform="scale(0.015625)"/>
       <path id="STIXGeneral-Regular-74" d="M 1702 493 
L 1786 422 
Q 1478 -64 1011 -64 
Q 448 -64 448 749 
L 448 2675 
L 109 2675 
Q 83 2694 83 2720 
Q 83 2771 192 2842 
Q 435 2982 813 3526 
Q 826 3546 874 3606 
Q 922 3667 941 3706 
Q 986 3706 986 3622 
L 986 2880 
L 1632 2880 
L 1632 2675 
L 986 2675 
L 986 845 
Q 986 538 1062 403 
Q 1139 269 1318 269 
Q 1510 269 1702 493 
z
" transform="scale(0.015625)"/>
       <path id="STIXGeneral-Regular-79" d="M 3040 2880 
L 3040 2784 
Q 2925 2771 2854 2700 
Q 2784 2630 2720 2458 
L 1760 -160 
Q 1510 -838 1257 -1116 
Q 1005 -1395 640 -1395 
Q 435 -1395 313 -1289 
Q 192 -1184 192 -1024 
Q 192 -902 272 -816 
Q 352 -730 467 -730 
Q 653 -730 800 -813 
Q 883 -858 966 -858 
Q 1101 -858 1286 -576 
Q 1376 -448 1459 -211 
Q 1542 26 1542 115 
Q 1542 198 1274 762 
L 429 2566 
Q 346 2752 90 2790 
L 90 2880 
L 1402 2880 
L 1402 2784 
Q 1197 2778 1117 2739 
Q 1037 2701 1037 2611 
Q 1037 2541 1120 2349 
L 1837 749 
L 2458 2515 
Q 2483 2573 2483 2630 
Q 2483 2784 2189 2784 
L 2189 2880 
L 3040 2880 
z
" transform="scale(0.015625)"/>
      </defs>
      <use xlink:href="#STIXGeneral-Italic-3b4" transform="translate(0 0.703125)"/>
      <use xlink:href="#STIXGeneral-Italic-64" transform="translate(45.999985 -12.525) scale(0.7)"/>
      <use xlink:href="#STIXGeneral-Regular-2c" transform="translate(85.409349 0.703125)"/>
      <use xlink:href="#STIXGeneral-Regular-6e" transform="translate(124.84933 0.703125)"/>
      <use xlink:href="#STIXGeneral-Regular-6f" transform="translate(174.849315 0.703125)"/>
      <use xlink:href="#STIXGeneral-Regular-70" transform="translate(236.882871 0.703125)"/>
      <use xlink:href="#STIXGeneral-Regular-65" transform="translate(286.882855 0.703125)"/>
      <use xlink:href="#STIXGeneral-Regular-6e" transform="translate(331.282849 0.703125)"/>
      <use xlink:href="#STIXGeneral-Regular-61" transform="translate(381.282834 0.703125)"/>
      <use xlink:href="#STIXGeneral-Regular-6c" transform="translate(425.682828 0.703125)"/>
      <use xlink:href="#STIXGeneral-Regular-74" transform="translate(453.482816 0.703125)"/>
      <use xlink:href="#STIXGeneral-Regular-79" transform="translate(481.282803 0.703125)"/>
     </g>
    </g>
    <g id="line2d_24">
     <path d="M 457.210073 249.297056 
L 471.210073 249.297056 
L 485.210073 249.297056 
" style="fill: none; stroke: #377eb8; stroke-width: 2; stroke-linecap: round"/>
    </g>
    <g id="text_15">
     <!-- $\delta_d, \mathrm{log\, penalty}$ -->
     <g style="fill: #262626" transform="translate(496.410073 254.197056) scale(0.14 -0.14)">
      <defs>
       <path id="STIXGeneral-Regular-67" d="M 3008 2483 
L 2477 2483 
Q 2598 2208 2598 1946 
Q 2598 1453 2265 1203 
Q 1933 954 1600 954 
Q 1530 954 1357 973 
L 1235 986 
Q 1107 947 979 812 
Q 851 678 851 582 
Q 851 435 1350 410 
L 2176 371 
Q 2528 358 2739 172 
Q 2950 -13 2950 -314 
Q 2950 -685 2566 -986 
Q 2035 -1395 1286 -1395 
Q 826 -1395 502 -1212 
Q 179 -1030 179 -774 
Q 179 -595 320 -419 
Q 461 -243 806 6 
Q 602 102 534 172 
Q 467 243 467 346 
Q 467 531 762 787 
Q 909 915 1037 1043 
Q 717 1203 579 1401 
Q 442 1600 442 1901 
Q 442 2336 752 2640 
Q 1062 2944 1510 2944 
Q 1766 2944 2022 2848 
L 2163 2797 
Q 2349 2733 2515 2733 
L 3008 2733 
L 3008 2483 
z
M 973 2163 
L 973 2144 
Q 973 1683 1155 1398 
Q 1338 1114 1632 1114 
Q 1850 1114 1978 1270 
Q 2106 1427 2106 1690 
Q 2106 2112 1914 2464 
Q 1754 2765 1446 2765 
Q 1222 2765 1097 2605 
Q 973 2445 973 2163 
z
M 2771 -410 
Q 2771 -230 2595 -163 
Q 2419 -96 1978 -96 
Q 1344 -96 941 -13 
Q 749 -243 688 -348 
Q 627 -454 627 -563 
Q 627 -774 880 -902 
Q 1133 -1030 1555 -1030 
Q 2099 -1030 2435 -860 
Q 2771 -691 2771 -410 
z
" transform="scale(0.015625)"/>
      </defs>
      <use xlink:href="#STIXGeneral-Italic-3b4" transform="translate(0 0.703125)"/>
      <use xlink:href="#STIXGeneral-Italic-64" transform="translate(45.999985 -12.525) scale(0.7)"/>
      <use xlink:href="#STIXGeneral-Regular-2c" transform="translate(85.409349 0.703125)"/>
      <use xlink:href="#STIXGeneral-Regular-6c" transform="translate(124.84933 0.703125)"/>
      <use xlink:href="#STIXGeneral-Regular-6f" transform="translate(152.649318 0.703125)"/>
      <use xlink:href="#STIXGeneral-Regular-67" transform="translate(202.649303 0.703125)"/>
      <use xlink:href="#STIXGeneral-Regular-70" transform="translate(264.682858 0.703125)"/>
      <use xlink:href="#STIXGeneral-Regular-65" transform="translate(314.682843 0.703125)"/>
      <use xlink:href="#STIXGeneral-Regular-6e" transform="translate(359.082837 0.703125)"/>
      <use xlink:href="#STIXGeneral-Regular-61" transform="translate(409.082822 0.703125)"/>
      <use xlink:href="#STIXGeneral-Regular-6c" transform="translate(453.482816 0.703125)"/>
      <use xlink:href="#STIXGeneral-Regular-74" transform="translate(481.282803 0.703125)"/>
      <use xlink:href="#STIXGeneral-Regular-79" transform="translate(509.082791 0.703125)"/>
     </g>
    </g>
   </g>
  </g>
 </g>
 <defs>
  <clipPath id="pfbfe69c3f7">
   <rect x="42.955" y="10.700168" width="804.430146" height="183.959386"/>
  </clipPath>
 </defs>
</svg>
