<?xml version="1.0" encoding="utf-8" standalone="no"?>
<!DOCTYPE svg PUBLIC "-//W3C//DTD SVG 1.1//EN"
  "http://www.w3.org/Graphics/SVG/1.1/DTD/svg11.dtd">
<svg xmlns:xlink="http://www.w3.org/1999/xlink" width="811.820215pt" height="218.257971pt" viewBox="0 0 811.820215 218.257971" xmlns="http://www.w3.org/2000/svg" version="1.1">
 <metadata>
  <rdf:RDF xmlns:dc="http://purl.org/dc/elements/1.1/" xmlns:cc="http://creativecommons.org/ns#" xmlns:rdf="http://www.w3.org/1999/02/22-rdf-syntax-ns#">
   <cc:Work>
    <dc:type rdf:resource="http://purl.org/dc/dcmitype/StillImage"/>
    <dc:date>2024-05-21T20:46:04.276603</dc:date>
    <dc:format>image/svg+xml</dc:format>
    <dc:creator>
     <cc:Agent>
      <dc:title>Matplotlib v3.7.1, https://matplotlib.org/</dc:title>
     </cc:Agent>
    </dc:creator>
   </cc:Work>
  </rdf:RDF>
 </metadata>
 <defs>
  <style type="text/css">*{stroke-linejoin: round; stroke-linecap: butt}</style>
 </defs>
 <g id="figure_1">
  <g id="patch_1">
   <path d="M 0 218.257971 
L 811.820215 218.257971 
L 811.820215 0 
L 0 0 
z
" style="fill: #ffffff"/>
  </g>
  <g id="axes_1">
   <g id="patch_2">
    <path d="M 46.235 151.737701 
L 804.620215 151.737701 
L 804.620215 12.264474 
L 46.235 12.264474 
z
" style="fill: #eaeaf2"/>
   </g>
   <g id="matplotlib.axis_1">
    <g id="xtick_1">
     <g id="line2d_1">
      <path d="M 80.707055 151.737701 
L 80.707055 12.264474 
" clip-path="url(#p2e1d571bf4)" style="fill: none; stroke: #ffffff; stroke-linecap: round"/>
     </g>
     <g id="line2d_2"/>
     <g id="text_1">
      <!-- 0 -->
      <g style="fill: #262626" transform="translate(77.926586 165.984576) scale(0.1 -0.1)">
       <defs>
        <path id="LiberationSans-30" d="M 3309 2203 
Q 3309 1100 2920 518 
Q 2531 -63 1772 -63 
Q 1013 -63 631 515 
Q 250 1094 250 2203 
Q 250 3338 620 3903 
Q 991 4469 1791 4469 
Q 2569 4469 2939 3897 
Q 3309 3325 3309 2203 
z
M 2738 2203 
Q 2738 3156 2517 3584 
Q 2297 4013 1791 4013 
Q 1272 4013 1045 3591 
Q 819 3169 819 2203 
Q 819 1266 1048 831 
Q 1278 397 1778 397 
Q 2275 397 2506 840 
Q 2738 1284 2738 2203 
z
" transform="scale(0.015625)"/>
       </defs>
       <use xlink:href="#LiberationSans-30"/>
      </g>
     </g>
    </g>
    <g id="xtick_2">
     <g id="line2d_3">
      <path d="M 172.939979 151.737701 
L 172.939979 12.264474 
" clip-path="url(#p2e1d571bf4)" style="fill: none; stroke: #ffffff; stroke-linecap: round"/>
     </g>
     <g id="line2d_4"/>
     <g id="text_2">
      <!-- 1 -->
      <g style="fill: #262626" transform="translate(170.15951 165.984576) scale(0.1 -0.1)">
       <defs>
        <path id="LiberationSans-31" d="M 488 0 
L 488 478 
L 1609 478 
L 1609 3866 
L 616 3156 
L 616 3688 
L 1656 4403 
L 2175 4403 
L 2175 478 
L 3247 478 
L 3247 0 
L 488 0 
z
" transform="scale(0.015625)"/>
       </defs>
       <use xlink:href="#LiberationSans-31"/>
      </g>
     </g>
    </g>
    <g id="xtick_3">
     <g id="line2d_5">
      <path d="M 265.172903 151.737701 
L 265.172903 12.264474 
" clip-path="url(#p2e1d571bf4)" style="fill: none; stroke: #ffffff; stroke-linecap: round"/>
     </g>
     <g id="line2d_6"/>
     <g id="text_3">
      <!-- 2 -->
      <g style="fill: #262626" transform="translate(262.392434 165.984576) scale(0.1 -0.1)">
       <defs>
        <path id="LiberationSans-32" d="M 322 0 
L 322 397 
Q 481 763 711 1042 
Q 941 1322 1194 1548 
Q 1447 1775 1695 1969 
Q 1944 2163 2144 2356 
Q 2344 2550 2467 2762 
Q 2591 2975 2591 3244 
Q 2591 3606 2378 3806 
Q 2166 4006 1788 4006 
Q 1428 4006 1195 3811 
Q 963 3616 922 3263 
L 347 3316 
Q 409 3844 795 4156 
Q 1181 4469 1788 4469 
Q 2453 4469 2811 4155 
Q 3169 3841 3169 3263 
Q 3169 3006 3051 2753 
Q 2934 2500 2703 2247 
Q 2472 1994 1819 1463 
Q 1459 1169 1246 933 
Q 1034 697 941 478 
L 3238 478 
L 3238 0 
L 322 0 
z
" transform="scale(0.015625)"/>
       </defs>
       <use xlink:href="#LiberationSans-32"/>
      </g>
     </g>
    </g>
    <g id="xtick_4">
     <g id="line2d_7">
      <path d="M 357.405826 151.737701 
L 357.405826 12.264474 
" clip-path="url(#p2e1d571bf4)" style="fill: none; stroke: #ffffff; stroke-linecap: round"/>
     </g>
     <g id="line2d_8"/>
     <g id="text_4">
      <!-- 3 -->
      <g style="fill: #262626" transform="translate(354.625357 165.984576) scale(0.1 -0.1)">
       <defs>
        <path id="LiberationSans-33" d="M 3278 1216 
Q 3278 606 2890 271 
Q 2503 -63 1784 -63 
Q 1116 -63 717 239 
Q 319 541 244 1131 
L 825 1184 
Q 938 403 1784 403 
Q 2209 403 2451 612 
Q 2694 822 2694 1234 
Q 2694 1594 2417 1795 
Q 2141 1997 1619 1997 
L 1300 1997 
L 1300 2484 
L 1606 2484 
Q 2069 2484 2323 2686 
Q 2578 2888 2578 3244 
Q 2578 3597 2370 3801 
Q 2163 4006 1753 4006 
Q 1381 4006 1151 3815 
Q 922 3625 884 3278 
L 319 3322 
Q 381 3863 767 4166 
Q 1153 4469 1759 4469 
Q 2422 4469 2789 4161 
Q 3156 3853 3156 3303 
Q 3156 2881 2920 2617 
Q 2684 2353 2234 2259 
L 2234 2247 
Q 2728 2194 3003 1916 
Q 3278 1638 3278 1216 
z
" transform="scale(0.015625)"/>
       </defs>
       <use xlink:href="#LiberationSans-33"/>
      </g>
     </g>
    </g>
    <g id="xtick_5">
     <g id="line2d_9">
      <path d="M 449.63875 151.737701 
L 449.63875 12.264474 
" clip-path="url(#p2e1d571bf4)" style="fill: none; stroke: #ffffff; stroke-linecap: round"/>
     </g>
     <g id="line2d_10"/>
     <g id="text_5">
      <!-- 4 -->
      <g style="fill: #262626" transform="translate(446.858281 165.984576) scale(0.1 -0.1)">
       <defs>
        <path id="LiberationSans-34" d="M 2753 997 
L 2753 0 
L 2222 0 
L 2222 997 
L 147 997 
L 147 1434 
L 2163 4403 
L 2753 4403 
L 2753 1441 
L 3372 1441 
L 3372 997 
L 2753 997 
z
M 2222 3769 
Q 2216 3750 2134 3603 
Q 2053 3456 2013 3397 
L 884 1734 
L 716 1503 
L 666 1441 
L 2222 1441 
L 2222 3769 
z
" transform="scale(0.015625)"/>
       </defs>
       <use xlink:href="#LiberationSans-34"/>
      </g>
     </g>
    </g>
    <g id="xtick_6">
     <g id="line2d_11">
      <path d="M 541.871674 151.737701 
L 541.871674 12.264474 
" clip-path="url(#p2e1d571bf4)" style="fill: none; stroke: #ffffff; stroke-linecap: round"/>
     </g>
     <g id="line2d_12"/>
     <g id="text_6">
      <!-- 5 -->
      <g style="fill: #262626" transform="translate(539.091205 165.984576) scale(0.1 -0.1)">
       <defs>
        <path id="LiberationSans-35" d="M 3291 1434 
Q 3291 738 2877 337 
Q 2463 -63 1728 -63 
Q 1113 -63 734 206 
Q 356 475 256 984 
L 825 1050 
Q 1003 397 1741 397 
Q 2194 397 2450 670 
Q 2706 944 2706 1422 
Q 2706 1838 2448 2094 
Q 2191 2350 1753 2350 
Q 1525 2350 1328 2278 
Q 1131 2206 934 2034 
L 384 2034 
L 531 4403 
L 3034 4403 
L 3034 3925 
L 1044 3925 
L 959 2528 
Q 1325 2809 1869 2809 
Q 2519 2809 2905 2428 
Q 3291 2047 3291 1434 
z
" transform="scale(0.015625)"/>
       </defs>
       <use xlink:href="#LiberationSans-35"/>
      </g>
     </g>
    </g>
    <g id="xtick_7">
     <g id="line2d_13">
      <path d="M 634.104597 151.737701 
L 634.104597 12.264474 
" clip-path="url(#p2e1d571bf4)" style="fill: none; stroke: #ffffff; stroke-linecap: round"/>
     </g>
     <g id="line2d_14"/>
     <g id="text_7">
      <!-- 6 -->
      <g style="fill: #262626" transform="translate(631.324128 165.984576) scale(0.1 -0.1)">
       <defs>
        <path id="LiberationSans-36" d="M 3278 1441 
Q 3278 744 2900 340 
Q 2522 -63 1856 -63 
Q 1113 -63 719 490 
Q 325 1044 325 2100 
Q 325 3244 734 3856 
Q 1144 4469 1900 4469 
Q 2897 4469 3156 3572 
L 2619 3475 
Q 2453 4013 1894 4013 
Q 1413 4013 1148 3564 
Q 884 3116 884 2266 
Q 1038 2550 1316 2698 
Q 1594 2847 1953 2847 
Q 2563 2847 2920 2465 
Q 3278 2084 3278 1441 
z
M 2706 1416 
Q 2706 1894 2472 2153 
Q 2238 2413 1819 2413 
Q 1425 2413 1183 2183 
Q 941 1953 941 1550 
Q 941 1041 1192 716 
Q 1444 391 1838 391 
Q 2244 391 2475 664 
Q 2706 938 2706 1416 
z
" transform="scale(0.015625)"/>
       </defs>
       <use xlink:href="#LiberationSans-36"/>
      </g>
     </g>
    </g>
    <g id="xtick_8">
     <g id="line2d_15">
      <path d="M 726.337521 151.737701 
L 726.337521 12.264474 
" clip-path="url(#p2e1d571bf4)" style="fill: none; stroke: #ffffff; stroke-linecap: round"/>
     </g>
     <g id="line2d_16"/>
     <g id="text_8">
      <!-- 7 -->
      <g style="fill: #262626" transform="translate(723.557052 165.984576) scale(0.1 -0.1)">
       <defs>
        <path id="LiberationSans-37" d="M 3238 3947 
Q 2563 2916 2284 2331 
Q 2006 1747 1867 1178 
Q 1728 609 1728 0 
L 1141 0 
Q 1141 844 1498 1776 
Q 1856 2709 2694 3925 
L 328 3925 
L 328 4403 
L 3238 4403 
L 3238 3947 
z
" transform="scale(0.015625)"/>
       </defs>
       <use xlink:href="#LiberationSans-37"/>
      </g>
     </g>
    </g>
    <g id="text_9">
     <!-- $\mathrm{Time}\, (s)$ -->
     <g style="fill: #262626" transform="translate(399.107607 183.654576) scale(0.16 -0.16)">
      <defs>
       <path id="STIXGeneral-Regular-54" d="M 3795 3149 
L 3642 3149 
Q 3539 3674 3353 3821 
Q 3168 3968 2656 3968 
L 2278 3968 
L 2278 710 
Q 2278 346 2387 243 
Q 2496 141 2893 122 
L 2893 0 
L 1024 0 
L 1024 122 
Q 1427 147 1526 256 
Q 1626 365 1626 787 
L 1626 3968 
L 1242 3968 
Q 723 3968 540 3817 
Q 358 3667 262 3149 
L 109 3149 
L 154 4237 
L 3750 4237 
L 3795 3149 
z
" transform="scale(0.015625)"/>
       <path id="STIXGeneral-Regular-69" d="M 1152 4045 
Q 1152 3904 1056 3811 
Q 960 3718 819 3718 
Q 685 3718 592 3811 
Q 499 3904 499 4045 
Q 499 4179 595 4275 
Q 691 4371 826 4371 
Q 966 4371 1059 4275 
Q 1152 4179 1152 4045 
z
M 1619 0 
L 102 0 
L 102 96 
Q 435 115 521 211 
Q 608 307 608 666 
L 608 2118 
Q 608 2342 563 2432 
Q 518 2522 397 2522 
Q 243 2522 128 2490 
L 128 2592 
L 1120 2944 
L 1146 2918 
L 1146 672 
Q 1146 314 1226 218 
Q 1306 122 1619 96 
L 1619 0 
z
" transform="scale(0.015625)"/>
       <path id="STIXGeneral-Regular-6d" d="M 4960 0 
L 3565 0 
L 3565 96 
Q 3834 122 3907 208 
Q 3981 294 3981 576 
L 3981 1894 
Q 3981 2278 3869 2444 
Q 3757 2611 3488 2611 
Q 3264 2611 3107 2521 
Q 2950 2432 2803 2221 
L 2803 608 
Q 2803 301 2896 201 
Q 2989 102 3264 96 
L 3264 0 
L 1830 0 
L 1830 96 
Q 2112 115 2189 188 
Q 2266 262 2266 550 
L 2266 1901 
Q 2266 2611 1850 2611 
Q 1670 2611 1468 2531 
Q 1267 2451 1171 2336 
Q 1088 2240 1088 2227 
L 1088 448 
Q 1088 243 1177 176 
Q 1267 109 1523 96 
L 1523 0 
L 102 0 
L 102 96 
Q 371 102 460 195 
Q 550 288 550 563 
L 550 2150 
Q 550 2387 499 2480 
Q 448 2573 326 2573 
Q 230 2573 122 2547 
L 122 2656 
Q 557 2778 1011 2944 
L 1062 2925 
L 1062 2451 
L 1075 2451 
Q 1363 2752 1584 2848 
Q 1805 2944 2054 2944 
Q 2560 2944 2733 2406 
Q 3232 2944 3776 2944 
Q 4518 2944 4518 1792 
L 4518 493 
Q 4518 282 4582 202 
Q 4646 122 4794 109 
L 4960 96 
L 4960 0 
z
" transform="scale(0.015625)"/>
       <path id="STIXGeneral-Regular-65" d="M 2611 1050 
L 2714 1005 
Q 2330 -64 1376 -64 
Q 813 -64 486 329 
Q 160 723 160 1389 
Q 160 2074 525 2509 
Q 890 2944 1485 2944 
Q 2061 2944 2374 2502 
Q 2560 2246 2592 1773 
L 621 1773 
Q 646 1370 700 1158 
Q 755 947 915 730 
Q 1184 378 1626 378 
Q 1939 378 2153 531 
Q 2368 685 2611 1050 
z
M 634 1978 
L 1939 1978 
Q 1882 2381 1750 2547 
Q 1619 2714 1312 2714 
Q 1043 2714 864 2525 
Q 685 2336 634 1978 
z
" transform="scale(0.015625)"/>
       <path id="STIXGeneral-Regular-28" d="M 1946 -1030 
L 1869 -1133 
Q 1126 -710 716 32 
Q 307 774 307 1613 
Q 307 3386 1888 4326 
L 1946 4224 
Q 1293 3667 1075 3126 
Q 858 2586 858 1632 
Q 858 685 1082 96 
Q 1306 -493 1946 -1030 
z
" transform="scale(0.015625)"/>
       <path id="STIXGeneral-Italic-73" d="M 2342 2829 
L 2214 1933 
L 2112 1933 
Q 2022 2675 1542 2675 
Q 1370 2675 1267 2579 
Q 1165 2483 1165 2310 
Q 1165 2067 1510 1658 
Q 1946 1152 1946 787 
Q 1946 397 1686 163 
Q 1427 -70 1024 -70 
Q 838 -70 672 -6 
Q 538 51 390 51 
Q 262 51 205 -83 
L 102 -83 
L 230 934 
L 333 934 
Q 461 64 973 64 
Q 1203 64 1331 192 
Q 1459 320 1459 557 
Q 1459 845 1101 1293 
Q 698 1798 698 2131 
Q 698 2451 909 2636 
Q 1120 2822 1472 2822 
Q 1600 2822 1830 2758 
Q 1971 2714 2061 2714 
Q 2189 2714 2253 2829 
L 2342 2829 
z
" transform="scale(0.015625)"/>
       <path id="STIXGeneral-Regular-29" d="M 186 4224 
L 262 4326 
Q 992 3891 1408 3148 
Q 1824 2406 1824 1581 
Q 1824 -166 243 -1133 
L 186 -1030 
Q 845 -486 1059 54 
Q 1274 595 1274 1562 
Q 1274 2534 1059 3120 
Q 845 3706 186 4224 
z
" transform="scale(0.015625)"/>
      </defs>
      <use xlink:href="#STIXGeneral-Regular-54" transform="translate(0 0.703125)"/>
      <use xlink:href="#STIXGeneral-Regular-69" transform="translate(61.099991 0.703125)"/>
      <use xlink:href="#STIXGeneral-Regular-6d" transform="translate(88.899979 0.703125)"/>
      <use xlink:href="#STIXGeneral-Regular-65" transform="translate(166.699966 0.703125)"/>
      <use xlink:href="#STIXGeneral-Regular-28" transform="translate(223.133531 0.703125)"/>
      <use xlink:href="#STIXGeneral-Italic-73" transform="translate(256.433519 0.703125)"/>
      <use xlink:href="#STIXGeneral-Regular-29" transform="translate(295.333513 0.703125)"/>
     </g>
    </g>
   </g>
   <g id="matplotlib.axis_2">
    <g id="ytick_1">
     <g id="line2d_17"/>
     <g id="text_10">
      <!-- -$\frac{\pi}{4}$ -->
      <g style="fill: #262626" transform="translate(26.115 156.886722) scale(0.16 -0.16)">
       <defs>
        <path id="LiberationSans-2d" d="M 284 1450 
L 284 1950 
L 1847 1950 
L 1847 1450 
L 284 1450 
z
" transform="scale(0.015625)"/>
        <path id="STIXGeneral-Italic-3c0" d="M 3430 2739 
L 3296 2266 
L 2643 2266 
Q 2624 2195 2502 1782 
Q 2381 1370 2297 1072 
Q 2214 774 2214 717 
Q 2214 448 2413 448 
Q 2694 448 2867 838 
L 2970 838 
Q 2886 486 2652 208 
Q 2419 -70 2093 -70 
Q 1901 -70 1808 67 
Q 1715 205 1715 410 
Q 1715 627 1824 922 
L 2310 2266 
L 1645 2266 
Q 1568 2061 1401 1469 
Q 1235 877 1068 512 
Q 902 147 672 -38 
Q 563 -115 442 -115 
Q 314 -115 218 -32 
Q 122 51 122 166 
Q 122 429 314 480 
Q 634 563 774 928 
L 1299 2266 
L 1261 2266 
Q 973 2266 819 2208 
Q 666 2150 474 1914 
L 371 1914 
Q 640 2362 931 2550 
Q 1222 2739 1696 2739 
L 3430 2739 
z
" transform="scale(0.015625)"/>
        <path id="STIXGeneral-Regular-34" d="M 3027 1069 
L 2368 1069 
L 2368 0 
L 1869 0 
L 1869 1069 
L 77 1069 
L 77 1478 
L 2086 4326 
L 2368 4326 
L 2368 1478 
L 3027 1478 
L 3027 1069 
z
M 1869 1478 
L 1869 3674 
L 333 1478 
L 1869 1478 
z
" transform="scale(0.015625)"/>
       </defs>
       <use xlink:href="#LiberationSans-2d" transform="translate(0 0.9875)"/>
       <use xlink:href="#STIXGeneral-Italic-3c0" transform="translate(33.300781 40.042187) scale(0.7)"/>
       <use xlink:href="#STIXGeneral-Regular-34" transform="translate(33.300781 -39.78125) scale(0.7)"/>
       <path d="M 33.300781 13.784375 
L 33.300781 20.034375 
L 68.580777 20.034375 
L 68.580777 13.784375 
L 33.300781 13.784375 
z
"/>
      </g>
     </g>
    </g>
    <g id="ytick_2">
     <g id="line2d_18"/>
     <g id="text_11">
      <!-- 0 -->
      <g style="fill: #262626" transform="translate(30.3375 87.840861) scale(0.16 -0.16)">
       <use xlink:href="#LiberationSans-30"/>
      </g>
     </g>
    </g>
    <g id="ytick_3">
     <g id="line2d_19"/>
     <g id="text_12">
      <!-- $\frac{\pi}{4}$ -->
      <g style="fill: #262626" transform="translate(31.555 18.4) scale(0.16 -0.16)">
       <use xlink:href="#STIXGeneral-Italic-3c0" transform="translate(0 40.042187) scale(0.7)"/>
       <use xlink:href="#STIXGeneral-Regular-34" transform="translate(0 -39.78125) scale(0.7)"/>
       <path d="M 0 13.784375 
L 0 20.034375 
L 35.279996 20.034375 
L 35.279996 13.784375 
L 0 13.784375 
z
"/>
      </g>
     </g>
    </g>
    <g id="text_13">
     <!-- $\delta_d (\mathrm{rad})$ -->
     <g style="fill: #262626" transform="translate(18.795 104.401088) rotate(-90) scale(0.16 -0.16)">
      <defs>
       <path id="STIXGeneral-Italic-3b4" d="M 2944 3866 
Q 2944 3744 2883 3651 
Q 2822 3558 2694 3558 
Q 2579 3558 2508 3606 
Q 2438 3654 2403 3721 
Q 2368 3789 2323 3856 
Q 2278 3923 2179 3971 
Q 2080 4019 1920 4019 
Q 1715 4019 1516 3916 
Q 1318 3814 1318 3648 
Q 1318 3482 1484 3328 
Q 1651 3174 1942 2985 
Q 2234 2797 2381 2656 
Q 2605 2445 2701 2249 
Q 2797 2054 2797 1709 
Q 2797 1037 2313 483 
Q 1830 -70 1101 -70 
Q 646 -70 400 166 
Q 154 403 154 838 
Q 154 1453 640 1981 
Q 1126 2509 1741 2566 
Q 1690 2618 1526 2771 
Q 1363 2925 1299 2998 
Q 1235 3072 1164 3203 
Q 1094 3334 1094 3456 
Q 1094 3744 1286 3939 
Q 1478 4134 1712 4204 
Q 1946 4275 2176 4275 
Q 2458 4275 2701 4169 
Q 2944 4064 2944 3866 
z
M 2278 1702 
Q 2278 2086 2156 2259 
Q 2035 2432 1850 2432 
Q 1427 2432 1059 1869 
Q 691 1306 691 646 
Q 691 384 828 224 
Q 966 64 1190 64 
Q 1466 64 1728 371 
Q 1990 678 2134 1056 
Q 2278 1434 2278 1702 
z
" transform="scale(0.015625)"/>
       <path id="STIXGeneral-Italic-64" d="M 3334 4371 
L 3373 4333 
L 3123 3360 
L 2739 1958 
Q 2323 429 2323 384 
Q 2323 256 2438 256 
Q 2522 256 2614 336 
Q 2707 416 2963 710 
L 3040 646 
Q 2547 -83 2099 -83 
Q 1978 -83 1907 -6 
Q 1837 70 1837 205 
Q 1837 397 1920 774 
Q 1645 307 1379 118 
Q 1114 -70 781 -70 
Q 461 -70 278 125 
Q 96 320 96 678 
Q 96 1440 713 2131 
Q 1331 2822 1965 2822 
Q 2163 2822 2256 2732 
Q 2349 2643 2381 2451 
L 2387 2451 
L 2675 3494 
Q 2765 3808 2765 3949 
Q 2765 4051 2694 4076 
Q 2624 4102 2355 4115 
L 2355 4224 
Q 2848 4269 3334 4371 
z
M 2278 2310 
Q 2278 2477 2185 2576 
Q 2093 2675 1978 2675 
Q 1677 2675 1395 2381 
Q 1075 2042 864 1571 
Q 653 1101 653 704 
Q 653 486 752 361 
Q 851 237 1024 237 
Q 1312 237 1606 550 
Q 1901 864 2089 1350 
Q 2278 1837 2278 2310 
z
" transform="scale(0.015625)"/>
       <path id="STIXGeneral-Regular-72" d="M 1024 2931 
L 1024 2342 
Q 1267 2688 1430 2816 
Q 1594 2944 1792 2944 
Q 1958 2944 2051 2854 
Q 2144 2765 2144 2605 
Q 2144 2470 2077 2393 
Q 2010 2317 1894 2317 
Q 1773 2317 1638 2445 
Q 1536 2541 1472 2541 
Q 1338 2541 1181 2355 
Q 1024 2170 1024 2016 
L 1024 576 
Q 1024 301 1133 205 
Q 1242 109 1568 96 
L 1568 0 
L 32 0 
L 32 96 
Q 339 154 412 224 
Q 486 294 486 538 
L 486 2138 
Q 486 2349 438 2435 
Q 390 2522 269 2522 
Q 166 2522 45 2496 
L 45 2598 
Q 448 2726 992 2944 
L 1024 2931 
z
" transform="scale(0.015625)"/>
       <path id="STIXGeneral-Regular-61" d="M 2829 422 
L 2829 243 
Q 2586 -64 2253 -64 
Q 1888 -64 1843 403 
L 1837 403 
Q 1427 -64 909 -64 
Q 608 -64 422 112 
Q 237 288 237 602 
Q 237 1050 685 1350 
Q 992 1555 1837 1869 
L 1837 2214 
Q 1837 2502 1699 2646 
Q 1562 2790 1338 2790 
Q 1146 2790 1018 2697 
Q 890 2605 890 2477 
Q 890 2419 909 2348 
Q 928 2278 928 2208 
Q 928 2112 841 2029 
Q 755 1946 634 1946 
Q 525 1946 441 2029 
Q 358 2112 358 2240 
Q 358 2547 685 2752 
Q 986 2944 1421 2944 
Q 1939 2944 2176 2656 
Q 2291 2522 2323 2384 
Q 2355 2246 2355 1946 
L 2355 723 
Q 2355 301 2554 301 
Q 2682 301 2829 422 
z
M 1837 813 
L 1837 1715 
Q 1248 1510 1018 1293 
Q 800 1094 800 800 
Q 800 557 921 432 
Q 1043 307 1242 307 
Q 1453 307 1613 410 
Q 1747 506 1792 589 
Q 1837 672 1837 813 
z
" transform="scale(0.015625)"/>
       <path id="STIXGeneral-Regular-64" d="M 3142 269 
L 2202 -64 
L 2176 -45 
L 2176 365 
Q 1869 -64 1357 -64 
Q 826 -64 499 317 
Q 173 698 173 1312 
Q 173 1990 563 2467 
Q 954 2944 1504 2944 
Q 1850 2944 2176 2669 
L 2176 3667 
Q 2176 3866 2118 3930 
Q 2061 3994 1882 3994 
Q 1792 3994 1741 3987 
L 1741 4090 
Q 2323 4243 2682 4371 
L 2714 4358 
L 2714 730 
Q 2714 506 2768 435 
Q 2822 365 2995 365 
Q 3034 365 3142 371 
L 3142 269 
z
M 2176 653 
L 2176 2125 
Q 2176 2381 1981 2573 
Q 1786 2765 1523 2765 
Q 1158 2765 940 2438 
Q 723 2112 723 1568 
Q 723 979 963 624 
Q 1203 269 1606 269 
Q 1907 269 2080 474 
Q 2176 582 2176 653 
z
" transform="scale(0.015625)"/>
      </defs>
      <use xlink:href="#STIXGeneral-Italic-3b4" transform="translate(0 0.703125)"/>
      <use xlink:href="#STIXGeneral-Italic-64" transform="translate(45.999985 -12.525) scale(0.7)"/>
      <use xlink:href="#STIXGeneral-Regular-28" transform="translate(85.409349 0.703125)"/>
      <use xlink:href="#STIXGeneral-Regular-72" transform="translate(118.709337 0.703125)"/>
      <use xlink:href="#STIXGeneral-Regular-61" transform="translate(152.009325 0.703125)"/>
      <use xlink:href="#STIXGeneral-Regular-64" transform="translate(196.409319 0.703125)"/>
      <use xlink:href="#STIXGeneral-Regular-29" transform="translate(246.409303 0.703125)"/>
     </g>
    </g>
   </g>
   <g id="line2d_20">
    <path d="M 80.707055 38.826181 
L 83.012878 46.4299 
L 85.318701 44.061656 
L 87.624524 48.244055 
L 89.930348 41.727138 
L 92.236171 40.616983 
L 94.541994 59.695465 
L 96.847817 24.770526 
L 99.15364 30.295541 
L 101.459463 145.398009 
L 108.376932 145.331565 
L 110.682755 25.232504 
L 112.988579 46.675545 
L 115.294402 140.207535 
L 117.600225 144.344728 
L 119.906048 143.967602 
L 122.211871 141.725715 
L 124.517694 139.189452 
L 126.823517 137.754452 
L 129.12934 141.488806 
L 131.435163 139.683706 
L 133.740986 142.842255 
L 136.046809 143.774025 
L 138.352633 144.050845 
L 140.658456 144.797552 
L 145.270102 144.736605 
L 147.575925 144.551269 
L 152.187571 144.665175 
L 154.493394 144.331833 
L 156.799217 143.410698 
L 159.10504 142.830316 
L 161.410863 141.821896 
L 163.716687 137.843602 
L 166.02251 126.663176 
L 168.328333 85.237534 
L 170.634156 34.808873 
L 172.939979 23.277496 
L 175.245802 22.596723 
L 179.857448 20.432573 
L 182.163271 22.306786 
L 184.469094 38.005626 
L 186.774917 133.764607 
L 189.080741 145.263036 
L 193.692387 145.367504 
L 195.99821 145.269273 
L 198.304033 145.296536 
L 200.609856 145.18903 
L 207.527325 144.519397 
L 212.138971 144.531232 
L 219.056441 144.850317 
L 225.97391 144.967413 
L 235.197202 145.148951 
L 239.808849 145.218006 
L 253.643787 144.837994 
L 255.94961 144.63467 
L 260.561256 143.907611 
L 262.867079 143.510668 
L 265.172903 140.708242 
L 267.478726 134.432484 
L 269.784549 123.076188 
L 272.090372 92.300872 
L 274.396195 44.608767 
L 276.702018 27.026859 
L 279.007841 26.0875 
L 281.313664 26.208994 
L 283.619487 25.729607 
L 285.92531 26.218769 
L 290.536957 20.845837 
L 292.84278 19.684042 
L 295.148603 19.070926 
L 299.760249 18.685308 
L 306.677718 18.604844 
L 315.901011 18.664409 
L 318.206834 18.794469 
L 320.512657 19.184281 
L 322.81848 34.418005 
L 325.124303 21.6543 
L 327.430126 18.852194 
L 329.735949 18.713275 
L 336.653418 18.811779 
L 345.876711 18.961361 
L 350.488357 19.313794 
L 352.79418 19.576578 
L 359.711649 19.983942 
L 362.017472 20.695456 
L 364.323295 22.086593 
L 368.934942 26.387889 
L 371.240765 28.051248 
L 373.546588 32.773979 
L 375.852411 37.935041 
L 378.158234 41.625678 
L 380.464057 44.617109 
L 382.76988 55.547764 
L 385.075703 67.567876 
L 389.68735 110.802615 
L 391.993173 136.151966 
L 394.298996 139.580183 
L 398.910642 85.871115 
L 401.216465 66.044858 
L 403.522288 78.898914 
L 405.828111 99.561261 
L 408.133934 124.587543 
L 410.439757 107.640829 
L 412.74558 50.992314 
L 415.051404 41.185789 
L 417.357227 111.781126 
L 419.66305 142.522475 
L 424.274696 143.505455 
L 426.580519 143.012899 
L 428.886342 142.678574 
L 431.192165 144.274485 
L 433.497988 144.307754 
L 435.803811 143.805555 
L 438.109634 144.511273 
L 442.721281 144.841668 
L 447.332927 144.532419 
L 451.944573 143.331811 
L 454.250396 143.642131 
L 456.556219 144.578768 
L 458.862042 145.051965 
L 461.167865 145.212446 
L 463.473688 145.130033 
L 470.391158 144.493564 
L 472.696981 144.829912 
L 479.61445 144.979494 
L 484.226096 144.871605 
L 488.837742 145.024429 
L 491.143566 144.533743 
L 493.449389 144.27531 
L 495.755212 144.477121 
L 498.061035 144.470574 
L 500.366858 144.739948 
L 502.672681 144.295027 
L 504.978504 144.061928 
L 507.284327 143.991102 
L 511.895973 144.145408 
L 514.201796 143.91201 
L 516.50762 144.105087 
L 518.813443 144.691408 
L 521.119266 144.692422 
L 523.425089 145.004886 
L 525.730912 145.069964 
L 528.036735 144.754057 
L 530.342558 140.125783 
L 532.648381 59.574557 
L 534.954204 23.804021 
L 537.260027 23.21182 
L 539.56585 25.013867 
L 541.871674 26.583446 
L 544.177497 25.847853 
L 546.48332 65.652538 
L 548.789143 134.638441 
L 551.094966 144.389485 
L 553.400789 141.561156 
L 555.706612 141.118658 
L 558.012435 117.002715 
L 560.318258 73.848709 
L 562.624081 50.283266 
L 564.929904 64.043363 
L 567.235728 101.47613 
L 569.541551 126.474618 
L 571.847374 92.93835 
L 574.153197 43.00126 
L 576.45902 32.794153 
L 578.764843 97.781548 
L 581.070666 130.537501 
L 583.376489 126.284946 
L 585.682312 49.791592 
L 587.988135 33.199829 
L 590.293958 61.957672 
L 592.599782 108.941736 
L 594.905605 108.348518 
L 597.211428 38.223567 
L 599.517251 31.793296 
L 601.823074 57.844289 
L 604.128897 77.418769 
L 606.43472 81.877382 
L 608.740543 131.849777 
L 611.046366 140.989397 
L 613.352189 75.879251 
L 615.658012 44.393217 
L 617.963836 44.917119 
L 620.269659 134.070024 
L 622.575482 142.401922 
L 624.881305 118.524232 
L 627.187128 91.920444 
L 629.492951 92.878531 
L 631.798774 39.837729 
L 634.104597 28.647773 
L 636.41042 76.380514 
L 638.716243 128.036288 
L 641.022066 113.113492 
L 643.32789 50.454564 
L 645.633713 32.572478 
L 647.939536 109.915622 
L 650.245359 138.273068 
L 652.551182 127.933817 
L 654.857005 53.747937 
L 657.162828 48.450596 
L 659.468651 132.363706 
L 661.774474 143.920023 
L 664.080297 131.562048 
L 666.38612 123.782401 
L 668.691944 108.179482 
L 670.997767 49.309874 
L 673.30359 33.634908 
L 675.609413 112.483253 
L 677.915236 139.404474 
L 680.221059 132.802158 
L 682.526882 62.060114 
L 684.832705 38.389734 
L 687.138528 91.118596 
L 689.444351 130.790096 
L 691.750175 131.666947 
L 694.055998 62.161637 
L 696.361821 34.305523 
L 698.667644 79.807079 
L 700.973467 97.442284 
L 703.27929 102.931378 
L 705.585113 61.33168 
L 707.890936 37.938215 
L 710.196759 69.468526 
L 712.502582 114.426795 
L 714.808405 104.891898 
L 717.114229 32.084509 
L 719.420052 26.629595 
L 721.725875 68.364065 
L 724.031698 90.850844 
L 726.337521 118.289152 
L 728.643344 116.312498 
L 730.949167 96.509261 
L 733.25499 116.910191 
L 735.560813 121.510146 
L 737.866636 119.469939 
L 740.172459 124.121907 
L 742.478283 138.456518 
L 744.784106 143.371906 
L 747.089929 144.51625 
L 749.395752 145.05031 
L 754.007398 145.281149 
L 770.14816 145.290214 
L 770.14816 145.290214 
" clip-path="url(#p2e1d571bf4)" style="fill: none; stroke: #e41a1c; stroke-width: 2; stroke-linecap: round"/>
   </g>
   <g id="line2d_21">
    <path d="M 80.707055 20.846205 
L 83.012878 27.873047 
L 85.318701 19.951514 
L 87.624524 19.324814 
L 89.930348 19.881113 
L 92.236171 22.919203 
L 94.541994 48.029703 
L 96.847817 32.217659 
L 99.15364 19.729198 
L 101.459463 21.234246 
L 103.765286 134.909586 
L 106.071109 144.53697 
L 108.376932 69.445407 
L 110.682755 90.625068 
L 112.988579 109.668511 
L 115.294402 115.969429 
L 117.600225 115.839432 
L 119.906048 117.843577 
L 122.211871 126.268608 
L 124.517694 122.438035 
L 126.823517 134.61894 
L 129.12934 136.098118 
L 131.435163 140.852064 
L 133.740986 141.475669 
L 136.046809 140.856773 
L 138.352633 140.74449 
L 140.658456 140.777996 
L 142.964279 139.588633 
L 145.270102 138.179908 
L 147.575925 134.776405 
L 149.881748 133.771254 
L 152.187571 124.331267 
L 154.493394 124.93434 
L 156.799217 107.56009 
L 159.10504 112.690492 
L 161.410863 110.795295 
L 163.716687 99.639103 
L 166.02251 77.650811 
L 168.328333 75.955897 
L 170.634156 71.123 
L 172.939979 80.387053 
L 175.245802 80.768944 
L 177.551625 37.21618 
L 179.857448 24.742707 
L 182.163271 24.794184 
L 184.469094 41.653348 
L 186.774917 53.726179 
L 189.080741 108.643431 
L 191.386564 125.406471 
L 193.692387 109.884079 
L 195.99821 109.543898 
L 198.304033 140.694642 
L 200.609856 144.541594 
L 202.915679 144.446217 
L 205.221502 144.941296 
L 207.527325 144.782749 
L 209.833148 144.943261 
L 212.138971 144.953829 
L 214.444795 145.15997 
L 216.750618 144.979946 
L 219.056441 144.686526 
L 221.362264 143.730483 
L 223.668087 142.493946 
L 225.97391 142.77279 
L 228.279733 142.035 
L 230.585556 140.016901 
L 232.891379 141.566795 
L 235.197202 139.53271 
L 237.503025 140.114475 
L 239.808849 136.766942 
L 242.114672 139.24312 
L 244.420495 139.472131 
L 246.726318 136.356615 
L 249.032141 132.449015 
L 251.337964 132.316832 
L 253.643787 129.899772 
L 255.94961 129.032159 
L 258.255433 125.506475 
L 260.561256 125.429598 
L 262.867079 128.354554 
L 265.172903 124.509861 
L 267.478726 115.647871 
L 269.784549 119.634923 
L 272.090372 122.035212 
L 274.396195 72.940955 
L 276.702018 39.241647 
L 279.007841 31.490889 
L 281.313664 25.921827 
L 283.619487 22.118701 
L 285.92531 27.373985 
L 288.231133 26.405309 
L 290.536957 32.142429 
L 292.84278 28.786935 
L 295.148603 28.587983 
L 297.454426 26.436066 
L 299.760249 25.15451 
L 302.066072 23.138923 
L 304.371895 22.588551 
L 306.677718 22.339488 
L 308.983541 21.301746 
L 311.289364 21.80001 
L 313.595187 21.693098 
L 315.901011 21.089446 
L 318.206834 21.474844 
L 320.512657 22.614542 
L 322.81848 24.20655 
L 325.124303 22.764461 
L 327.430126 23.116968 
L 329.735949 25.188773 
L 332.041772 25.143974 
L 334.347595 23.992489 
L 336.653418 24.267728 
L 338.959241 27.867834 
L 341.265065 28.118805 
L 343.570888 27.85331 
L 345.876711 33.610688 
L 348.182534 35.692183 
L 352.79418 38.034925 
L 355.100003 42.373775 
L 357.405826 51.782697 
L 359.711649 47.703652 
L 362.017472 38.491215 
L 364.323295 41.023603 
L 366.629119 39.499074 
L 368.934942 30.122385 
L 371.240765 32.650272 
L 373.546588 33.494727 
L 375.852411 32.997976 
L 378.158234 39.727911 
L 380.464057 42.454183 
L 382.76988 42.841804 
L 385.075703 47.404787 
L 387.381526 47.492761 
L 389.68735 60.987614 
L 391.993173 65.48217 
L 394.298996 66.33025 
L 396.604819 67.522549 
L 398.910642 111.234554 
L 401.216465 135.809927 
L 403.522288 143.48402 
L 405.828111 140.224808 
L 408.133934 133.488864 
L 410.439757 125.50106 
L 412.74558 122.468751 
L 415.051404 131.717537 
L 417.357227 127.81176 
L 419.66305 125.761763 
L 421.968873 120.506404 
L 424.274696 114.302447 
L 426.580519 104.057653 
L 428.886342 110.544852 
L 433.497988 84.783963 
L 435.803811 72.753883 
L 438.109634 99.818326 
L 440.415458 124.617698 
L 442.721281 134.223332 
L 445.027104 139.254172 
L 447.332927 134.067812 
L 449.63875 142.898525 
L 451.944573 140.846184 
L 454.250396 142.147246 
L 456.556219 141.704338 
L 458.862042 141.555176 
L 461.167865 139.306385 
L 463.473688 135.248478 
L 465.779512 137.392197 
L 468.085335 138.746128 
L 470.391158 141.742174 
L 472.696981 141.172385 
L 475.002804 124.435436 
L 477.308627 131.02123 
L 479.61445 126.521282 
L 481.920273 131.510555 
L 484.226096 123.625459 
L 486.531919 132.998083 
L 488.837742 132.99997 
L 491.143566 101.563836 
L 493.449389 76.593862 
L 495.755212 73.17571 
L 498.061035 63.759607 
L 500.366858 59.285256 
L 502.672681 71.419576 
L 504.978504 75.681862 
L 509.59015 53.142641 
L 511.895973 33.579242 
L 514.201796 24.402244 
L 516.50762 24.214774 
L 518.813443 25.557192 
L 521.119266 28.921246 
L 525.730912 39.397667 
L 528.036735 42.744582 
L 530.342558 81.357413 
L 532.648381 92.212328 
L 534.954204 90.866066 
L 537.260027 78.274997 
L 539.56585 98.681002 
L 541.871674 117.044489 
L 544.177497 98.817447 
L 546.48332 51.797075 
L 548.789143 36.357937 
L 551.094966 70.29356 
L 553.400789 97.512601 
L 555.706612 122.384275 
L 558.012435 95.304781 
L 560.318258 77.507488 
L 562.624081 57.469365 
L 564.929904 57.628716 
L 567.235728 99.16018 
L 569.541551 113.503206 
L 571.847374 75.238058 
L 574.153197 64.709913 
L 576.45902 77.080568 
L 578.764843 104.438225 
L 581.070666 108.081748 
L 583.376489 61.268977 
L 585.682312 49.691063 
L 587.988135 98.201486 
L 590.293958 99.760065 
L 592.599782 73.507887 
L 594.905605 62.770565 
L 597.211428 94.099624 
L 599.517251 104.418719 
L 601.823074 73.203002 
L 604.128897 66.218644 
L 606.43472 87.892188 
L 608.740543 102.404262 
L 611.046366 73.842448 
L 613.352189 55.017619 
L 615.658012 83.609429 
L 617.963836 101.883749 
L 620.269659 87.912253 
L 622.575482 59.823983 
L 624.881305 66.01475 
L 627.187128 103.719907 
L 629.492951 101.900429 
L 631.798774 58.80431 
L 634.104597 46.257711 
L 636.41042 96.390473 
L 638.716243 95.331312 
L 641.022066 65.205618 
L 643.32789 67.667121 
L 645.633713 86.059704 
L 647.939536 84.122253 
L 650.245359 60.046881 
L 652.551182 100.546875 
L 654.857005 113.884679 
L 657.162828 82.881295 
L 659.468651 73.900999 
L 661.774474 71.085878 
L 664.080297 95.635072 
L 666.38612 109.978521 
L 668.691944 95.674119 
L 670.997767 55.034632 
L 673.30359 44.200581 
L 675.609413 98.192145 
L 677.915236 105.00417 
L 680.221059 72.009203 
L 682.526882 70.564676 
L 684.832705 87.205469 
L 687.138528 91.560699 
L 689.444351 59.219711 
L 691.750175 49.395953 
L 694.055998 109.683645 
L 696.361821 108.423328 
L 698.667644 78.071775 
L 700.973467 83.142102 
L 703.27929 113.518078 
L 707.890936 55.624234 
L 710.196759 59.123104 
L 712.502582 111.658465 
L 714.808405 116.849741 
L 717.114229 75.92762 
L 719.420052 97.465593 
L 721.725875 76.126794 
L 724.031698 67.170665 
L 726.337521 129.318916 
L 728.643344 132.405972 
L 730.949167 115.347004 
L 733.25499 121.510895 
L 735.560813 135.557537 
L 737.866636 140.954 
L 740.172459 141.959156 
L 742.478283 142.659819 
L 744.784106 140.479478 
L 747.089929 142.542712 
L 749.395752 143.689657 
L 751.701575 143.321438 
L 756.313221 142.288825 
L 758.619044 143.300392 
L 760.924867 142.329729 
L 763.23069 142.998264 
L 765.536513 143.196107 
L 767.842337 143.777609 
L 770.14816 143.112475 
L 770.14816 143.112475 
" clip-path="url(#p2e1d571bf4)" style="fill: none; stroke: #377eb8; stroke-width: 2; stroke-linecap: round"/>
   </g>
   <g id="line2d_22">
    <path d="M 46.235 82.043361 
L 804.620215 82.043361 
" clip-path="url(#p2e1d571bf4)" style="fill: none; stroke-dasharray: 3.7,1.6; stroke-dashoffset: 0; stroke: #000000; stroke-opacity: 0.3"/>
   </g>
   <g id="patch_3">
    <path d="M 46.235 151.737701 
L 46.235 12.264474 
" style="fill: none"/>
   </g>
   <g id="patch_4">
    <path d="M 804.620215 151.737701 
L 804.620215 12.264474 
" style="fill: none"/>
   </g>
   <g id="patch_5">
    <path d="M 46.235 151.737701 
L 804.620215 151.737701 
" style="fill: none"/>
   </g>
   <g id="patch_6">
    <path d="M 46.235 12.264474 
L 804.620215 12.264474 
" style="fill: none"/>
   </g>
   <g id="legend_1">
    <g id="line2d_23">
     <path d="M 295.787607 197.477971 
L 309.787607 197.477971 
L 323.787607 197.477971 
" style="fill: none; stroke: #e41a1c; stroke-width: 2; stroke-linecap: round"/>
    </g>
    <g id="text_14">
     <!-- $\delta_d, \mathrm{no\, penalty}$ -->
     <g style="fill: #262626" transform="translate(334.987607 202.377971) scale(0.14 -0.14)">
      <defs>
       <path id="STIXGeneral-Regular-2c" d="M 531 -902 
L 467 -781 
Q 998 -422 998 -96 
Q 998 -13 909 -13 
Q 883 -13 822 -25 
Q 762 -38 723 -38 
Q 352 -38 352 288 
Q 352 454 457 553 
Q 563 653 736 653 
Q 954 653 1101 496 
Q 1248 339 1248 96 
Q 1248 -198 1053 -473 
Q 858 -749 531 -902 
z
" transform="scale(0.015625)"/>
       <path id="STIXGeneral-Regular-6e" d="M 3104 0 
L 1773 0 
L 1779 96 
Q 2016 115 2096 233 
Q 2176 352 2176 672 
L 2176 1946 
Q 2176 2592 1709 2592 
Q 1549 2592 1408 2515 
Q 1267 2438 1050 2227 
L 1050 461 
Q 1050 269 1136 192 
Q 1222 115 1466 96 
L 1466 0 
L 115 0 
L 115 96 
Q 358 115 435 214 
Q 512 314 512 602 
L 512 2157 
Q 512 2394 467 2483 
Q 422 2573 288 2573 
Q 160 2573 102 2547 
L 102 2656 
Q 550 2784 979 2944 
L 1030 2925 
L 1030 2426 
L 1037 2426 
Q 1491 2944 1958 2944 
Q 2323 2944 2518 2688 
Q 2714 2432 2714 1958 
L 2714 544 
Q 2714 288 2790 205 
Q 2867 122 3104 96 
L 3104 0 
z
" transform="scale(0.015625)"/>
       <path id="STIXGeneral-Regular-6f" d="M 3008 1478 
Q 3008 806 2608 371 
Q 2208 -64 1568 -64 
Q 979 -64 582 368 
Q 186 800 186 1459 
Q 186 2125 582 2534 
Q 979 2944 1626 2944 
Q 2221 2944 2614 2537 
Q 3008 2131 3008 1478 
z
M 2432 1306 
Q 2432 2035 2112 2445 
Q 1856 2765 1504 2765 
Q 1171 2765 966 2493 
Q 762 2221 762 1747 
Q 762 928 1101 435 
Q 1318 115 1677 115 
Q 2029 115 2230 432 
Q 2432 749 2432 1306 
z
" transform="scale(0.015625)"/>
       <path id="STIXGeneral-Regular-70" d="M 1018 2931 
L 1018 2438 
Q 1421 2944 1939 2944 
Q 2406 2944 2707 2560 
Q 3008 2176 3008 1581 
Q 3008 883 2621 409 
Q 2234 -64 1664 -64 
Q 1466 -64 1328 -6 
Q 1190 51 1018 211 
L 1018 -794 
Q 1018 -1094 1120 -1180 
Q 1222 -1267 1581 -1274 
L 1581 -1389 
L 32 -1389 
L 32 -1280 
Q 314 -1254 397 -1171 
Q 480 -1088 480 -838 
L 480 2157 
Q 480 2381 429 2451 
Q 378 2522 218 2522 
Q 115 2522 58 2515 
L 58 2618 
Q 506 2752 979 2944 
L 1018 2931 
z
M 1018 2138 
L 1018 563 
Q 1018 422 1238 281 
Q 1459 141 1683 141 
Q 2029 141 2243 467 
Q 2458 794 2458 1325 
Q 2458 1888 2243 2224 
Q 2029 2560 1670 2560 
Q 1446 2560 1232 2419 
Q 1018 2278 1018 2138 
z
" transform="scale(0.015625)"/>
       <path id="STIXGeneral-Regular-6c" d="M 1645 0 
L 134 0 
L 134 96 
Q 435 122 531 221 
Q 627 320 627 589 
L 627 3590 
Q 627 3821 569 3910 
Q 512 4000 358 4000 
Q 224 4000 122 3987 
L 122 4090 
Q 730 4237 1133 4371 
L 1165 4346 
L 1165 557 
Q 1165 288 1254 201 
Q 1344 115 1645 96 
L 1645 0 
z
" transform="scale(0.015625)"/>
       <path id="STIXGeneral-Regular-74" d="M 1702 493 
L 1786 422 
Q 1478 -64 1011 -64 
Q 448 -64 448 749 
L 448 2675 
L 109 2675 
Q 83 2694 83 2720 
Q 83 2771 192 2842 
Q 435 2982 813 3526 
Q 826 3546 874 3606 
Q 922 3667 941 3706 
Q 986 3706 986 3622 
L 986 2880 
L 1632 2880 
L 1632 2675 
L 986 2675 
L 986 845 
Q 986 538 1062 403 
Q 1139 269 1318 269 
Q 1510 269 1702 493 
z
" transform="scale(0.015625)"/>
       <path id="STIXGeneral-Regular-79" d="M 3040 2880 
L 3040 2784 
Q 2925 2771 2854 2700 
Q 2784 2630 2720 2458 
L 1760 -160 
Q 1510 -838 1257 -1116 
Q 1005 -1395 640 -1395 
Q 435 -1395 313 -1289 
Q 192 -1184 192 -1024 
Q 192 -902 272 -816 
Q 352 -730 467 -730 
Q 653 -730 800 -813 
Q 883 -858 966 -858 
Q 1101 -858 1286 -576 
Q 1376 -448 1459 -211 
Q 1542 26 1542 115 
Q 1542 198 1274 762 
L 429 2566 
Q 346 2752 90 2790 
L 90 2880 
L 1402 2880 
L 1402 2784 
Q 1197 2778 1117 2739 
Q 1037 2701 1037 2611 
Q 1037 2541 1120 2349 
L 1837 749 
L 2458 2515 
Q 2483 2573 2483 2630 
Q 2483 2784 2189 2784 
L 2189 2880 
L 3040 2880 
z
" transform="scale(0.015625)"/>
      </defs>
      <use xlink:href="#STIXGeneral-Italic-3b4" transform="translate(0 0.703125)"/>
      <use xlink:href="#STIXGeneral-Italic-64" transform="translate(45.999985 -12.525) scale(0.7)"/>
      <use xlink:href="#STIXGeneral-Regular-2c" transform="translate(85.409349 0.703125)"/>
      <use xlink:href="#STIXGeneral-Regular-6e" transform="translate(124.84933 0.703125)"/>
      <use xlink:href="#STIXGeneral-Regular-6f" transform="translate(174.849315 0.703125)"/>
      <use xlink:href="#STIXGeneral-Regular-70" transform="translate(236.882871 0.703125)"/>
      <use xlink:href="#STIXGeneral-Regular-65" transform="translate(286.882855 0.703125)"/>
      <use xlink:href="#STIXGeneral-Regular-6e" transform="translate(331.282849 0.703125)"/>
      <use xlink:href="#STIXGeneral-Regular-61" transform="translate(381.282834 0.703125)"/>
      <use xlink:href="#STIXGeneral-Regular-6c" transform="translate(425.682828 0.703125)"/>
      <use xlink:href="#STIXGeneral-Regular-74" transform="translate(453.482816 0.703125)"/>
      <use xlink:href="#STIXGeneral-Regular-79" transform="translate(481.282803 0.703125)"/>
     </g>
    </g>
    <g id="line2d_24">
     <path d="M 437.467607 197.477971 
L 451.467607 197.477971 
L 465.467607 197.477971 
" style="fill: none; stroke: #377eb8; stroke-width: 2; stroke-linecap: round"/>
    </g>
    <g id="text_15">
     <!-- $\delta_d, \mathrm{log\, penalty}$ -->
     <g style="fill: #262626" transform="translate(476.667607 202.377971) scale(0.14 -0.14)">
      <defs>
       <path id="STIXGeneral-Regular-67" d="M 3008 2483 
L 2477 2483 
Q 2598 2208 2598 1946 
Q 2598 1453 2265 1203 
Q 1933 954 1600 954 
Q 1530 954 1357 973 
L 1235 986 
Q 1107 947 979 812 
Q 851 678 851 582 
Q 851 435 1350 410 
L 2176 371 
Q 2528 358 2739 172 
Q 2950 -13 2950 -314 
Q 2950 -685 2566 -986 
Q 2035 -1395 1286 -1395 
Q 826 -1395 502 -1212 
Q 179 -1030 179 -774 
Q 179 -595 320 -419 
Q 461 -243 806 6 
Q 602 102 534 172 
Q 467 243 467 346 
Q 467 531 762 787 
Q 909 915 1037 1043 
Q 717 1203 579 1401 
Q 442 1600 442 1901 
Q 442 2336 752 2640 
Q 1062 2944 1510 2944 
Q 1766 2944 2022 2848 
L 2163 2797 
Q 2349 2733 2515 2733 
L 3008 2733 
L 3008 2483 
z
M 973 2163 
L 973 2144 
Q 973 1683 1155 1398 
Q 1338 1114 1632 1114 
Q 1850 1114 1978 1270 
Q 2106 1427 2106 1690 
Q 2106 2112 1914 2464 
Q 1754 2765 1446 2765 
Q 1222 2765 1097 2605 
Q 973 2445 973 2163 
z
M 2771 -410 
Q 2771 -230 2595 -163 
Q 2419 -96 1978 -96 
Q 1344 -96 941 -13 
Q 749 -243 688 -348 
Q 627 -454 627 -563 
Q 627 -774 880 -902 
Q 1133 -1030 1555 -1030 
Q 2099 -1030 2435 -860 
Q 2771 -691 2771 -410 
z
" transform="scale(0.015625)"/>
      </defs>
      <use xlink:href="#STIXGeneral-Italic-3b4" transform="translate(0 0.703125)"/>
      <use xlink:href="#STIXGeneral-Italic-64" transform="translate(45.999985 -12.525) scale(0.7)"/>
      <use xlink:href="#STIXGeneral-Regular-2c" transform="translate(85.409349 0.703125)"/>
      <use xlink:href="#STIXGeneral-Regular-6c" transform="translate(124.84933 0.703125)"/>
      <use xlink:href="#STIXGeneral-Regular-6f" transform="translate(152.649318 0.703125)"/>
      <use xlink:href="#STIXGeneral-Regular-67" transform="translate(202.649303 0.703125)"/>
      <use xlink:href="#STIXGeneral-Regular-70" transform="translate(264.682858 0.703125)"/>
      <use xlink:href="#STIXGeneral-Regular-65" transform="translate(314.682843 0.703125)"/>
      <use xlink:href="#STIXGeneral-Regular-6e" transform="translate(359.082837 0.703125)"/>
      <use xlink:href="#STIXGeneral-Regular-61" transform="translate(409.082822 0.703125)"/>
      <use xlink:href="#STIXGeneral-Regular-6c" transform="translate(453.482816 0.703125)"/>
      <use xlink:href="#STIXGeneral-Regular-74" transform="translate(481.282803 0.703125)"/>
      <use xlink:href="#STIXGeneral-Regular-79" transform="translate(509.082791 0.703125)"/>
     </g>
    </g>
   </g>
  </g>
 </g>
 <defs>
  <clipPath id="p2e1d571bf4">
   <rect x="46.235" y="12.264474" width="758.385215" height="139.473227"/>
  </clipPath>
 </defs>
</svg>
