<?xml version="1.0" encoding="utf-8" standalone="no"?>
<!DOCTYPE svg PUBLIC "-//W3C//DTD SVG 1.1//EN"
  "http://www.w3.org/Graphics/SVG/1.1/DTD/svg11.dtd">
<svg xmlns:xlink="http://www.w3.org/1999/xlink" width="1296pt" height="432pt" viewBox="0 0 1296 432" xmlns="http://www.w3.org/2000/svg" version="1.1">
 <metadata>
  <rdf:RDF xmlns:dc="http://purl.org/dc/elements/1.1/" xmlns:cc="http://creativecommons.org/ns#" xmlns:rdf="http://www.w3.org/1999/02/22-rdf-syntax-ns#">
   <cc:Work>
    <dc:type rdf:resource="http://purl.org/dc/dcmitype/StillImage"/>
    <dc:date>2024-05-20T12:15:02.852276</dc:date>
    <dc:format>image/svg+xml</dc:format>
    <dc:creator>
     <cc:Agent>
      <dc:title>Matplotlib v3.7.1, https://matplotlib.org/</dc:title>
     </cc:Agent>
    </dc:creator>
   </cc:Work>
  </rdf:RDF>
 </metadata>
 <defs>
  <style type="text/css">*{stroke-linejoin: round; stroke-linecap: butt}</style>
 </defs>
 <g id="figure_1">
  <g id="patch_1">
   <path d="M 0 432 
L 1296 432 
L 1296 0 
L 0 0 
z
" style="fill: #ffffff"/>
  </g>
  <g id="axes_1">
   <g id="patch_2">
    <path d="M 65.45 369.16 
L 449.713333 369.16 
L 449.713333 109.68 
L 65.45 109.68 
z
" style="fill: #eaeaf2"/>
   </g>
   <g id="matplotlib.axis_1">
    <g id="xtick_1">
     <g id="line2d_1">
      <path d="M 101.352749 369.16 
L 101.352749 109.68 
" clip-path="url(#p6ec7c73723)" style="fill: none; stroke: #ffffff; stroke-linecap: round"/>
     </g>
     <g id="line2d_2"/>
     <g id="text_1">
      <!-- 1020 -->
      <g style="fill: #262626" transform="translate(88.006499 384.85625) scale(0.12 -0.12)">
       <defs>
        <path id="LiberationSans-31" d="M 488 0 
L 488 478 
L 1609 478 
L 1609 3866 
L 616 3156 
L 616 3688 
L 1656 4403 
L 2175 4403 
L 2175 478 
L 3247 478 
L 3247 0 
L 488 0 
z
" transform="scale(0.015625)"/>
        <path id="LiberationSans-30" d="M 3309 2203 
Q 3309 1100 2920 518 
Q 2531 -63 1772 -63 
Q 1013 -63 631 515 
Q 250 1094 250 2203 
Q 250 3338 620 3903 
Q 991 4469 1791 4469 
Q 2569 4469 2939 3897 
Q 3309 3325 3309 2203 
z
M 2738 2203 
Q 2738 3156 2517 3584 
Q 2297 4013 1791 4013 
Q 1272 4013 1045 3591 
Q 819 3169 819 2203 
Q 819 1266 1048 831 
Q 1278 397 1778 397 
Q 2275 397 2506 840 
Q 2738 1284 2738 2203 
z
" transform="scale(0.015625)"/>
        <path id="LiberationSans-32" d="M 322 0 
L 322 397 
Q 481 763 711 1042 
Q 941 1322 1194 1548 
Q 1447 1775 1695 1969 
Q 1944 2163 2144 2356 
Q 2344 2550 2467 2762 
Q 2591 2975 2591 3244 
Q 2591 3606 2378 3806 
Q 2166 4006 1788 4006 
Q 1428 4006 1195 3811 
Q 963 3616 922 3263 
L 347 3316 
Q 409 3844 795 4156 
Q 1181 4469 1788 4469 
Q 2453 4469 2811 4155 
Q 3169 3841 3169 3263 
Q 3169 3006 3051 2753 
Q 2934 2500 2703 2247 
Q 2472 1994 1819 1463 
Q 1459 1169 1246 933 
Q 1034 697 941 478 
L 3238 478 
L 3238 0 
L 322 0 
z
" transform="scale(0.015625)"/>
       </defs>
       <use xlink:href="#LiberationSans-31"/>
       <use xlink:href="#LiberationSans-30" x="55.615234"/>
       <use xlink:href="#LiberationSans-32" x="111.230469"/>
       <use xlink:href="#LiberationSans-30" x="166.845703"/>
      </g>
     </g>
    </g>
    <g id="xtick_2">
     <g id="line2d_3">
      <path d="M 171.54591 369.16 
L 171.54591 109.68 
" clip-path="url(#p6ec7c73723)" style="fill: none; stroke: #ffffff; stroke-linecap: round"/>
     </g>
     <g id="line2d_4"/>
     <g id="text_2">
      <!-- 1040 -->
      <g style="fill: #262626" transform="translate(158.19966 384.85625) scale(0.12 -0.12)">
       <defs>
        <path id="LiberationSans-34" d="M 2753 997 
L 2753 0 
L 2222 0 
L 2222 997 
L 147 997 
L 147 1434 
L 2163 4403 
L 2753 4403 
L 2753 1441 
L 3372 1441 
L 3372 997 
L 2753 997 
z
M 2222 3769 
Q 2216 3750 2134 3603 
Q 2053 3456 2013 3397 
L 884 1734 
L 716 1503 
L 666 1441 
L 2222 1441 
L 2222 3769 
z
" transform="scale(0.015625)"/>
       </defs>
       <use xlink:href="#LiberationSans-31"/>
       <use xlink:href="#LiberationSans-30" x="55.615234"/>
       <use xlink:href="#LiberationSans-34" x="111.230469"/>
       <use xlink:href="#LiberationSans-30" x="166.845703"/>
      </g>
     </g>
    </g>
    <g id="xtick_3">
     <g id="line2d_5">
      <path d="M 241.73907 369.16 
L 241.73907 109.68 
" clip-path="url(#p6ec7c73723)" style="fill: none; stroke: #ffffff; stroke-linecap: round"/>
     </g>
     <g id="line2d_6"/>
     <g id="text_3">
      <!-- 1060 -->
      <g style="fill: #262626" transform="translate(228.39282 384.85625) scale(0.12 -0.12)">
       <defs>
        <path id="LiberationSans-36" d="M 3278 1441 
Q 3278 744 2900 340 
Q 2522 -63 1856 -63 
Q 1113 -63 719 490 
Q 325 1044 325 2100 
Q 325 3244 734 3856 
Q 1144 4469 1900 4469 
Q 2897 4469 3156 3572 
L 2619 3475 
Q 2453 4013 1894 4013 
Q 1413 4013 1148 3564 
Q 884 3116 884 2266 
Q 1038 2550 1316 2698 
Q 1594 2847 1953 2847 
Q 2563 2847 2920 2465 
Q 3278 2084 3278 1441 
z
M 2706 1416 
Q 2706 1894 2472 2153 
Q 2238 2413 1819 2413 
Q 1425 2413 1183 2183 
Q 941 1953 941 1550 
Q 941 1041 1192 716 
Q 1444 391 1838 391 
Q 2244 391 2475 664 
Q 2706 938 2706 1416 
z
" transform="scale(0.015625)"/>
       </defs>
       <use xlink:href="#LiberationSans-31"/>
       <use xlink:href="#LiberationSans-30" x="55.615234"/>
       <use xlink:href="#LiberationSans-36" x="111.230469"/>
       <use xlink:href="#LiberationSans-30" x="166.845703"/>
      </g>
     </g>
    </g>
    <g id="xtick_4">
     <g id="line2d_7">
      <path d="M 311.932231 369.16 
L 311.932231 109.68 
" clip-path="url(#p6ec7c73723)" style="fill: none; stroke: #ffffff; stroke-linecap: round"/>
     </g>
     <g id="line2d_8"/>
     <g id="text_4">
      <!-- 1080 -->
      <g style="fill: #262626" transform="translate(298.585981 384.85625) scale(0.12 -0.12)">
       <defs>
        <path id="LiberationSans-38" d="M 3281 1228 
Q 3281 619 2893 278 
Q 2506 -63 1781 -63 
Q 1075 -63 676 271 
Q 278 606 278 1222 
Q 278 1653 525 1947 
Q 772 2241 1156 2303 
L 1156 2316 
Q 797 2400 589 2681 
Q 381 2963 381 3341 
Q 381 3844 757 4156 
Q 1134 4469 1769 4469 
Q 2419 4469 2795 4162 
Q 3172 3856 3172 3334 
Q 3172 2956 2962 2675 
Q 2753 2394 2391 2322 
L 2391 2309 
Q 2813 2241 3047 1952 
Q 3281 1663 3281 1228 
z
M 2588 3303 
Q 2588 4050 1769 4050 
Q 1372 4050 1164 3862 
Q 956 3675 956 3303 
Q 956 2925 1170 2726 
Q 1384 2528 1775 2528 
Q 2172 2528 2380 2711 
Q 2588 2894 2588 3303 
z
M 2697 1281 
Q 2697 1691 2453 1898 
Q 2209 2106 1769 2106 
Q 1341 2106 1100 1882 
Q 859 1659 859 1269 
Q 859 359 1788 359 
Q 2247 359 2472 579 
Q 2697 800 2697 1281 
z
" transform="scale(0.015625)"/>
       </defs>
       <use xlink:href="#LiberationSans-31"/>
       <use xlink:href="#LiberationSans-30" x="55.615234"/>
       <use xlink:href="#LiberationSans-38" x="111.230469"/>
       <use xlink:href="#LiberationSans-30" x="166.845703"/>
      </g>
     </g>
    </g>
    <g id="xtick_5">
     <g id="line2d_9">
      <path d="M 382.125392 369.16 
L 382.125392 109.68 
" clip-path="url(#p6ec7c73723)" style="fill: none; stroke: #ffffff; stroke-linecap: round"/>
     </g>
     <g id="line2d_10"/>
     <g id="text_5">
      <!-- 1100 -->
      <g style="fill: #262626" transform="translate(369.221642 384.85625) scale(0.12 -0.12)">
       <use xlink:href="#LiberationSans-31"/>
       <use xlink:href="#LiberationSans-31" x="48.240234"/>
       <use xlink:href="#LiberationSans-30" x="103.855469"/>
       <use xlink:href="#LiberationSans-30" x="159.470703"/>
      </g>
     </g>
    </g>
    <g id="text_6">
     <!-- Rewards -->
     <g style="fill: #262626" transform="translate(226.016667 402.94125) scale(0.16 -0.16)">
      <defs>
       <path id="LiberationSans-52" d="M 3638 0 
L 2494 1828 
L 1122 1828 
L 1122 0 
L 525 0 
L 525 4403 
L 2597 4403 
Q 3341 4403 3745 4070 
Q 4150 3738 4150 3144 
Q 4150 2653 3864 2318 
Q 3578 1984 3075 1897 
L 4325 0 
L 3638 0 
z
M 3550 3138 
Q 3550 3522 3289 3723 
Q 3028 3925 2538 3925 
L 1122 3925 
L 1122 2300 
L 2563 2300 
Q 3034 2300 3292 2520 
Q 3550 2741 3550 3138 
z
" transform="scale(0.015625)"/>
       <path id="LiberationSans-65" d="M 863 1572 
Q 863 991 1103 675 
Q 1344 359 1806 359 
Q 2172 359 2392 506 
Q 2613 653 2691 878 
L 3184 738 
Q 2881 -63 1806 -63 
Q 1056 -63 664 384 
Q 272 831 272 1713 
Q 272 2550 664 2997 
Q 1056 3444 1784 3444 
Q 3275 3444 3275 1647 
L 3275 1572 
L 863 1572 
z
M 2694 2003 
Q 2647 2538 2422 2783 
Q 2197 3028 1775 3028 
Q 1366 3028 1127 2754 
Q 888 2481 869 2003 
L 2694 2003 
z
" transform="scale(0.015625)"/>
       <path id="LiberationSans-77" d="M 3669 0 
L 3016 0 
L 2425 2391 
L 2313 2919 
Q 2284 2778 2225 2514 
Q 2166 2250 1588 0 
L 938 0 
L -9 3381 
L 547 3381 
L 1119 1084 
Q 1141 1009 1253 466 
L 1306 697 
L 2013 3381 
L 2616 3381 
L 3206 1059 
L 3350 466 
L 3447 900 
L 4088 3381 
L 4638 3381 
L 3669 0 
z
" transform="scale(0.015625)"/>
       <path id="LiberationSans-61" d="M 1294 -63 
Q 784 -63 528 206 
Q 272 475 272 944 
Q 272 1469 617 1750 
Q 963 2031 1731 2050 
L 2491 2063 
L 2491 2247 
Q 2491 2659 2316 2837 
Q 2141 3016 1766 3016 
Q 1388 3016 1216 2887 
Q 1044 2759 1009 2478 
L 422 2531 
Q 566 3444 1778 3444 
Q 2416 3444 2737 3151 
Q 3059 2859 3059 2306 
L 3059 850 
Q 3059 600 3125 473 
Q 3191 347 3375 347 
Q 3456 347 3559 369 
L 3559 19 
Q 3347 -31 3125 -31 
Q 2813 -31 2670 133 
Q 2528 297 2509 647 
L 2491 647 
Q 2275 259 1989 98 
Q 1703 -63 1294 -63 
z
M 1422 359 
Q 1731 359 1972 500 
Q 2213 641 2352 886 
Q 2491 1131 2491 1391 
L 2491 1669 
L 1875 1656 
Q 1478 1650 1273 1575 
Q 1069 1500 959 1344 
Q 850 1188 850 934 
Q 850 659 998 509 
Q 1147 359 1422 359 
z
" transform="scale(0.015625)"/>
       <path id="LiberationSans-72" d="M 444 0 
L 444 2594 
Q 444 2950 425 3381 
L 956 3381 
Q 981 2806 981 2691 
L 994 2691 
Q 1128 3125 1303 3284 
Q 1478 3444 1797 3444 
Q 1909 3444 2025 3413 
L 2025 2897 
Q 1913 2928 1725 2928 
Q 1375 2928 1190 2626 
Q 1006 2325 1006 1763 
L 1006 0 
L 444 0 
z
" transform="scale(0.015625)"/>
       <path id="LiberationSans-64" d="M 2566 544 
Q 2409 219 2151 78 
Q 1894 -63 1513 -63 
Q 872 -63 570 368 
Q 269 800 269 1675 
Q 269 3444 1513 3444 
Q 1897 3444 2153 3303 
Q 2409 3163 2566 2856 
L 2572 2856 
L 2566 3234 
L 2566 4638 
L 3128 4638 
L 3128 697 
Q 3128 169 3147 0 
L 2609 0 
Q 2600 50 2589 231 
Q 2578 413 2578 544 
L 2566 544 
z
M 859 1694 
Q 859 984 1046 678 
Q 1234 372 1656 372 
Q 2134 372 2350 703 
Q 2566 1034 2566 1731 
Q 2566 2403 2350 2715 
Q 2134 3028 1663 3028 
Q 1238 3028 1048 2714 
Q 859 2400 859 1694 
z
" transform="scale(0.015625)"/>
       <path id="LiberationSans-73" d="M 2969 934 
Q 2969 456 2608 196 
Q 2247 -63 1597 -63 
Q 966 -63 623 145 
Q 281 353 178 794 
L 675 891 
Q 747 619 972 492 
Q 1197 366 1597 366 
Q 2025 366 2223 497 
Q 2422 628 2422 891 
Q 2422 1091 2284 1216 
Q 2147 1341 1841 1422 
L 1438 1528 
Q 953 1653 748 1773 
Q 544 1894 428 2066 
Q 313 2238 313 2488 
Q 313 2950 642 3192 
Q 972 3434 1603 3434 
Q 2163 3434 2492 3237 
Q 2822 3041 2909 2606 
L 2403 2544 
Q 2356 2769 2151 2889 
Q 1947 3009 1603 3009 
Q 1222 3009 1040 2893 
Q 859 2778 859 2544 
Q 859 2400 934 2306 
Q 1009 2213 1156 2147 
Q 1303 2081 1775 1966 
Q 2222 1853 2419 1758 
Q 2616 1663 2730 1547 
Q 2844 1431 2906 1279 
Q 2969 1128 2969 934 
z
" transform="scale(0.015625)"/>
      </defs>
      <use xlink:href="#LiberationSans-52"/>
      <use xlink:href="#LiberationSans-65" x="72.216797"/>
      <use xlink:href="#LiberationSans-77" x="127.832031"/>
      <use xlink:href="#LiberationSans-61" x="200.048828"/>
      <use xlink:href="#LiberationSans-72" x="255.664062"/>
      <use xlink:href="#LiberationSans-64" x="288.964844"/>
      <use xlink:href="#LiberationSans-73" x="344.580078"/>
     </g>
    </g>
   </g>
   <g id="matplotlib.axis_2">
    <g id="ytick_1">
     <g id="line2d_11">
      <path d="M 65.45 350.418339 
L 449.713333 350.418339 
" clip-path="url(#p6ec7c73723)" style="fill: none; stroke: #ffffff; stroke-linecap: round"/>
     </g>
     <g id="line2d_12"/>
     <g id="text_7">
      <!-- 10 -->
      <g style="fill: #262626" transform="translate(45.10375 354.766464) scale(0.12 -0.12)">
       <use xlink:href="#LiberationSans-31"/>
       <use xlink:href="#LiberationSans-30" x="55.615234"/>
      </g>
     </g>
    </g>
    <g id="ytick_2">
     <g id="line2d_13">
      <path d="M 65.45 295.25116 
L 449.713333 295.25116 
" clip-path="url(#p6ec7c73723)" style="fill: none; stroke: #ffffff; stroke-linecap: round"/>
     </g>
     <g id="line2d_14"/>
     <g id="text_8">
      <!-- 11 -->
      <g style="fill: #262626" transform="translate(45.98875 299.599285) scale(0.12 -0.12)">
       <use xlink:href="#LiberationSans-31"/>
       <use xlink:href="#LiberationSans-31" x="48.240234"/>
      </g>
     </g>
    </g>
    <g id="ytick_3">
     <g id="line2d_15">
      <path d="M 65.45 240.083981 
L 449.713333 240.083981 
" clip-path="url(#p6ec7c73723)" style="fill: none; stroke: #ffffff; stroke-linecap: round"/>
     </g>
     <g id="line2d_16"/>
     <g id="text_9">
      <!-- 12 -->
      <g style="fill: #262626" transform="translate(45.10375 244.432106) scale(0.12 -0.12)">
       <use xlink:href="#LiberationSans-31"/>
       <use xlink:href="#LiberationSans-32" x="55.615234"/>
      </g>
     </g>
    </g>
    <g id="ytick_4">
     <g id="line2d_17">
      <path d="M 65.45 184.916802 
L 449.713333 184.916802 
" clip-path="url(#p6ec7c73723)" style="fill: none; stroke: #ffffff; stroke-linecap: round"/>
     </g>
     <g id="line2d_18"/>
     <g id="text_10">
      <!-- 13 -->
      <g style="fill: #262626" transform="translate(45.10375 189.264927) scale(0.12 -0.12)">
       <defs>
        <path id="LiberationSans-33" d="M 3278 1216 
Q 3278 606 2890 271 
Q 2503 -63 1784 -63 
Q 1116 -63 717 239 
Q 319 541 244 1131 
L 825 1184 
Q 938 403 1784 403 
Q 2209 403 2451 612 
Q 2694 822 2694 1234 
Q 2694 1594 2417 1795 
Q 2141 1997 1619 1997 
L 1300 1997 
L 1300 2484 
L 1606 2484 
Q 2069 2484 2323 2686 
Q 2578 2888 2578 3244 
Q 2578 3597 2370 3801 
Q 2163 4006 1753 4006 
Q 1381 4006 1151 3815 
Q 922 3625 884 3278 
L 319 3322 
Q 381 3863 767 4166 
Q 1153 4469 1759 4469 
Q 2422 4469 2789 4161 
Q 3156 3853 3156 3303 
Q 3156 2881 2920 2617 
Q 2684 2353 2234 2259 
L 2234 2247 
Q 2728 2194 3003 1916 
Q 3278 1638 3278 1216 
z
" transform="scale(0.015625)"/>
       </defs>
       <use xlink:href="#LiberationSans-31"/>
       <use xlink:href="#LiberationSans-33" x="55.615234"/>
      </g>
     </g>
    </g>
    <g id="ytick_5">
     <g id="line2d_19">
      <path d="M 65.45 129.749622 
L 449.713333 129.749622 
" clip-path="url(#p6ec7c73723)" style="fill: none; stroke: #ffffff; stroke-linecap: round"/>
     </g>
     <g id="line2d_20"/>
     <g id="text_11">
      <!-- 14 -->
      <g style="fill: #262626" transform="translate(45.10375 134.097747) scale(0.12 -0.12)">
       <use xlink:href="#LiberationSans-31"/>
       <use xlink:href="#LiberationSans-34" x="55.615234"/>
      </g>
     </g>
    </g>
    <g id="text_12">
     <!-- Average Lap Time (s) -->
     <g style="fill: #262626" transform="translate(37.78375 315.7525) rotate(-90) scale(0.16 -0.16)">
      <defs>
       <path id="LiberationSans-41" d="M 3647 0 
L 3144 1288 
L 1138 1288 
L 631 0 
L 13 0 
L 1809 4403 
L 2488 4403 
L 4256 0 
L 3647 0 
z
M 2141 3953 
L 2113 3866 
Q 2034 3606 1881 3200 
L 1319 1753 
L 2966 1753 
L 2400 3206 
Q 2313 3422 2225 3694 
L 2141 3953 
z
" transform="scale(0.015625)"/>
       <path id="LiberationSans-76" d="M 1916 0 
L 1250 0 
L 22 3381 
L 622 3381 
L 1366 1181 
Q 1406 1056 1581 441 
L 1691 806 
L 1813 1175 
L 2581 3381 
L 3178 3381 
L 1916 0 
z
" transform="scale(0.015625)"/>
       <path id="LiberationSans-67" d="M 1713 -1328 
Q 1159 -1328 831 -1111 
Q 503 -894 409 -494 
L 975 -413 
Q 1031 -647 1223 -773 
Q 1416 -900 1728 -900 
Q 2569 -900 2569 84 
L 2569 628 
L 2563 628 
Q 2403 303 2125 139 
Q 1847 -25 1475 -25 
Q 853 -25 561 387 
Q 269 800 269 1684 
Q 269 2581 583 3007 
Q 897 3434 1538 3434 
Q 1897 3434 2161 3270 
Q 2425 3106 2569 2803 
L 2575 2803 
Q 2575 2897 2587 3128 
Q 2600 3359 2613 3381 
L 3147 3381 
Q 3128 3213 3128 2681 
L 3128 97 
Q 3128 -1328 1713 -1328 
z
M 2569 1691 
Q 2569 2103 2456 2401 
Q 2344 2700 2139 2858 
Q 1934 3016 1675 3016 
Q 1244 3016 1047 2703 
Q 850 2391 850 1691 
Q 850 997 1034 694 
Q 1219 391 1666 391 
Q 1931 391 2137 547 
Q 2344 703 2456 995 
Q 2569 1288 2569 1691 
z
" transform="scale(0.015625)"/>
       <path id="LiberationSans-20" transform="scale(0.015625)"/>
       <path id="LiberationSans-4c" d="M 525 0 
L 525 4403 
L 1122 4403 
L 1122 488 
L 3347 488 
L 3347 0 
L 525 0 
z
" transform="scale(0.015625)"/>
       <path id="LiberationSans-70" d="M 3291 1706 
Q 3291 -63 2047 -63 
Q 1266 -63 997 525 
L 981 525 
Q 994 500 994 -6 
L 994 -1328 
L 431 -1328 
L 431 2691 
Q 431 3213 413 3381 
L 956 3381 
Q 959 3369 965 3292 
Q 972 3216 980 3056 
Q 988 2897 988 2838 
L 1000 2838 
Q 1150 3150 1397 3295 
Q 1644 3441 2047 3441 
Q 2672 3441 2981 3022 
Q 3291 2603 3291 1706 
z
M 2700 1694 
Q 2700 2400 2509 2703 
Q 2319 3006 1903 3006 
Q 1569 3006 1380 2865 
Q 1191 2725 1092 2426 
Q 994 2128 994 1650 
Q 994 984 1206 668 
Q 1419 353 1897 353 
Q 2316 353 2508 661 
Q 2700 969 2700 1694 
z
" transform="scale(0.015625)"/>
       <path id="LiberationSans-54" d="M 2250 3916 
L 2250 0 
L 1656 0 
L 1656 3916 
L 144 3916 
L 144 4403 
L 3763 4403 
L 3763 3916 
L 2250 3916 
z
" transform="scale(0.015625)"/>
       <path id="LiberationSans-69" d="M 428 4100 
L 428 4638 
L 991 4638 
L 991 4100 
L 428 4100 
z
M 428 0 
L 428 3381 
L 991 3381 
L 991 0 
L 428 0 
z
" transform="scale(0.015625)"/>
       <path id="LiberationSans-6d" d="M 2400 0 
L 2400 2144 
Q 2400 2634 2265 2821 
Q 2131 3009 1781 3009 
Q 1422 3009 1212 2734 
Q 1003 2459 1003 1959 
L 1003 0 
L 444 0 
L 444 2659 
Q 444 3250 425 3381 
L 956 3381 
Q 959 3366 962 3297 
Q 966 3228 970 3139 
Q 975 3050 981 2803 
L 991 2803 
Q 1172 3163 1406 3303 
Q 1641 3444 1978 3444 
Q 2363 3444 2586 3291 
Q 2809 3138 2897 2803 
L 2906 2803 
Q 3081 3144 3329 3294 
Q 3578 3444 3931 3444 
Q 4444 3444 4676 3166 
Q 4909 2888 4909 2253 
L 4909 0 
L 4353 0 
L 4353 2144 
Q 4353 2634 4218 2821 
Q 4084 3009 3734 3009 
Q 3366 3009 3161 2736 
Q 2956 2463 2956 1959 
L 2956 0 
L 2400 0 
z
" transform="scale(0.015625)"/>
       <path id="LiberationSans-28" d="M 397 1663 
Q 397 2566 680 3284 
Q 963 4003 1550 4638 
L 2094 4638 
Q 1509 3988 1236 3256 
Q 963 2525 963 1656 
Q 963 791 1233 62 
Q 1503 -666 2094 -1325 
L 1550 -1325 
Q 959 -688 678 32 
Q 397 753 397 1650 
L 397 1663 
z
" transform="scale(0.015625)"/>
       <path id="LiberationSans-29" d="M 1734 1650 
Q 1734 747 1451 28 
Q 1169 -691 581 -1325 
L 38 -1325 
Q 625 -669 897 57 
Q 1169 784 1169 1656 
Q 1169 2528 895 3256 
Q 622 3984 38 4638 
L 581 4638 
Q 1172 4000 1453 3279 
Q 1734 2559 1734 1663 
L 1734 1650 
z
" transform="scale(0.015625)"/>
      </defs>
      <use xlink:href="#LiberationSans-41"/>
      <use xlink:href="#LiberationSans-76" x="64.949219"/>
      <use xlink:href="#LiberationSans-65" x="114.949219"/>
      <use xlink:href="#LiberationSans-72" x="170.564453"/>
      <use xlink:href="#LiberationSans-61" x="203.865234"/>
      <use xlink:href="#LiberationSans-67" x="259.480469"/>
      <use xlink:href="#LiberationSans-65" x="315.095703"/>
      <use xlink:href="#LiberationSans-20" x="370.710938"/>
      <use xlink:href="#LiberationSans-4c" x="398.494141"/>
      <use xlink:href="#LiberationSans-61" x="454.109375"/>
      <use xlink:href="#LiberationSans-70" x="509.724609"/>
      <use xlink:href="#LiberationSans-20" x="565.339844"/>
      <use xlink:href="#LiberationSans-54" x="591.373047"/>
      <use xlink:href="#LiberationSans-69" x="648.707031"/>
      <use xlink:href="#LiberationSans-6d" x="670.923828"/>
      <use xlink:href="#LiberationSans-65" x="754.224609"/>
      <use xlink:href="#LiberationSans-20" x="809.839844"/>
      <use xlink:href="#LiberationSans-28" x="837.623047"/>
      <use xlink:href="#LiberationSans-73" x="870.923828"/>
      <use xlink:href="#LiberationSans-29" x="920.923828"/>
     </g>
    </g>
   </g>
   <g id="PathCollection_1">
    <defs>
     <path id="m0f5b48faff" d="M 0 5 
C 1.326016 5 2.597899 4.473168 3.535534 3.535534 
C 4.473168 2.597899 5 1.326016 5 0 
C 5 -1.326016 4.473168 -2.597899 3.535534 -3.535534 
C 2.597899 -4.473168 1.326016 -5 0 -5 
C -1.326016 -5 -2.597899 -4.473168 -3.535534 -3.535534 
C -4.473168 -2.597899 -5 -1.326016 -5 0 
C -5 1.326016 -4.473168 2.597899 -3.535534 3.535534 
C -2.597899 4.473168 -1.326016 5 0 5 
z
" style="stroke: #e41a1c; stroke-width: 0.3"/>
    </defs>
    <g clip-path="url(#p6ec7c73723)">
     <use xlink:href="#m0f5b48faff" x="82.916515" y="134.162997" style="fill: #e41a1c; stroke: #e41a1c; stroke-width: 0.3"/>
     <use xlink:href="#m0f5b48faff" x="113.299625" y="346.556637" style="fill: #e41a1c; stroke: #e41a1c; stroke-width: 0.3"/>
     <use xlink:href="#m0f5b48faff" x="432.246818" y="348.211652" style="fill: #e41a1c; stroke: #e41a1c; stroke-width: 0.3"/>
    </g>
   </g>
   <g id="line2d_21">
    <path d="M 82.916515 230.255188 
L 113.299625 241.310643 
L 432.246818 357.365455 
" clip-path="url(#p6ec7c73723)" style="fill: none; stroke-dasharray: 7.4,3.2; stroke-dashoffset: 0; stroke: #e41a1c; stroke-width: 2"/>
   </g>
   <g id="patch_3">
    <path d="M 65.45 369.16 
L 65.45 109.68 
" style="fill: none"/>
   </g>
   <g id="patch_4">
    <path d="M 449.713333 369.16 
L 449.713333 109.68 
" style="fill: none"/>
   </g>
   <g id="patch_5">
    <path d="M 65.45 369.16 
L 449.713333 369.16 
" style="fill: none"/>
   </g>
   <g id="patch_6">
    <path d="M 65.45 109.68 
L 449.713333 109.68 
" style="fill: none"/>
   </g>
   <g id="text_13">
    <g id="patch_7">
     <path d="M 84.663167 152.76575 
L 147.044417 152.76575 
Q 153.044417 152.76575 153.044417 146.76575 
L 153.044417 122.654 
Q 153.044417 116.654 147.044417 116.654 
L 84.663167 116.654 
Q 78.663167 116.654 78.663167 122.654 
L 78.663167 146.76575 
Q 78.663167 152.76575 84.663167 152.76575 
z
" style="fill: #4c72b0; opacity: 0.1; stroke: #000000; stroke-width: 0.3; stroke-linejoin: miter"/>
    </g>
    <!-- R=-0.57 -->
    <g style="fill: #262626" transform="translate(84.663167 131.35025) scale(0.12 -0.12)">
     <defs>
      <path id="LiberationSans-3d" d="M 313 2675 
L 313 3138 
L 3422 3138 
L 3422 2675 
L 313 2675 
z
M 313 1075 
L 313 1538 
L 3422 1538 
L 3422 1075 
L 313 1075 
z
" transform="scale(0.015625)"/>
      <path id="LiberationSans-2d" d="M 284 1450 
L 284 1950 
L 1847 1950 
L 1847 1450 
L 284 1450 
z
" transform="scale(0.015625)"/>
      <path id="LiberationSans-2e" d="M 584 0 
L 584 684 
L 1194 684 
L 1194 0 
L 584 0 
z
" transform="scale(0.015625)"/>
      <path id="LiberationSans-35" d="M 3291 1434 
Q 3291 738 2877 337 
Q 2463 -63 1728 -63 
Q 1113 -63 734 206 
Q 356 475 256 984 
L 825 1050 
Q 1003 397 1741 397 
Q 2194 397 2450 670 
Q 2706 944 2706 1422 
Q 2706 1838 2448 2094 
Q 2191 2350 1753 2350 
Q 1525 2350 1328 2278 
Q 1131 2206 934 2034 
L 384 2034 
L 531 4403 
L 3034 4403 
L 3034 3925 
L 1044 3925 
L 959 2528 
Q 1325 2809 1869 2809 
Q 2519 2809 2905 2428 
Q 3291 2047 3291 1434 
z
" transform="scale(0.015625)"/>
      <path id="LiberationSans-37" d="M 3238 3947 
Q 2563 2916 2284 2331 
Q 2006 1747 1867 1178 
Q 1728 609 1728 0 
L 1141 0 
Q 1141 844 1498 1776 
Q 1856 2709 2694 3925 
L 328 3925 
L 328 4403 
L 3238 4403 
L 3238 3947 
z
" transform="scale(0.015625)"/>
     </defs>
     <use xlink:href="#LiberationSans-52"/>
     <use xlink:href="#LiberationSans-3d" x="72.216797"/>
     <use xlink:href="#LiberationSans-2d" x="130.615234"/>
     <use xlink:href="#LiberationSans-30" x="163.916016"/>
     <use xlink:href="#LiberationSans-2e" x="219.53125"/>
     <use xlink:href="#LiberationSans-35" x="247.314453"/>
     <use xlink:href="#LiberationSans-37" x="302.929688"/>
    </g>
    <!-- P=6.12e-01 -->
    <g style="fill: #262626" transform="translate(84.663167 144.27575) scale(0.12 -0.12)">
     <defs>
      <path id="LiberationSans-50" d="M 3931 3078 
Q 3931 2453 3523 2084 
Q 3116 1716 2416 1716 
L 1122 1716 
L 1122 0 
L 525 0 
L 525 4403 
L 2378 4403 
Q 3119 4403 3525 4056 
Q 3931 3709 3931 3078 
z
M 3331 3072 
Q 3331 3925 2306 3925 
L 1122 3925 
L 1122 2188 
L 2331 2188 
Q 3331 2188 3331 3072 
z
" transform="scale(0.015625)"/>
     </defs>
     <use xlink:href="#LiberationSans-50"/>
     <use xlink:href="#LiberationSans-3d" x="66.699219"/>
     <use xlink:href="#LiberationSans-36" x="125.097656"/>
     <use xlink:href="#LiberationSans-2e" x="180.712891"/>
     <use xlink:href="#LiberationSans-31" x="208.496094"/>
     <use xlink:href="#LiberationSans-32" x="264.111328"/>
     <use xlink:href="#LiberationSans-65" x="319.726562"/>
     <use xlink:href="#LiberationSans-2d" x="375.341797"/>
     <use xlink:href="#LiberationSans-30" x="408.642578"/>
     <use xlink:href="#LiberationSans-31" x="464.257812"/>
    </g>
   </g>
   <g id="text_14">
    <!-- MLP -->
    <g style="fill: #262626" transform="translate(241.132917 103.68) scale(0.16 -0.16)">
     <defs>
      <path id="LiberationSans-4d" d="M 4269 0 
L 4269 2938 
Q 4269 3425 4297 3875 
Q 4144 3316 4022 3000 
L 2884 0 
L 2466 0 
L 1313 3000 
L 1138 3531 
L 1034 3875 
L 1044 3528 
L 1056 2938 
L 1056 0 
L 525 0 
L 525 4403 
L 1309 4403 
L 2481 1350 
Q 2544 1166 2601 955 
Q 2659 744 2678 650 
Q 2703 775 2783 1029 
Q 2863 1284 2891 1350 
L 4041 4403 
L 4806 4403 
L 4806 0 
L 4269 0 
z
" transform="scale(0.015625)"/>
     </defs>
     <use xlink:href="#LiberationSans-4d"/>
     <use xlink:href="#LiberationSans-4c" x="83.300781"/>
     <use xlink:href="#LiberationSans-50" x="138.916016"/>
    </g>
   </g>
  </g>
  <g id="axes_2">
   <g id="patch_8">
    <path d="M 475.633333 369.16 
L 859.896667 369.16 
L 859.896667 109.68 
L 475.633333 109.68 
z
" style="fill: #eaeaf2"/>
   </g>
   <g id="matplotlib.axis_3">
    <g id="xtick_6">
     <g id="line2d_22">
      <path d="M 516.770334 369.16 
L 516.770334 109.68 
" clip-path="url(#pace6776b5f)" style="fill: none; stroke: #ffffff; stroke-linecap: round"/>
     </g>
     <g id="line2d_23"/>
     <g id="text_15">
      <!-- 980 -->
      <g style="fill: #262626" transform="translate(506.760646 384.85625) scale(0.12 -0.12)">
       <defs>
        <path id="LiberationSans-39" d="M 3256 2291 
Q 3256 1156 2842 546 
Q 2428 -63 1663 -63 
Q 1147 -63 836 154 
Q 525 372 391 856 
L 928 941 
Q 1097 391 1672 391 
Q 2156 391 2422 841 
Q 2688 1291 2700 2125 
Q 2575 1844 2272 1673 
Q 1969 1503 1606 1503 
Q 1013 1503 656 1909 
Q 300 2316 300 2988 
Q 300 3678 687 4073 
Q 1075 4469 1766 4469 
Q 2500 4469 2878 3925 
Q 3256 3381 3256 2291 
z
M 2644 2834 
Q 2644 3366 2400 3689 
Q 2156 4013 1747 4013 
Q 1341 4013 1106 3736 
Q 872 3459 872 2988 
Q 872 2506 1106 2226 
Q 1341 1947 1741 1947 
Q 1984 1947 2193 2058 
Q 2403 2169 2523 2372 
Q 2644 2575 2644 2834 
z
" transform="scale(0.015625)"/>
       </defs>
       <use xlink:href="#LiberationSans-39"/>
       <use xlink:href="#LiberationSans-38" x="55.615234"/>
       <use xlink:href="#LiberationSans-30" x="111.230469"/>
      </g>
     </g>
    </g>
    <g id="xtick_7">
     <g id="line2d_24">
      <path d="M 567.272756 369.16 
L 567.272756 109.68 
" clip-path="url(#pace6776b5f)" style="fill: none; stroke: #ffffff; stroke-linecap: round"/>
     </g>
     <g id="line2d_25"/>
     <g id="text_16">
      <!-- 1000 -->
      <g style="fill: #262626" transform="translate(553.926506 384.85625) scale(0.12 -0.12)">
       <use xlink:href="#LiberationSans-31"/>
       <use xlink:href="#LiberationSans-30" x="55.615234"/>
       <use xlink:href="#LiberationSans-30" x="111.230469"/>
       <use xlink:href="#LiberationSans-30" x="166.845703"/>
      </g>
     </g>
    </g>
    <g id="xtick_8">
     <g id="line2d_26">
      <path d="M 617.775178 369.16 
L 617.775178 109.68 
" clip-path="url(#pace6776b5f)" style="fill: none; stroke: #ffffff; stroke-linecap: round"/>
     </g>
     <g id="line2d_27"/>
     <g id="text_17">
      <!-- 1020 -->
      <g style="fill: #262626" transform="translate(604.428928 384.85625) scale(0.12 -0.12)">
       <use xlink:href="#LiberationSans-31"/>
       <use xlink:href="#LiberationSans-30" x="55.615234"/>
       <use xlink:href="#LiberationSans-32" x="111.230469"/>
       <use xlink:href="#LiberationSans-30" x="166.845703"/>
      </g>
     </g>
    </g>
    <g id="xtick_9">
     <g id="line2d_28">
      <path d="M 668.2776 369.16 
L 668.2776 109.68 
" clip-path="url(#pace6776b5f)" style="fill: none; stroke: #ffffff; stroke-linecap: round"/>
     </g>
     <g id="line2d_29"/>
     <g id="text_18">
      <!-- 1040 -->
      <g style="fill: #262626" transform="translate(654.93135 384.85625) scale(0.12 -0.12)">
       <use xlink:href="#LiberationSans-31"/>
       <use xlink:href="#LiberationSans-30" x="55.615234"/>
       <use xlink:href="#LiberationSans-34" x="111.230469"/>
       <use xlink:href="#LiberationSans-30" x="166.845703"/>
      </g>
     </g>
    </g>
    <g id="xtick_10">
     <g id="line2d_30">
      <path d="M 718.780022 369.16 
L 718.780022 109.68 
" clip-path="url(#pace6776b5f)" style="fill: none; stroke: #ffffff; stroke-linecap: round"/>
     </g>
     <g id="line2d_31"/>
     <g id="text_19">
      <!-- 1060 -->
      <g style="fill: #262626" transform="translate(705.433772 384.85625) scale(0.12 -0.12)">
       <use xlink:href="#LiberationSans-31"/>
       <use xlink:href="#LiberationSans-30" x="55.615234"/>
       <use xlink:href="#LiberationSans-36" x="111.230469"/>
       <use xlink:href="#LiberationSans-30" x="166.845703"/>
      </g>
     </g>
    </g>
    <g id="xtick_11">
     <g id="line2d_32">
      <path d="M 769.282444 369.16 
L 769.282444 109.68 
" clip-path="url(#pace6776b5f)" style="fill: none; stroke: #ffffff; stroke-linecap: round"/>
     </g>
     <g id="line2d_33"/>
     <g id="text_20">
      <!-- 1080 -->
      <g style="fill: #262626" transform="translate(755.936194 384.85625) scale(0.12 -0.12)">
       <use xlink:href="#LiberationSans-31"/>
       <use xlink:href="#LiberationSans-30" x="55.615234"/>
       <use xlink:href="#LiberationSans-38" x="111.230469"/>
       <use xlink:href="#LiberationSans-30" x="166.845703"/>
      </g>
     </g>
    </g>
    <g id="xtick_12">
     <g id="line2d_34">
      <path d="M 819.784866 369.16 
L 819.784866 109.68 
" clip-path="url(#pace6776b5f)" style="fill: none; stroke: #ffffff; stroke-linecap: round"/>
     </g>
     <g id="line2d_35"/>
     <g id="text_21">
      <!-- 1100 -->
      <g style="fill: #262626" transform="translate(806.881116 384.85625) scale(0.12 -0.12)">
       <use xlink:href="#LiberationSans-31"/>
       <use xlink:href="#LiberationSans-31" x="48.240234"/>
       <use xlink:href="#LiberationSans-30" x="103.855469"/>
       <use xlink:href="#LiberationSans-30" x="159.470703"/>
      </g>
     </g>
    </g>
    <g id="text_22">
     <!-- Rewards -->
     <g style="fill: #262626" transform="translate(636.2 402.94125) scale(0.16 -0.16)">
      <use xlink:href="#LiberationSans-52"/>
      <use xlink:href="#LiberationSans-65" x="72.216797"/>
      <use xlink:href="#LiberationSans-77" x="127.832031"/>
      <use xlink:href="#LiberationSans-61" x="200.048828"/>
      <use xlink:href="#LiberationSans-72" x="255.664062"/>
      <use xlink:href="#LiberationSans-64" x="288.964844"/>
      <use xlink:href="#LiberationSans-73" x="344.580078"/>
     </g>
    </g>
   </g>
   <g id="matplotlib.axis_4">
    <g id="ytick_6">
     <g id="line2d_36">
      <path d="M 475.633333 350.418339 
L 859.896667 350.418339 
" clip-path="url(#pace6776b5f)" style="fill: none; stroke: #ffffff; stroke-linecap: round"/>
     </g>
     <g id="line2d_37"/>
    </g>
    <g id="ytick_7">
     <g id="line2d_38">
      <path d="M 475.633333 295.25116 
L 859.896667 295.25116 
" clip-path="url(#pace6776b5f)" style="fill: none; stroke: #ffffff; stroke-linecap: round"/>
     </g>
     <g id="line2d_39"/>
    </g>
    <g id="ytick_8">
     <g id="line2d_40">
      <path d="M 475.633333 240.083981 
L 859.896667 240.083981 
" clip-path="url(#pace6776b5f)" style="fill: none; stroke: #ffffff; stroke-linecap: round"/>
     </g>
     <g id="line2d_41"/>
    </g>
    <g id="ytick_9">
     <g id="line2d_42">
      <path d="M 475.633333 184.916802 
L 859.896667 184.916802 
" clip-path="url(#pace6776b5f)" style="fill: none; stroke: #ffffff; stroke-linecap: round"/>
     </g>
     <g id="line2d_43"/>
    </g>
    <g id="ytick_10">
     <g id="line2d_44">
      <path d="M 475.633333 129.749622 
L 859.896667 129.749622 
" clip-path="url(#pace6776b5f)" style="fill: none; stroke: #ffffff; stroke-linecap: round"/>
     </g>
     <g id="line2d_45"/>
    </g>
   </g>
   <g id="PathCollection_2">
    <defs>
     <path id="mf4eca734e2" d="M 0 5 
C 1.326016 5 2.597899 4.473168 3.535534 3.535534 
C 4.473168 2.597899 5 1.326016 5 0 
C 5 -1.326016 4.473168 -2.597899 3.535534 -3.535534 
C 2.597899 -4.473168 1.326016 -5 0 -5 
C -1.326016 -5 -2.597899 -4.473168 -3.535534 -3.535534 
C -4.473168 -2.597899 -5 -1.326016 -5 0 
C -5 1.326016 -4.473168 2.597899 -3.535534 3.535534 
C -2.597899 4.473168 -1.326016 5 0 5 
z
" style="stroke: #4daf4a; stroke-width: 0.3"/>
    </defs>
    <g clip-path="url(#pace6776b5f)">
     <use xlink:href="#mf4eca734e2" x="632.20372" y="148.506463" style="fill: #4daf4a; stroke: #4daf4a; stroke-width: 0.3"/>
     <use xlink:href="#mf4eca734e2" x="493.099848" y="318.421375" style="fill: #4daf4a; stroke: #4daf4a; stroke-width: 0.3"/>
     <use xlink:href="#mf4eca734e2" x="842.430152" y="352.073355" style="fill: #4daf4a; stroke: #4daf4a; stroke-width: 0.3"/>
    </g>
   </g>
   <g id="line2d_46">
    <path d="M 632.20372 269.050994 
L 493.099848 245.877865 
L 842.430152 304.072335 
" clip-path="url(#pace6776b5f)" style="fill: none; stroke-dasharray: 7.4,3.2; stroke-dashoffset: 0; stroke: #4daf4a; stroke-width: 2"/>
   </g>
   <g id="patch_9">
    <path d="M 475.633333 369.16 
L 475.633333 109.68 
" style="fill: none"/>
   </g>
   <g id="patch_10">
    <path d="M 859.896667 369.16 
L 859.896667 109.68 
" style="fill: none"/>
   </g>
   <g id="patch_11">
    <path d="M 475.633333 369.16 
L 859.896667 369.16 
" style="fill: none"/>
   </g>
   <g id="patch_12">
    <path d="M 475.633333 109.68 
L 859.896667 109.68 
" style="fill: none"/>
   </g>
   <g id="text_23">
    <g id="patch_13">
     <path d="M 494.8465 152.76575 
L 557.22775 152.76575 
Q 563.22775 152.76575 563.22775 146.76575 
L 563.22775 122.654 
Q 563.22775 116.654 557.22775 116.654 
L 494.8465 116.654 
Q 488.8465 116.654 488.8465 122.654 
L 488.8465 146.76575 
Q 488.8465 152.76575 494.8465 152.76575 
z
" style="fill: #4c72b0; opacity: 0.1; stroke: #000000; stroke-width: 0.3; stroke-linejoin: miter"/>
    </g>
    <!-- R=-0.27 -->
    <g style="fill: #262626" transform="translate(494.8465 131.35025) scale(0.12 -0.12)">
     <use xlink:href="#LiberationSans-52"/>
     <use xlink:href="#LiberationSans-3d" x="72.216797"/>
     <use xlink:href="#LiberationSans-2d" x="130.615234"/>
     <use xlink:href="#LiberationSans-30" x="163.916016"/>
     <use xlink:href="#LiberationSans-2e" x="219.53125"/>
     <use xlink:href="#LiberationSans-32" x="247.314453"/>
     <use xlink:href="#LiberationSans-37" x="302.929688"/>
    </g>
    <!-- P=8.27e-01 -->
    <g style="fill: #262626" transform="translate(494.8465 144.27575) scale(0.12 -0.12)">
     <use xlink:href="#LiberationSans-50"/>
     <use xlink:href="#LiberationSans-3d" x="66.699219"/>
     <use xlink:href="#LiberationSans-38" x="125.097656"/>
     <use xlink:href="#LiberationSans-2e" x="180.712891"/>
     <use xlink:href="#LiberationSans-32" x="208.496094"/>
     <use xlink:href="#LiberationSans-37" x="264.111328"/>
     <use xlink:href="#LiberationSans-65" x="319.726562"/>
     <use xlink:href="#LiberationSans-2d" x="375.341797"/>
     <use xlink:href="#LiberationSans-30" x="408.642578"/>
     <use xlink:href="#LiberationSans-31" x="464.257812"/>
    </g>
   </g>
   <g id="text_24">
    <!-- LSTM -->
    <g style="fill: #262626" transform="translate(646.43 103.68) scale(0.16 -0.16)">
     <defs>
      <path id="LiberationSans-53" d="M 3975 1216 
Q 3975 606 3498 271 
Q 3022 -63 2156 -63 
Q 547 -63 291 1056 
L 869 1172 
Q 969 775 1294 589 
Q 1619 403 2178 403 
Q 2756 403 3070 601 
Q 3384 800 3384 1184 
Q 3384 1400 3286 1534 
Q 3188 1669 3009 1756 
Q 2831 1844 2584 1903 
Q 2338 1963 2038 2031 
Q 1516 2147 1245 2262 
Q 975 2378 819 2520 
Q 663 2663 580 2853 
Q 497 3044 497 3291 
Q 497 3856 930 4162 
Q 1363 4469 2169 4469 
Q 2919 4469 3316 4239 
Q 3713 4009 3872 3456 
L 3284 3353 
Q 3188 3703 2916 3861 
Q 2644 4019 2163 4019 
Q 1634 4019 1356 3844 
Q 1078 3669 1078 3322 
Q 1078 3119 1186 2986 
Q 1294 2853 1497 2761 
Q 1700 2669 2306 2534 
Q 2509 2488 2711 2439 
Q 2913 2391 3097 2323 
Q 3281 2256 3442 2165 
Q 3603 2075 3722 1944 
Q 3841 1813 3908 1634 
Q 3975 1456 3975 1216 
z
" transform="scale(0.015625)"/>
     </defs>
     <use xlink:href="#LiberationSans-4c"/>
     <use xlink:href="#LiberationSans-53" x="55.615234"/>
     <use xlink:href="#LiberationSans-54" x="122.314453"/>
     <use xlink:href="#LiberationSans-4d" x="183.398438"/>
    </g>
   </g>
  </g>
  <g id="axes_3">
   <g id="patch_14">
    <path d="M 885.816667 369.16 
L 1270.08 369.16 
L 1270.08 109.68 
L 885.816667 109.68 
z
" style="fill: #eaeaf2"/>
   </g>
   <g id="matplotlib.axis_5">
    <g id="xtick_13">
     <g id="line2d_47">
      <path d="M 889.739603 369.16 
L 889.739603 109.68 
" clip-path="url(#peb65894f4d)" style="fill: none; stroke: #ffffff; stroke-linecap: round"/>
     </g>
     <g id="line2d_48"/>
     <g id="text_25">
      <!-- 1010 -->
      <g style="fill: #262626" transform="translate(876.393353 384.85625) scale(0.12 -0.12)">
       <use xlink:href="#LiberationSans-31"/>
       <use xlink:href="#LiberationSans-30" x="55.615234"/>
       <use xlink:href="#LiberationSans-31" x="111.230469"/>
       <use xlink:href="#LiberationSans-30" x="166.845703"/>
      </g>
     </g>
    </g>
    <g id="xtick_14">
     <g id="line2d_49">
      <path d="M 935.386987 369.16 
L 935.386987 109.68 
" clip-path="url(#peb65894f4d)" style="fill: none; stroke: #ffffff; stroke-linecap: round"/>
     </g>
     <g id="line2d_50"/>
     <g id="text_26">
      <!-- 1020 -->
      <g style="fill: #262626" transform="translate(922.040737 384.85625) scale(0.12 -0.12)">
       <use xlink:href="#LiberationSans-31"/>
       <use xlink:href="#LiberationSans-30" x="55.615234"/>
       <use xlink:href="#LiberationSans-32" x="111.230469"/>
       <use xlink:href="#LiberationSans-30" x="166.845703"/>
      </g>
     </g>
    </g>
    <g id="xtick_15">
     <g id="line2d_51">
      <path d="M 981.034372 369.16 
L 981.034372 109.68 
" clip-path="url(#peb65894f4d)" style="fill: none; stroke: #ffffff; stroke-linecap: round"/>
     </g>
     <g id="line2d_52"/>
     <g id="text_27">
      <!-- 1030 -->
      <g style="fill: #262626" transform="translate(967.688122 384.85625) scale(0.12 -0.12)">
       <use xlink:href="#LiberationSans-31"/>
       <use xlink:href="#LiberationSans-30" x="55.615234"/>
       <use xlink:href="#LiberationSans-33" x="111.230469"/>
       <use xlink:href="#LiberationSans-30" x="166.845703"/>
      </g>
     </g>
    </g>
    <g id="xtick_16">
     <g id="line2d_53">
      <path d="M 1026.681756 369.16 
L 1026.681756 109.68 
" clip-path="url(#peb65894f4d)" style="fill: none; stroke: #ffffff; stroke-linecap: round"/>
     </g>
     <g id="line2d_54"/>
     <g id="text_28">
      <!-- 1040 -->
      <g style="fill: #262626" transform="translate(1013.335506 384.85625) scale(0.12 -0.12)">
       <use xlink:href="#LiberationSans-31"/>
       <use xlink:href="#LiberationSans-30" x="55.615234"/>
       <use xlink:href="#LiberationSans-34" x="111.230469"/>
       <use xlink:href="#LiberationSans-30" x="166.845703"/>
      </g>
     </g>
    </g>
    <g id="xtick_17">
     <g id="line2d_55">
      <path d="M 1072.32914 369.16 
L 1072.32914 109.68 
" clip-path="url(#peb65894f4d)" style="fill: none; stroke: #ffffff; stroke-linecap: round"/>
     </g>
     <g id="line2d_56"/>
     <g id="text_29">
      <!-- 1050 -->
      <g style="fill: #262626" transform="translate(1058.98289 384.85625) scale(0.12 -0.12)">
       <use xlink:href="#LiberationSans-31"/>
       <use xlink:href="#LiberationSans-30" x="55.615234"/>
       <use xlink:href="#LiberationSans-35" x="111.230469"/>
       <use xlink:href="#LiberationSans-30" x="166.845703"/>
      </g>
     </g>
    </g>
    <g id="xtick_18">
     <g id="line2d_57">
      <path d="M 1117.976525 369.16 
L 1117.976525 109.68 
" clip-path="url(#peb65894f4d)" style="fill: none; stroke: #ffffff; stroke-linecap: round"/>
     </g>
     <g id="line2d_58"/>
     <g id="text_30">
      <!-- 1060 -->
      <g style="fill: #262626" transform="translate(1104.630275 384.85625) scale(0.12 -0.12)">
       <use xlink:href="#LiberationSans-31"/>
       <use xlink:href="#LiberationSans-30" x="55.615234"/>
       <use xlink:href="#LiberationSans-36" x="111.230469"/>
       <use xlink:href="#LiberationSans-30" x="166.845703"/>
      </g>
     </g>
    </g>
    <g id="xtick_19">
     <g id="line2d_59">
      <path d="M 1163.623909 369.16 
L 1163.623909 109.68 
" clip-path="url(#peb65894f4d)" style="fill: none; stroke: #ffffff; stroke-linecap: round"/>
     </g>
     <g id="line2d_60"/>
     <g id="text_31">
      <!-- 1070 -->
      <g style="fill: #262626" transform="translate(1150.277659 384.85625) scale(0.12 -0.12)">
       <use xlink:href="#LiberationSans-31"/>
       <use xlink:href="#LiberationSans-30" x="55.615234"/>
       <use xlink:href="#LiberationSans-37" x="111.230469"/>
       <use xlink:href="#LiberationSans-30" x="166.845703"/>
      </g>
     </g>
    </g>
    <g id="xtick_20">
     <g id="line2d_61">
      <path d="M 1209.271293 369.16 
L 1209.271293 109.68 
" clip-path="url(#peb65894f4d)" style="fill: none; stroke: #ffffff; stroke-linecap: round"/>
     </g>
     <g id="line2d_62"/>
     <g id="text_32">
      <!-- 1080 -->
      <g style="fill: #262626" transform="translate(1195.925043 384.85625) scale(0.12 -0.12)">
       <use xlink:href="#LiberationSans-31"/>
       <use xlink:href="#LiberationSans-30" x="55.615234"/>
       <use xlink:href="#LiberationSans-38" x="111.230469"/>
       <use xlink:href="#LiberationSans-30" x="166.845703"/>
      </g>
     </g>
    </g>
    <g id="xtick_21">
     <g id="line2d_63">
      <path d="M 1254.918678 369.16 
L 1254.918678 109.68 
" clip-path="url(#peb65894f4d)" style="fill: none; stroke: #ffffff; stroke-linecap: round"/>
     </g>
     <g id="line2d_64"/>
     <g id="text_33">
      <!-- 1090 -->
      <g style="fill: #262626" transform="translate(1241.572428 384.85625) scale(0.12 -0.12)">
       <use xlink:href="#LiberationSans-31"/>
       <use xlink:href="#LiberationSans-30" x="55.615234"/>
       <use xlink:href="#LiberationSans-39" x="111.230469"/>
       <use xlink:href="#LiberationSans-30" x="166.845703"/>
      </g>
     </g>
    </g>
    <g id="text_34">
     <!-- Rewards -->
     <g style="fill: #262626" transform="translate(1046.383333 402.94125) scale(0.16 -0.16)">
      <use xlink:href="#LiberationSans-52"/>
      <use xlink:href="#LiberationSans-65" x="72.216797"/>
      <use xlink:href="#LiberationSans-77" x="127.832031"/>
      <use xlink:href="#LiberationSans-61" x="200.048828"/>
      <use xlink:href="#LiberationSans-72" x="255.664062"/>
      <use xlink:href="#LiberationSans-64" x="288.964844"/>
      <use xlink:href="#LiberationSans-73" x="344.580078"/>
     </g>
    </g>
   </g>
   <g id="matplotlib.axis_6">
    <g id="ytick_11">
     <g id="line2d_65">
      <path d="M 885.816667 350.418339 
L 1270.08 350.418339 
" clip-path="url(#peb65894f4d)" style="fill: none; stroke: #ffffff; stroke-linecap: round"/>
     </g>
     <g id="line2d_66"/>
    </g>
    <g id="ytick_12">
     <g id="line2d_67">
      <path d="M 885.816667 295.25116 
L 1270.08 295.25116 
" clip-path="url(#peb65894f4d)" style="fill: none; stroke: #ffffff; stroke-linecap: round"/>
     </g>
     <g id="line2d_68"/>
    </g>
    <g id="ytick_13">
     <g id="line2d_69">
      <path d="M 885.816667 240.083981 
L 1270.08 240.083981 
" clip-path="url(#peb65894f4d)" style="fill: none; stroke: #ffffff; stroke-linecap: round"/>
     </g>
     <g id="line2d_70"/>
    </g>
    <g id="ytick_14">
     <g id="line2d_71">
      <path d="M 885.816667 184.916802 
L 1270.08 184.916802 
" clip-path="url(#peb65894f4d)" style="fill: none; stroke: #ffffff; stroke-linecap: round"/>
     </g>
     <g id="line2d_72"/>
    </g>
    <g id="ytick_15">
     <g id="line2d_73">
      <path d="M 885.816667 129.749622 
L 1270.08 129.749622 
" clip-path="url(#peb65894f4d)" style="fill: none; stroke: #ffffff; stroke-linecap: round"/>
     </g>
     <g id="line2d_74"/>
    </g>
   </g>
   <g id="PathCollection_3">
    <defs>
     <path id="mad364e4bdc" d="M 0 5 
C 1.326016 5 2.597899 4.473168 3.535534 3.535534 
C 4.473168 2.597899 5 1.326016 5 0 
C 5 -1.326016 4.473168 -2.597899 3.535534 -3.535534 
C 2.597899 -4.473168 1.326016 -5 0 -5 
C -1.326016 -5 -2.597899 -4.473168 -3.535534 -3.535534 
C -4.473168 -2.597899 -5 -1.326016 -5 0 
C -5 1.326016 -4.473168 2.597899 -3.535534 3.535534 
C -2.597899 4.473168 -1.326016 5 0 5 
z
" style="stroke: #377eb8; stroke-width: 0.3"/>
    </defs>
    <g clip-path="url(#peb65894f4d)">
     <use xlink:href="#mad364e4bdc" x="903.283182" y="121.474545" style="fill: #377eb8; stroke: #377eb8; stroke-width: 0.3"/>
     <use xlink:href="#mad364e4bdc" x="995.239838" y="352.073355" style="fill: #377eb8; stroke: #377eb8; stroke-width: 0.3"/>
     <use xlink:href="#mad364e4bdc" x="1252.613485" y="328.351468" style="fill: #377eb8; stroke: #377eb8; stroke-width: 0.3"/>
    </g>
   </g>
   <g id="line2d_75">
    <path d="M 903.283182 201.97402 
L 995.239838 242.81234 
L 1252.613485 357.113008 
" clip-path="url(#peb65894f4d)" style="fill: none; stroke-dasharray: 7.4,3.2; stroke-dashoffset: 0; stroke: #377eb8; stroke-width: 2"/>
   </g>
   <g id="patch_15">
    <path d="M 885.816667 369.16 
L 885.816667 109.68 
" style="fill: none"/>
   </g>
   <g id="patch_16">
    <path d="M 1270.08 369.16 
L 1270.08 109.68 
" style="fill: none"/>
   </g>
   <g id="patch_17">
    <path d="M 885.816667 369.16 
L 1270.08 369.16 
" style="fill: none"/>
   </g>
   <g id="patch_18">
    <path d="M 885.816667 109.68 
L 1270.08 109.68 
" style="fill: none"/>
   </g>
   <g id="text_35">
    <g id="patch_19">
     <path d="M 905.029833 152.76575 
L 967.411083 152.76575 
Q 973.411083 152.76575 973.411083 146.76575 
L 973.411083 122.654 
Q 973.411083 116.654 967.411083 116.654 
L 905.029833 116.654 
Q 899.029833 116.654 899.029833 122.654 
L 899.029833 146.76575 
Q 899.029833 152.76575 905.029833 152.76575 
z
" style="fill: #4c72b0; opacity: 0.1; stroke: #000000; stroke-width: 0.3; stroke-linejoin: miter"/>
    </g>
    <!-- R=-0.63 -->
    <g style="fill: #262626" transform="translate(905.029833 131.35025) scale(0.12 -0.12)">
     <use xlink:href="#LiberationSans-52"/>
     <use xlink:href="#LiberationSans-3d" x="72.216797"/>
     <use xlink:href="#LiberationSans-2d" x="130.615234"/>
     <use xlink:href="#LiberationSans-30" x="163.916016"/>
     <use xlink:href="#LiberationSans-2e" x="219.53125"/>
     <use xlink:href="#LiberationSans-36" x="247.314453"/>
     <use xlink:href="#LiberationSans-33" x="302.929688"/>
    </g>
    <!-- P=5.63e-01 -->
    <g style="fill: #262626" transform="translate(905.029833 144.27575) scale(0.12 -0.12)">
     <use xlink:href="#LiberationSans-50"/>
     <use xlink:href="#LiberationSans-3d" x="66.699219"/>
     <use xlink:href="#LiberationSans-35" x="125.097656"/>
     <use xlink:href="#LiberationSans-2e" x="180.712891"/>
     <use xlink:href="#LiberationSans-36" x="208.496094"/>
     <use xlink:href="#LiberationSans-33" x="264.111328"/>
     <use xlink:href="#LiberationSans-65" x="319.726562"/>
     <use xlink:href="#LiberationSans-2d" x="375.341797"/>
     <use xlink:href="#LiberationSans-30" x="408.642578"/>
     <use xlink:href="#LiberationSans-31" x="464.257812"/>
    </g>
   </g>
   <g id="text_36">
    <!-- CNN -->
    <g style="fill: #262626" transform="translate(1060.615833 103.68) scale(0.16 -0.16)">
     <defs>
      <path id="LiberationSans-43" d="M 2475 3981 
Q 1744 3981 1337 3511 
Q 931 3041 931 2222 
Q 931 1413 1354 920 
Q 1778 428 2500 428 
Q 3425 428 3891 1344 
L 4378 1100 
Q 4106 531 3614 234 
Q 3122 -63 2472 -63 
Q 1806 -63 1320 214 
Q 834 491 579 1005 
Q 325 1519 325 2222 
Q 325 3275 894 3872 
Q 1463 4469 2469 4469 
Q 3172 4469 3644 4194 
Q 4116 3919 4338 3378 
L 3772 3191 
Q 3619 3575 3280 3778 
Q 2941 3981 2475 3981 
z
" transform="scale(0.015625)"/>
      <path id="LiberationSans-4e" d="M 3381 0 
L 1025 3750 
L 1041 3447 
L 1056 2925 
L 1056 0 
L 525 0 
L 525 4403 
L 1219 4403 
L 3600 628 
Q 3563 1241 3563 1516 
L 3563 4403 
L 4100 4403 
L 4100 0 
L 3381 0 
z
" transform="scale(0.015625)"/>
     </defs>
     <use xlink:href="#LiberationSans-43"/>
     <use xlink:href="#LiberationSans-4e" x="72.216797"/>
     <use xlink:href="#LiberationSans-4e" x="144.433594"/>
    </g>
   </g>
  </g>
  <g id="text_37">
   <!-- Correlation Between Rewards and Average Lap Times for Different Models -->
   <g style="fill: #262626" transform="translate(317.645312 23.13375) scale(0.2 -0.2)">
    <defs>
     <path id="LiberationSans-6f" d="M 3291 1694 
Q 3291 806 2900 371 
Q 2509 -63 1766 -63 
Q 1025 -63 647 389 
Q 269 841 269 1694 
Q 269 3444 1784 3444 
Q 2559 3444 2925 3017 
Q 3291 2591 3291 1694 
z
M 2700 1694 
Q 2700 2394 2492 2711 
Q 2284 3028 1794 3028 
Q 1300 3028 1079 2704 
Q 859 2381 859 1694 
Q 859 1025 1076 689 
Q 1294 353 1759 353 
Q 2266 353 2483 678 
Q 2700 1003 2700 1694 
z
" transform="scale(0.015625)"/>
     <path id="LiberationSans-6c" d="M 431 0 
L 431 4638 
L 994 4638 
L 994 0 
L 431 0 
z
" transform="scale(0.015625)"/>
     <path id="LiberationSans-74" d="M 1731 25 
Q 1453 -50 1163 -50 
Q 488 -50 488 716 
L 488 2972 
L 97 2972 
L 97 3381 
L 509 3381 
L 675 4138 
L 1050 4138 
L 1050 3381 
L 1675 3381 
L 1675 2972 
L 1050 2972 
L 1050 838 
Q 1050 594 1129 495 
Q 1209 397 1406 397 
Q 1519 397 1731 441 
L 1731 25 
z
" transform="scale(0.015625)"/>
     <path id="LiberationSans-6e" d="M 2578 0 
L 2578 2144 
Q 2578 2478 2512 2662 
Q 2447 2847 2303 2928 
Q 2159 3009 1881 3009 
Q 1475 3009 1240 2731 
Q 1006 2453 1006 1959 
L 1006 0 
L 444 0 
L 444 2659 
Q 444 3250 425 3381 
L 956 3381 
Q 959 3366 962 3297 
Q 966 3228 970 3139 
Q 975 3050 981 2803 
L 991 2803 
Q 1184 3153 1439 3298 
Q 1694 3444 2072 3444 
Q 2628 3444 2886 3167 
Q 3144 2891 3144 2253 
L 3144 0 
L 2578 0 
z
" transform="scale(0.015625)"/>
     <path id="LiberationSans-42" d="M 3931 1241 
Q 3931 653 3503 326 
Q 3075 0 2313 0 
L 525 0 
L 525 4403 
L 2125 4403 
Q 3675 4403 3675 3334 
Q 3675 2944 3456 2678 
Q 3238 2413 2838 2322 
Q 3363 2259 3647 1970 
Q 3931 1681 3931 1241 
z
M 3075 3263 
Q 3075 3619 2831 3772 
Q 2588 3925 2125 3925 
L 1122 3925 
L 1122 2531 
L 2125 2531 
Q 2603 2531 2839 2711 
Q 3075 2891 3075 3263 
z
M 3328 1288 
Q 3328 2066 2234 2066 
L 1122 2066 
L 1122 478 
L 2281 478 
Q 2828 478 3078 681 
Q 3328 884 3328 1288 
z
" transform="scale(0.015625)"/>
     <path id="LiberationSans-66" d="M 1128 2972 
L 1128 0 
L 566 0 
L 566 2972 
L 91 2972 
L 91 3381 
L 566 3381 
L 566 3763 
Q 566 4225 769 4428 
Q 972 4631 1391 4631 
Q 1625 4631 1788 4594 
L 1788 4166 
Q 1647 4191 1538 4191 
Q 1322 4191 1225 4081 
Q 1128 3972 1128 3684 
L 1128 3381 
L 1788 3381 
L 1788 2972 
L 1128 2972 
z
" transform="scale(0.015625)"/>
     <path id="LiberationSans-44" d="M 4316 2247 
Q 4316 1566 4050 1055 
Q 3784 544 3296 272 
Q 2809 0 2172 0 
L 525 0 
L 525 4403 
L 1981 4403 
Q 3100 4403 3708 3842 
Q 4316 3281 4316 2247 
z
M 3716 2247 
Q 3716 3066 3267 3495 
Q 2819 3925 1969 3925 
L 1122 3925 
L 1122 478 
L 2103 478 
Q 2588 478 2955 690 
Q 3322 903 3519 1303 
Q 3716 1703 3716 2247 
z
" transform="scale(0.015625)"/>
    </defs>
    <use xlink:href="#LiberationSans-43"/>
    <use xlink:href="#LiberationSans-6f" x="72.216797"/>
    <use xlink:href="#LiberationSans-72" x="127.832031"/>
    <use xlink:href="#LiberationSans-72" x="161.132812"/>
    <use xlink:href="#LiberationSans-65" x="194.433594"/>
    <use xlink:href="#LiberationSans-6c" x="250.048828"/>
    <use xlink:href="#LiberationSans-61" x="272.265625"/>
    <use xlink:href="#LiberationSans-74" x="327.880859"/>
    <use xlink:href="#LiberationSans-69" x="355.664062"/>
    <use xlink:href="#LiberationSans-6f" x="377.880859"/>
    <use xlink:href="#LiberationSans-6e" x="433.496094"/>
    <use xlink:href="#LiberationSans-20" x="489.111328"/>
    <use xlink:href="#LiberationSans-42" x="516.894531"/>
    <use xlink:href="#LiberationSans-65" x="583.59375"/>
    <use xlink:href="#LiberationSans-74" x="639.208984"/>
    <use xlink:href="#LiberationSans-77" x="666.992188"/>
    <use xlink:href="#LiberationSans-65" x="739.208984"/>
    <use xlink:href="#LiberationSans-65" x="794.824219"/>
    <use xlink:href="#LiberationSans-6e" x="850.439453"/>
    <use xlink:href="#LiberationSans-20" x="906.054688"/>
    <use xlink:href="#LiberationSans-52" x="933.837891"/>
    <use xlink:href="#LiberationSans-65" x="1006.054688"/>
    <use xlink:href="#LiberationSans-77" x="1061.669922"/>
    <use xlink:href="#LiberationSans-61" x="1133.886719"/>
    <use xlink:href="#LiberationSans-72" x="1189.501953"/>
    <use xlink:href="#LiberationSans-64" x="1222.802734"/>
    <use xlink:href="#LiberationSans-73" x="1278.417969"/>
    <use xlink:href="#LiberationSans-20" x="1328.417969"/>
    <use xlink:href="#LiberationSans-61" x="1356.201172"/>
    <use xlink:href="#LiberationSans-6e" x="1411.816406"/>
    <use xlink:href="#LiberationSans-64" x="1467.431641"/>
    <use xlink:href="#LiberationSans-20" x="1523.046875"/>
    <use xlink:href="#LiberationSans-41" x="1545.330078"/>
    <use xlink:href="#LiberationSans-76" x="1610.279297"/>
    <use xlink:href="#LiberationSans-65" x="1660.279297"/>
    <use xlink:href="#LiberationSans-72" x="1715.894531"/>
    <use xlink:href="#LiberationSans-61" x="1749.195312"/>
    <use xlink:href="#LiberationSans-67" x="1804.810547"/>
    <use xlink:href="#LiberationSans-65" x="1860.425781"/>
    <use xlink:href="#LiberationSans-20" x="1916.041016"/>
    <use xlink:href="#LiberationSans-4c" x="1943.824219"/>
    <use xlink:href="#LiberationSans-61" x="1999.439453"/>
    <use xlink:href="#LiberationSans-70" x="2055.054688"/>
    <use xlink:href="#LiberationSans-20" x="2110.669922"/>
    <use xlink:href="#LiberationSans-54" x="2136.703125"/>
    <use xlink:href="#LiberationSans-69" x="2194.037109"/>
    <use xlink:href="#LiberationSans-6d" x="2216.253906"/>
    <use xlink:href="#LiberationSans-65" x="2299.554688"/>
    <use xlink:href="#LiberationSans-73" x="2355.169922"/>
    <use xlink:href="#LiberationSans-20" x="2405.169922"/>
    <use xlink:href="#LiberationSans-66" x="2432.953125"/>
    <use xlink:href="#LiberationSans-6f" x="2460.736328"/>
    <use xlink:href="#LiberationSans-72" x="2516.351562"/>
    <use xlink:href="#LiberationSans-20" x="2549.652344"/>
    <use xlink:href="#LiberationSans-44" x="2577.435547"/>
    <use xlink:href="#LiberationSans-69" x="2649.652344"/>
    <use xlink:href="#LiberationSans-66" x="2671.869141"/>
    <use xlink:href="#LiberationSans-66" x="2697.902344"/>
    <use xlink:href="#LiberationSans-65" x="2725.685547"/>
    <use xlink:href="#LiberationSans-72" x="2781.300781"/>
    <use xlink:href="#LiberationSans-65" x="2814.601562"/>
    <use xlink:href="#LiberationSans-6e" x="2870.216797"/>
    <use xlink:href="#LiberationSans-74" x="2925.832031"/>
    <use xlink:href="#LiberationSans-20" x="2953.615234"/>
    <use xlink:href="#LiberationSans-4d" x="2981.398438"/>
    <use xlink:href="#LiberationSans-6f" x="3064.699219"/>
    <use xlink:href="#LiberationSans-64" x="3120.314453"/>
    <use xlink:href="#LiberationSans-65" x="3175.929688"/>
    <use xlink:href="#LiberationSans-6c" x="3231.544922"/>
    <use xlink:href="#LiberationSans-73" x="3253.761719"/>
   </g>
  </g>
 </g>
 <defs>
  <clipPath id="p6ec7c73723">
   <rect x="65.45" y="109.68" width="384.263333" height="259.48"/>
  </clipPath>
  <clipPath id="pace6776b5f">
   <rect x="475.633333" y="109.68" width="384.263333" height="259.48"/>
  </clipPath>
  <clipPath id="peb65894f4d">
   <rect x="885.816667" y="109.68" width="384.263333" height="259.48"/>
  </clipPath>
 </defs>
</svg>
